<?xml version="1.0" standalone="no"?>
<!DOCTYPE svg PUBLIC "-//W3C//DTD SVG 1.1//EN" "http://www.w3.org/Graphics/SVG/1.1/DTD/svg11.dtd" >
<svg xmlns="http://www.w3.org/2000/svg">
<metadata>
This is a custom SVG webfont generated by Font Squirrel.
Copyright   : Copyright c Village Type and Design 20032007 All rights reserved
Designer    : Chester Jenkins and Rick Valicenti
Foundry     : Village Type and Design LLC
Foundry URL : vllgcom
</metadata>
<defs>
<font id="VerizonApexMedium" horiz-adv-x="1228" >
<font-face units-per-em="2048" ascent="1536" descent="-512" />
<missing-glyph horiz-adv-x="409" />
<glyph unicode=" "  horiz-adv-x="409" />
<glyph unicode="&#x09;" horiz-adv-x="409" />
<glyph unicode="&#xa0;" horiz-adv-x="409" />
<glyph unicode="!" horiz-adv-x="450" d="M82 116.5q0 59.5 42 101.5t101.5 42t101.5 -42t42 -101.5t-42 -101.5t-101.5 -42t-101.5 42t-42 101.5zM86 1536h279l-74 -1106h-131z" />
<glyph unicode="&#x22;" horiz-adv-x="798" d="M86 1536h279l-64 -512h-151zM434 1536h279l-64 -512h-151z" />
<glyph unicode="#" horiz-adv-x="1198" d="M20 750l60 202h174l57 146h-157l59 202h176l88 236h211l-90 -236h207l88 236h211l-90 -236h164l-60 -202h-182l-57 -146h165l-59 -202h-182l-92 -240h-209l88 240h-203l-92 -240h-211l92 240h-156zM463 952h205l57 146h-205z" />
<glyph unicode="$" d="M133 979q0 174 129 264t371 90h12l70 203h227l-84 -217q113 -12 193 -47v-201q-150 57 -420 57q-291 0 -291 -135q0 -16 5 -30.5t16.5 -23.5t22.5 -17.5t31.5 -13.5t36 -9t43 -6t43 -4t46 -3t45.5 -3q260 -20 363.5 -84t103.5 -236q0 -168 -131 -263t-377 -97l-70 -203 h-227l80 215q-152 14 -219 45v209q68 -29 195.5 -45t230.5 -16q141 0 224 32.5t83 120.5q0 25 -10.5 44.5t-35 31.5t-43 20.5t-62.5 14.5t-61.5 8t-68.5 6q-133 10 -211 24.5t-142.5 46t-91 85t-26.5 137.5z" />
<glyph unicode="%" horiz-adv-x="2017" d="M113 1143q0 211 89 315.5t283 104.5q193 0 283 -105.5t90 -314.5t-90 -314.5t-283 -105.5q-195 0 -283.5 104.5t-88.5 315.5zM315 1143q0 -123 39 -173t131.5 -50t131 50t38.5 173t-38.5 174t-131 51t-131.5 -51t-39 -174zM342 0l1090 1536h243l-1089 -1536h-244z M1161 393q0 211 89 315.5t282 104.5q195 0 284 -104.5t89 -315.5t-89.5 -315.5t-283.5 -104.5q-193 0 -282 104.5t-89 315.5zM1362 393q0 -121 40 -173t130 -52q92 0 131 51t39 174t-39 173t-131 50q-90 0 -130 -51t-40 -172z" />
<glyph unicode="&#x26;" horiz-adv-x="1497" d="M102 467q0 143 69 249.5t177 166.5q-35 141 -35 274q0 72 19.5 139.5t61.5 129t120 99.5t180 38q332 0 332 -281q0 -55 -18 -106h-205q20 68 20 106q0 80 -129 80q-94 0 -132 -61.5t-38 -143.5q0 -96 28 -215t84 -245t155.5 -241.5t224.5 -183.5q158 109 158 320 q0 260 -205 260q-139 0 -275 -49v201q147 47 275 47q190 0 303.5 -114t113.5 -345q0 -229 -155 -395v-2q76 -12 184 -13v-209q-223 0 -399 70q-164 -70 -330 -70q-270 0 -427 120t-157 374zM315 467q0 -152 100.5 -225.5t270.5 -73.5q45 0 90 8v2q-223 170 -364 502 q-97 -70 -97 -213z" />
<glyph unicode="'" horiz-adv-x="450" d="M86 1536h279l-64 -512h-151z" />
<glyph unicode="(" horiz-adv-x="704" d="M133 624.5q0 350.5 79 627t177 419.5h223q-98 -143 -178 -419.5t-80 -627t80 -627t178 -419.5h-223q-98 143 -177 419.5t-79 627z" />
<glyph unicode=")" horiz-adv-x="704" d="M92 -422q98 143 178 419.5t80 627t-80 627t-178 419.5h223q98 -143 177 -419.5t79 -627t-78.5 -627t-177.5 -419.5h-223z" />
<glyph unicode="*" horiz-adv-x="860" d="M33 1159l71 223l248 -118l-39 272h238l-39 -272l252 120l63 -225l-264 -47l191 -201l-193 -131l-129 238l-129 -244l-186 141l182 197z" />
<glyph unicode="+" horiz-adv-x="1064" d="M123 598v201h309v309h201v-309h309v-201h-309v-309h-201v309h-309z" />
<glyph unicode="," horiz-adv-x="450" d="M82 117q0 59 42 101t101.5 42t101.5 -42t42 -101q0 -37 -17 -70l-129 -280h-104l47 219q-84 37 -84 131z" />
<glyph unicode="-" horiz-adv-x="757" d="M102 598v201h553v-201h-553z" />
<glyph unicode="." horiz-adv-x="450" d="M82 116.5q0 59.5 42 101.5t101.5 42t101.5 -42t42 -101.5t-42 -101.5t-101.5 -42t-101.5 42t-42 101.5z" />
<glyph unicode="/" horiz-adv-x="937" d="M0 -422l719 2093h219l-719 -2093h-219z" />
<glyph unicode="0" d="M123 768q0 119 3 197.5t14.5 170t32 149.5t56 115.5t87 90.5t126 52.5t173 19.5t173 -19.5t126 -52.5t87 -90.5t56 -115.5t32 -149.5t14.5 -170t3 -197.5t-3 -197.5t-14.5 -170t-32 -149.5t-56 -115.5t-87 -90.5t-126 -52.5t-173 -19.5t-173 19.5t-126 52.5t-87 90.5 t-56 115.5t-32 149.5t-14.5 170t-3 197.5zM340 768q0 -94 1 -146.5t6 -126t16.5 -113.5t31 -87t48 -70.5t71.5 -40t100.5 -16.5t100.5 16.5t71.5 40t48 70.5t31 87t16.5 113.5t6 126t1 146.5t-1 146.5t-6 126t-16.5 113.5t-31 87t-48 70.5t-71.5 40t-100.5 16.5 t-100.5 -16.5t-71.5 -40t-48 -70.5t-31 -87t-16.5 -113.5t-6 -126t-1 -146.5z" />
<glyph unicode="1" d="M184 1337v105l428 121h107v-1383h285v-180h-789v180h285v1170z" />
<glyph unicode="2" d="M102 0v143l693 781q78 90 77 213q0 109 -59 169t-221 60q-195 0 -397 -86v207q170 76 395 76q496 0 495 -426q0 -190 -190 -396l-506 -540h717v-201h-1004z" />
<glyph unicode="3" d="M125 41v197q190 -70 434 -70q106 0 178 23.5t104.5 66.5t45 86t12.5 100q0 127 -67.5 188.5t-219.5 61.5h-317v201h317q127 0 183.5 70.5t56.5 164.5q0 109 -63.5 173.5t-243.5 64.5q-98 0 -222 -19.5t-198 -45.5v202q61 25 187 41.5t223 16.5q160 0 268 -34t164.5 -97.5 t79 -135t22.5 -166.5q0 -90 -40 -183t-107 -138q96 -43 145 -144.5t49 -220.5q0 -100 -24.5 -178t-83 -147.5t-175 -107.5t-284.5 -38q-293 0 -424 68z" />
<glyph unicode="4" d="M111 414v127l684 1022h143v-955h201v-194h-201v-414h-205v414h-622zM371 608h362v541z" />
<glyph unicode="5" d="M117 41v203q53 -35 175 -55.5t240 -20.5q375 0 375 313q0 45 -7 82t-24.5 62.5t-33 43t-49 29t-53 17.5t-65.5 9t-67 3h-73h-373v809h930v-195h-725v-419q104 6 227 6q94 0 163.5 -8.5t142.5 -35t118 -73.5t73.5 -131t28.5 -199q0 -160 -50 -266t-142 -156.5t-183.5 -68 t-214.5 -17.5q-298 0 -413 68z" />
<glyph unicode="6" d="M129 688q0 160 12.5 282t49 237.5t97 190.5t160 120t234.5 45q223 0 373 -60v-203q-162 63 -373 64q-96 0 -164.5 -40t-106.5 -117t-56.5 -160.5t-26.5 -198.5q111 121 303 121q123 0 212 -33t137 -81t76.5 -120.5t36 -131t7.5 -132.5q0 -70 -9.5 -132.5t-40 -132 t-79.5 -118.5t-136 -82t-204 -33q-129 0 -221.5 35t-146.5 92.5t-85 153.5t-40 194.5t-9 239.5zM346 471q0 -303 285 -303q80 0 135 29.5t80.5 80t35 96.5t9.5 97q0 303 -260 303q-86 0 -145.5 -28.5t-88 -76.5t-40 -96.5t-11.5 -101.5z" />
<glyph unicode="7" d="M102 1341v195h1024v-139l-665 -1397h-236l680 1341h-803z" />
<glyph unicode="8" d="M94 434q0 113 49.5 219.5t141.5 157.5q-66 51 -105 140t-39 175q0 188 114 312.5t359.5 124.5t359 -124t113.5 -313q0 -86 -38.5 -175t-104.5 -140q92 -51 141.5 -157.5t49.5 -219.5q0 -203 -125 -332t-395.5 -129t-395.5 129t-125 332zM311 434q0 -109 71 -187.5 t232.5 -78.5t232.5 79t71 187q0 125 -78 194.5t-225.5 69.5t-225.5 -69.5t-78 -194.5zM358 1126q0 -92 63.5 -163.5t192.5 -71.5t192.5 71.5t63.5 163.5q0 100 -56 171t-199.5 71t-200 -71t-56.5 -171z" />
<glyph unicode="9" d="M129 1065q0 70 9 132.5t40 132t80 118.5t136 82t204 33q129 0 221 -35t146.5 -92.5t85 -153.5t40 -194.5t9.5 -239.5q0 -160 -12.5 -282t-49.5 -237.5t-97 -190.5t-159.5 -120t-234.5 -45q-223 0 -373 60v203q162 -63 373 -64q96 0 164.5 40t106.5 117t56.5 160.5 t26.5 198.5q-111 -121 -303 -121q-123 0 -212 33t-137 81t-77 120.5t-36 131t-7 132.5zM338 1065q0 -303 260 -303q86 0 145.5 28.5t88 76.5t40 96.5t11.5 101.5q0 303 -285 303q-80 0 -135 -29.5t-81 -80t-35 -96.5t-9 -97z" />
<glyph unicode=":" horiz-adv-x="450" d="M82 116.5q0 59.5 42 101.5t101.5 42t101.5 -42t42 -101.5t-42 -101.5t-101.5 -42t-101.5 42t-42 101.5zM82 768q0 59 42 101t101.5 42t101.5 -42t42 -101t-42 -101t-101.5 -42t-101.5 42t-42 101z" />
<glyph unicode=";" horiz-adv-x="450" d="M82 117q0 59 42 101t101.5 42t101.5 -42t42 -101q0 -37 -17 -70l-129 -280h-104l47 219q-84 37 -84 131zM82 768q0 59 42 101t101.5 42t101.5 -42t42 -101t-42 -101t-101.5 -42t-101.5 42t-42 101z" />
<glyph unicode="&#x3c;" horiz-adv-x="747" d="M92 614v168l553 369v-211l-317 -242l317 -241v-211z" />
<glyph unicode="=" horiz-adv-x="1064" d="M123 428v203h819v-203h-819zM123 766v203h819v-203h-819z" />
<glyph unicode="&#x3e;" horiz-adv-x="747" d="M102 246v211l318 241l-318 242v211l553 -369v-168z" />
<glyph unicode="?" horiz-adv-x="1024" d="M72 1303v200q57 23 158.5 41.5t172.5 18.5q156 0 261.5 -35t156.5 -99.5t70.5 -132t19.5 -157.5q0 -78 -18.5 -138.5t-46 -101.5t-80.5 -78t-100.5 -59.5t-127 -55t-99 -90t-19.5 -186.5h-150q-20 115 -20 166q0 205 231 293q123 49 160 84q59 57 59 164q0 115 -60 171 t-234 56q-158 0 -334 -61zM225 116.5q0 59.5 42 101.5t101.5 42t101.5 -42t42 -101.5t-42 -101.5t-101.5 -42t-101.5 42t-42 101.5z" />
<glyph unicode="@" horiz-adv-x="2072" d="M113 512q0 174 20.5 314.5t80.5 282.5t159.5 237.5t271.5 156t402 60.5q166 0 300 -23.5t228 -63.5t163.5 -102.5t111.5 -133.5t67 -163t34 -182t9 -203q0 -340 -119 -516t-416 -176h-127l-20 57q-152 -84 -281 -84q-246 0 -345 138.5t-99 400.5t99.5 400.5t344.5 138.5 q129 0 281 -84l20 57h138v-829q174 12 240.5 134t66.5 363q0 90 -5 158t-22.5 141.5t-48.5 125.5t-83 101.5t-125 79t-176 48t-236 18.5q-182 0 -316.5 -50t-209.5 -126t-120 -195t-58 -228.5t-13 -252.5t13 -252.5t58 -228.5t120 -195t209 -126t317 -50q305 0 522 107 l2 -226q-221 -80 -524 -80q-229 0 -401.5 60.5t-272 156t-159.5 237.5t-80.5 282.5t-20.5 314.5zM766 512q0 -78 8 -133t31.5 -106.5t72 -78t119.5 -26.5q129 0 232 49v590q-102 49 -232 49q-72 0 -120 -26.5t-71.5 -78t-31.5 -106.5t-8 -133z" />
<glyph unicode="A" horiz-adv-x="1402" d="M82 0l545 1563h149l545 -1563h-236l-131 408h-508l-129 -408h-235zM510 606h381l-189 602z" />
<glyph unicode="B" horiz-adv-x="1329" d="M174 0v1536h502q260 0 375.5 -115.5t115.5 -306.5q0 -193 -149 -305q98 -49 148.5 -146.5t50.5 -216.5q0 -203 -125 -324.5t-404 -121.5h-514zM391 205h305q289 0 289 241q0 129 -65.5 187.5t-219.5 58.5h-309v-487zM391 897h309q236 0 236 217q0 98 -52.5 157.5 t-199.5 59.5h-293v-434z" />
<glyph unicode="C" horiz-adv-x="1318" d="M143 768q0 172 32 309t100.5 250t190.5 174.5t292 61.5q244 0 418 -76v-219q-217 90 -418 90q-205 0 -298 -160t-93 -430t93 -430t298 -160q201 0 418 90v-219q-174 -76 -418 -76q-170 0 -292 61.5t-190.5 174.5t-100.5 250t-32 309z" />
<glyph unicode="D" horiz-adv-x="1406" d="M174 0v1536h436q184 0 315.5 -57.5t203 -165t103.5 -240.5t32 -305t-32 -305t-103.5 -240.5t-202.5 -165t-316 -57.5h-436zM389 205h229q225 0 321.5 148.5t96.5 414.5t-96 414.5t-322 148.5h-229v-1126z" />
<glyph unicode="E" horiz-adv-x="1241" d="M174 0v1536h924v-205h-709v-434h641v-205h-641v-487h709v-205h-924z" />
<glyph unicode="F" horiz-adv-x="1204" d="M174 0v1536h907v-205h-690v-434h621v-205h-621v-692h-217z" />
<glyph unicode="G" horiz-adv-x="1417" d="M143 768q0 172 32 309t100.5 250t190.5 174.5t292 61.5q260 0 448 -93v-217q-254 104 -448 105q-207 0 -300 -160t-93 -430t93 -430t300 -160q168 0 270 31v430h-301v205h516v-776q-207 -94 -485 -95q-170 0 -292 61.5t-190.5 174.5t-100.5 250t-32 309z" />
<glyph unicode="H" horiz-adv-x="1421" d="M174 0v1536h215v-639h643v639h215v-1536h-215v692h-643v-692h-215z" />
<glyph unicode="I" horiz-adv-x="653" d="M219 0v1536h215v-1536h-215z" />
<glyph unicode="J" horiz-adv-x="876" d="M92 -2v203q100 -25 176 -25q174 0 174 125v1235h215v-1231q0 -332 -389 -332q-76 0 -176 25z" />
<glyph unicode="K" horiz-adv-x="1327" d="M174 0v1536h211v-690l543 690h282l-600 -705l656 -831h-283l-512 668l-86 -101v-567h-211z" />
<glyph unicode="L" horiz-adv-x="1163" d="M174 0v1536h215v-1331h672v-205h-887z" />
<glyph unicode="M" horiz-adv-x="1769" d="M174 0v1536h260l451 -1053l450 1053h260v-1536h-211l11 1194l-428 -989h-164l-428 989l10 -1194h-211z" />
<glyph unicode="N" horiz-adv-x="1437" d="M174 0v1536h170l715 -1114l-4 1114h209v-1536h-170l-715 1114l4 -1114h-209z" />
<glyph unicode="O" horiz-adv-x="1454" d="M143 768q0 135 11.5 238.5t47.5 213t97 180t170 117t258.5 46.5t258 -46.5t170 -117t98 -180t47 -213t10.5 -238.5t-10.5 -238.5t-47 -213t-98 -180t-170 -117t-258 -46.5t-258.5 46.5t-170 117t-97 180t-47.5 213t-11.5 238.5zM365 768q0 -135 12 -229.5t49 -182.5 t111.5 -133t189.5 -45t189.5 45t111.5 133t49.5 182.5t12.5 229.5t-12.5 229.5t-49.5 182.5t-111.5 133t-189.5 45t-189.5 -45t-111.5 -133t-49 -182.5t-12 -229.5z" />
<glyph unicode="P" horiz-adv-x="1282" d="M174 0v1536h488q274 0 401 -134t127 -341q0 -209 -127 -343t-401 -134h-271v-584h-217zM391 788h277q289 0 288 273q0 270 -288 270h-277v-543z" />
<glyph unicode="Q" horiz-adv-x="1454" d="M143 768q0 135 11.5 238.5t47.5 213t97 180t170 117t258.5 46.5t258 -46.5t170 -117t98 -180t47 -213t10.5 -238.5q0 -262 -53.5 -442.5t-204.5 -270.5v-2l458 -82v-225l-968 252q-102 27 -176 83t-116 125.5t-67.5 168t-33 187.5t-7.5 206zM365 768q0 -135 12 -229.5 t49 -182.5t111.5 -133t189.5 -45t189.5 45t111.5 133t49.5 182.5t12.5 229.5t-12.5 229.5t-49.5 182.5t-111.5 133t-189.5 45t-189.5 -45t-111.5 -133t-49 -182.5t-12 -229.5z" />
<glyph unicode="R" horiz-adv-x="1374" d="M174 0v1536h496q283 0 400.5 -113.5t117.5 -332.5q0 -324 -254 -414q27 -49 161 -301t197 -375h-266l-313 639h-324v-639h-215zM389 844h309q156 0 207 62.5t51 183.5q0 117 -52 179t-206 62h-309v-487z" />
<glyph unicode="S" horiz-adv-x="1292" d="M131 66v210q12 -4 44 -17t44 -17t41 -14.5t44 -14.5t43 -11t50.5 -10.5t52 -7.5t62.5 -5t70 -1q354 0 354 281q0 119 -64.5 165t-238.5 68h2q-279 35 -391.5 129t-112.5 291q0 78 22.5 149.5t76 143.5t164 115t268.5 43q240 0 419 -84v-217q-207 96 -419 96 q-178 0 -245 -66.5t-67 -181.5q0 -49 15.5 -83t37 -54.5t68.5 -35.5t86 -22.5t115 -17.5q248 -29 368.5 -126t120.5 -312q0 -90 -26.5 -169t-88 -154t-181.5 -119t-285 -44q-104 0 -234.5 27t-214.5 66z" />
<glyph unicode="T" horiz-adv-x="1198" d="M86 1331v205h1026v-205h-405v-1331h-215v1331h-406z" />
<glyph unicode="U" horiz-adv-x="1437" d="M164 489v1047h215v-1020q0 -336 340 -336t340 336v1020h215v-1047q0 -127 -41 -224t-99.5 -150.5t-138.5 -87t-145.5 -44t-131 -10.5t-131 10.5t-145.5 44t-138 87t-99 150.5t-41 224z" />
<glyph unicode="V" horiz-adv-x="1402" d="M82 1536h235l385 -1202l383 1202h236l-545 -1563h-149z" />
<glyph unicode="W" horiz-adv-x="1859" d="M82 1536h231l215 -1165l297 1165h207l299 -1167l215 1167h232l-340 -1563h-199l-309 1215l-312 -1215h-196z" />
<glyph unicode="X" horiz-adv-x="1417" d="M72 0l508 778l-498 758h262l365 -600l364 600h262l-497 -758l508 -778h-269l-368 614l-369 -614h-268z" />
<glyph unicode="Y" horiz-adv-x="1486" d="M82 1536h258l403 -717l404 717h258l-555 -903v-633h-213v633z" />
<glyph unicode="Z" horiz-adv-x="1314" d="M102 0v139l791 1192h-752v205h1043v-139l-793 -1192h821v-205h-1110z" />
<glyph unicode="[" horiz-adv-x="581" d="M154 -422v2093h346v-205h-131v-1683h131v-205h-346z" />
<glyph unicode="\" horiz-adv-x="937" d="M0 1671h219l719 -2093h-219z" />
<glyph unicode="]" horiz-adv-x="581" d="M82 -217h131v1683h-131v205h346v-2093h-346v205z" />
<glyph unicode="^" horiz-adv-x="1105" d="M96 1024l369 512h217l369 -512h-136l-342 362l-342 -362h-135z" />
<glyph unicode="_" horiz-adv-x="655" d="M0 -377h655v-135h-655v135z" />
<glyph unicode="`" horiz-adv-x="1105" d="M219 1536h248l164 -358h-115z" />
<glyph unicode="a" horiz-adv-x="1075" d="M113 324q0 137 84 225t295 104l231 19v20q0 86 -41 125t-147 39q-193 0 -351 -61v194q57 27 165 44.5t186 17.5q223 0 310 -91.5t87 -265.5v-694h-141l-19 53q-131 -80 -287 -80q-197 0 -284.5 99.5t-87.5 251.5zM324 324q0 -31 5 -54.5t21.5 -49t51 -39t87.5 -13.5 q127 0 234 63v269l-234 -21q-165 -16 -165 -155z" />
<glyph unicode="b" horiz-adv-x="1148" d="M143 0v1536h207v-541q123 55 232 56q246 0 345 -138.5t99 -400.5t-99.5 -400.5t-344.5 -138.5q-129 0 -281 84l-20 -57h-138zM350 217q102 -49 232 -49q72 0 120 26.5t71.5 78t31.5 106.5t8 133q0 164 -47 254t-184 90q-74 0 -156 -20q-49 -12 -76 -27v-592z" />
<glyph unicode="c" horiz-adv-x="1009" d="M123 512q0 260 105.5 399.5t351.5 139.5q195 0 321 -60v-194q-172 59 -321 59q-139 0 -191.5 -92t-52.5 -252t52 -252t192 -92q150 0 321 59v-194q-127 -59 -321 -60q-246 0 -351.5 139.5t-105.5 399.5z" />
<glyph unicode="d" horiz-adv-x="1148" d="M123 512q0 262 99.5 400.5t344.5 138.5q109 0 232 -56v541h207v-1536h-138l-20 57q-152 -84 -281 -84q-246 0 -345 138.5t-99 400.5zM336 512q0 -78 8 -133t31.5 -106.5t72 -78t119.5 -26.5q129 0 232 49v592q-27 14 -76 27q-82 20 -156 20q-137 0 -184 -90t-47 -254z " />
<glyph unicode="e" horiz-adv-x="1110" d="M123 512q0 260 105.5 399.5t351.5 139.5q104 0 180 -30t119 -76t67.5 -120.5t32.5 -145.5t8 -167v-98h-647q29 -246 240 -246q182 0 352 74v-199q-154 -70 -352 -70q-246 0 -351.5 139.5t-105.5 399.5zM338 596h432q-2 123 -39 191.5t-151 68.5q-123 0 -176.5 -67.5 t-65.5 -192.5z" />
<glyph unicode="f" horiz-adv-x="837" d="M55 844v127l191 53v215q0 324 381 324q106 0 170 -21v-196q-86 23 -170 22q-174 0 -174 -133v-211h303v-180h-303v-844h-207v844h-191z" />
<glyph unicode="g" horiz-adv-x="1122" d="M57 -205q0 158 172 248v2q-37 47 -36 121q0 84 71 147q-152 96 -151 338q0 399 409 400q100 0 185 -27h329v-139l-139 -39q35 -82 35 -195q0 -399 -410 -399q-49 0 -71 2q-51 -35 -52 -61q0 -31 37 -37l326 -39q147 -18 221 -86t74 -207q0 -182 -151.5 -272.5 t-383.5 -90.5q-465 0 -465 334zM266 -205q0 -80 60.5 -109.5t195.5 -29.5q324 0 324 168q0 53 -26.5 77.5t-92.5 32.5l-266 31q-195 -61 -195 -170zM313 651.5q0 -98.5 41 -152t168 -53.5q129 0 170 54.5t41 151t-41 150.5t-170 54q-127 0 -168 -53t-41 -151.5z" />
<glyph unicode="h" horiz-adv-x="1097" d="M143 0v1536h207v-541q111 55 238 56q186 0 281.5 -86t95.5 -244v-721h-211v725q0 131 -166 131q-135 0 -238 -49v-807h-207z" />
<glyph unicode="i" horiz-adv-x="563" d="M127 1366q0 59 42 101t101.5 42t101.5 -42t42 -101t-42 -101t-101.5 -42t-101.5 42t-42 101zM166 221v803h207v-809q0 -27 17.5 -37t62.5 -10v-195h-39q-125 0 -186.5 57.5t-61.5 190.5z" />
<glyph unicode="j" horiz-adv-x="540" d="M-78 -344q102 12 173 56t71 126v1186h207v-1204q0 -154 -138.5 -248t-312.5 -104v188zM127 1366q0 59 42 101t101.5 42t101.5 -42t42 -101t-42 -101t-101.5 -42t-101.5 42t-42 101z" />
<glyph unicode="k" horiz-adv-x="1081" d="M143 0v1536h207v-897l359 385h303l-449 -430l490 -594h-287l-342 461l-74 -72v-389h-207z" />
<glyph unicode="l" horiz-adv-x="563" d="M166 221v1315h207v-1321q0 -27 17.5 -37t62.5 -10v-195h-39q-125 0 -186.5 57.5t-61.5 190.5z" />
<glyph unicode="m" horiz-adv-x="1675" d="M143 0v1024h142l20 -57q133 84 277 84q199 0 290 -103l27 19q133 84 277 84q367 0 366 -330v-721h-211v707q0 150 -155 149q-125 0 -228 -49l-6 -4q6 -37 6 -82v-721h-211v707q0 150 -155 149q-125 0 -228 -49v-807h-211z" />
<glyph unicode="n" horiz-adv-x="1101" d="M143 0v1024h142l20 -57q127 84 287 84q186 0 281.5 -86t95.5 -244v-721h-211v725q0 131 -166 131q-135 0 -238 -49v-807h-211z" />
<glyph unicode="o" horiz-adv-x="1134" d="M123 512q0 266 93 402.5t351 136.5q135 0 225.5 -38t137.5 -114t64.5 -166t17.5 -221t-17.5 -221t-64.5 -166t-137.5 -114t-225.5 -38q-258 0 -351 136.5t-93 402.5zM332 512q0 -68 3 -112t16.5 -92t38 -75.5t69.5 -46t108 -18.5q78 0 127 24.5t71.5 77t30 105.5t7.5 137 t-7.5 137t-30 105.5t-71.5 77t-127 24.5q-63 0 -108 -18.5t-69.5 -46t-38 -75.5t-16.5 -92t-3 -112z" />
<glyph unicode="p" horiz-adv-x="1148" d="M143 -512v1536h138l20 -57q152 84 281 84q246 0 345 -138.5t99 -400.5t-99.5 -400.5t-344.5 -138.5q-109 0 -232 56v-541h-207zM350 215q27 -14 76 -27q82 -20 156 -20q137 0 184 90t47 254q0 78 -8 133t-31.5 106.5t-72 78t-119.5 26.5q-129 0 -232 -49v-592z" />
<glyph unicode="q" horiz-adv-x="1148" d="M123 512q0 262 99.5 400.5t344.5 138.5q129 0 281 -84l20 57h138v-1536h-207v541q-123 -55 -232 -56q-246 0 -345 138.5t-99 400.5zM336 512q0 -164 47 -254t184 -90q74 0 156 20q49 12 76 27v592q-102 49 -232 49q-72 0 -120 -26.5t-71.5 -78t-31.5 -106.5t-8 -133z" />
<glyph unicode="r" horiz-adv-x="825" d="M143 0v1024h142l20 -57q133 84 287 84q80 0 151 -17v-209q-86 31 -151 31q-127 0 -238 -49v-807h-211z" />
<glyph unicode="s" horiz-adv-x="995" d="M121 725q0 133 94 229.5t299 96.5q178 0 313 -60v-194q-182 59 -315 59q-109 0 -149.5 -34t-40.5 -97q0 -47 37.5 -70.5t148.5 -33.5q213 -20 289.5 -93t76.5 -219q0 -141 -100 -238.5t-319 -97.5q-74 0 -170.5 17.5t-153.5 40.5v198q176 -61 326 -61q213 0 213 139 q0 57 -37 87t-148 40q-211 18 -287.5 91t-76.5 200z" />
<glyph unicode="t" horiz-adv-x="837" d="M55 844v127l191 53v258l207 57v-315h303v-180h-303v-565q0 -111 147 -111q68 0 113 8v-190q-51 -12 -129 -13q-139 0 -238.5 73t-99.5 214v584h-191z" />
<glyph unicode="u" horiz-adv-x="1101" d="M133 303v721h211v-725q0 -131 166 -131q135 0 238 49v807h210v-1024h-141l-20 57q-127 -84 -287 -84q-186 0 -281.5 86t-95.5 244z" />
<glyph unicode="v" horiz-adv-x="1050" d="M51 1024h230l245 -739l242 739h231l-401 -1051h-145z" />
<glyph unicode="w" horiz-adv-x="1456" d="M51 1024h221l156 -694l201 694h198l205 -692l154 692h219l-289 -1051h-162l-225 783l-227 -783h-162z" />
<glyph unicode="x" horiz-adv-x="1064" d="M31 0l379 526l-359 498h250l231 -356l230 356h252l-359 -498l379 -526h-254l-248 377l-249 -377h-252z" />
<glyph unicode="y" horiz-adv-x="1054" d="M51 1024h238l239 -739l240 739h236l-590 -1536h-230l246 561z" />
<glyph unicode="z" horiz-adv-x="962" d="M72 0v137l522 692h-494v195h772v-137l-522 -692h541v-195h-819z" />
<glyph unicode="{" horiz-adv-x="536" d="M57 520v209h58q25 0 36 11.5t9 31.5l-35 643q-8 131 62.5 193.5t197.5 62.5h70v-211h-70q-23 0 -34 -11t-9 -30l37 -637q2 -88 -57 -157q59 -74 57 -158l-37 -637q-2 -18 9 -29.5t34 -11.5h70v-211h-70q-127 0 -197.5 62.5t-62.5 193.5l35 643q4 39 -37 43h-66z" />
<glyph unicode="|" horiz-adv-x="612" d="M199 -422v2093h215v-2093h-215z" />
<glyph unicode="}" horiz-adv-x="536" d="M82 -211h70q23 0 34 11.5t9 29.5l-37 637q-6 80 55 158q-61 76 -55 157l37 637q2 18 -9.5 29.5t-33.5 11.5h-70v211h70q127 0 197.5 -62.5t62.5 -193.5l-35 -643q-2 -20 9 -31.5t36 -11.5h57v-209h-57q-25 0 -36 -11t-9 -32l35 -643q8 -131 -62.5 -193.5t-197.5 -62.5 h-70v211z" />
<glyph unicode="~" horiz-adv-x="757" d="M72 668v159q76 -55 153 -55q43 0 85 33t93.5 65.5t116.5 32.5q92 0 166 -74v-159q-76 55 -154 55q-43 0 -84.5 -33t-93 -65.5t-116.5 -32.5q-92 0 -166 74z" />
<glyph unicode="&#xa1;" horiz-adv-x="450" d="M82 907.5q0 59.5 42 101.5t101.5 42t101.5 -42t42 -101.5t-42 -101.5t-101.5 -42t-101.5 42t-42 101.5zM86 -512l74 1106h131l74 -1106h-279z" />
<glyph unicode="&#xa2;" d="M123 768q0 565 575 565h9l69 203h228l-84 -221q117 -16 198 -49v-201q-176 68 -432 68q-350 0 -350 -365t350 -365q256 0 432 68v-201q-162 -68 -420 -67h-49l-69 -203h-228l88 240q-317 104 -317 528z" />
<glyph unicode="&#xa3;" d="M102 0v193h134v512h-134v192h134v266q0 399 462 400q82 0 205 -19.5t195 -50.5v-193q-199 68 -400 68q-252 0 -252 -203v-268h519v-192h-519v-512h691v-193h-1035z" />
<glyph unicode="&#xa4;" horiz-adv-x="1118" d="M72 512v203h112v106h-112v203h125q29 274 152.5 406.5t387.5 132.5q190 0 322 -56v-198q-164 53 -322 53q-147 0 -222 -83t-99 -255h532l-67 -203h-480v-106h445l-68 -203h-362q25 -174 99.5 -256t221.5 -82q158 0 322 53v-198q-131 -55 -322 -56q-264 0 -388 132.5 t-152 406.5h-125z" />
<glyph unicode="&#xa5;" d="M14 1536h254l346 -707l347 707h253l-266 -512h168v-203h-274l-56 -106h330v-203h-395v-512h-213v512h-395v203h327l-55 106h-272v203h168z" />
<glyph unicode="&#xa6;" horiz-adv-x="612" d="M199 -422v946h215v-946h-215zM199 725v946h215v-946h-215z" />
<glyph unicode="&#xa7;" horiz-adv-x="1329" d="M88 557q0 217 166 346q-47 80 -47 215q0 80 23.5 150.5t79 140.5t169 112t273.5 42q229 0 426 -84v-222q-225 100 -428 101q-182 0 -252 -63.5t-70 -178.5q0 -49 17.5 -84t38 -55.5t74.5 -37.5t87 -24.5t117 -23.5h-2q285 -47 383 -133t98 -291q0 -219 -168 -346 q49 -84 49 -215q0 -80 -23.5 -150.5t-78.5 -140.5t-169 -112t-273 -42q-229 0 -426 84v222q225 -100 428 -101q182 0 251.5 63.5t69.5 178.5q0 49 -17.5 84t-38 55.5t-74.5 37.5t-87 24.5t-117 23.5h2q-285 47 -383 133t-98 291zM309 555q0 -35 7.5 -62.5t14.5 -46t32.5 -35 t38 -24.5t58.5 -18.5t63.5 -14.5t82.5 -16h-2q174 -31 285 -74q131 70 131 205q0 35 -7 62.5t-14.5 46t-33 35t-38 24.5t-58.5 18.5t-63.5 14.5t-82.5 16h2q-186 33 -285 74q-131 -68 -131 -205z" />
<glyph unicode="&#xa8;" horiz-adv-x="1105" d="M205 1366q0 59 42 101t101.5 42t101.5 -42t42 -101t-42 -101t-101.5 -42t-101.5 42t-42 101zM655 1366q0 59 42 101t101.5 42t101.5 -42t42 -101t-42 -101t-101.5 -42t-101.5 42t-42 101z" />
<glyph unicode="&#xa9;" horiz-adv-x="1392" d="M147 512q0 160 43 270.5t123 167t171 79t212 22.5t212 -22.5t171 -79t123 -167t43 -270.5t-43 -270.5t-123 -167t-171 -79t-212 -22.5t-212 22.5t-171 79t-123 167t-43 270.5zM330 512q0 -217 92 -292t274.5 -75t274.5 75t92 292t-92 292t-274.5 75t-274.5 -75t-92 -292z M418 512q0 160 68.5 228.5t209.5 68.5q86 0 189 -23v-168q-119 31 -189 31q-59 0 -84.5 -28.5t-25.5 -108.5t25.5 -108.5t84.5 -28.5q70 0 189 31v-168q-102 -23 -189 -23q-141 0 -209.5 68.5t-68.5 228.5z" />
<glyph unicode="&#xaa;" horiz-adv-x="819" d="M80 1022q0 238 297 258l133 8q-2 47 -25.5 68.5t-81.5 21.5q-100 0 -256 -55v186q127 53 256 54q174 0 240 -72t66 -209v-514h-142l-10 27q-98 -43 -182 -43q-156 0 -225.5 68.5t-69.5 201.5zM281 1022q0 -86 98 -86q57 0 131 33v147l-129 -10q-100 -8 -100 -84z" />
<glyph unicode="&#xab;" horiz-adv-x="1013" d="M113 418v188l389 287v-178l-219 -203l219 -203v-180zM502 418v188l389 287v-178l-219 -203l219 -203v-180z" />
<glyph unicode="&#xac;" horiz-adv-x="1351" d="M164 0v1024h1024v-1024h-1024z" />
<glyph unicode="&#xad;" horiz-adv-x="757" d="M102 598v201h553v-201h-553z" />
<glyph unicode="&#xae;" horiz-adv-x="704" d="M66 1280q0 162 77.5 222.5t208.5 60.5t209 -60.5t78 -222.5q0 -160 -78 -221.5t-209 -61.5t-208.5 61.5t-77.5 221.5zM158 1280q0 -117 49 -157t145.5 -40t145.5 40t49 157t-49 157t-145.5 40t-145.5 -40t-49 -157zM229 1126v308h138q109 0 108 -101q0 -61 -39 -88 l58 -119h-93l-43 103h-47v-103h-82zM311 1309h51q25 0 25 24q0 20 -25 21h-51v-45z" />
<glyph unicode="&#xaf;" horiz-adv-x="1105" d="M272 1313v186h562v-186h-562z" />
<glyph unicode="&#xb0;" horiz-adv-x="749" d="M86 1280q0 152 83 217.5t206 65.5t206 -65.5t83 -217.5t-83 -217.5t-206 -65.5t-206 65.5t-83 217.5zM246 1280q0 -131 129 -131t129 131t-129 131t-129 -131z" />
<glyph unicode="&#xb1;" horiz-adv-x="1064" d="M123 88v201h819v-201h-819zM123 700v201h309v309h201v-309h309v-201h-309v-309h-201v309h-309z" />
<glyph unicode="&#xb2;" d="M102 0v143l693 781q78 90 77 213q0 109 -59 169t-221 60q-195 0 -397 -86v207q170 76 395 76q496 0 495 -426q0 -190 -190 -396l-506 -540h717v-201h-1004z" />
<glyph unicode="&#xb3;" d="M125 41v197q190 -70 434 -70q106 0 178 23.5t104.5 66.5t45 86t12.5 100q0 127 -67.5 188.5t-219.5 61.5h-317v201h317q127 0 183.5 70.5t56.5 164.5q0 109 -63.5 173.5t-243.5 64.5q-98 0 -222 -19.5t-198 -45.5v202q61 25 187 41.5t223 16.5q160 0 268 -34t164.5 -97.5 t79 -135t22.5 -166.5q0 -90 -40 -183t-107 -138q96 -43 145 -144.5t49 -220.5q0 -100 -24.5 -178t-83 -147.5t-175 -107.5t-284.5 -38q-293 0 -424 68z" />
<glyph unicode="&#xb4;" horiz-adv-x="1105" d="M516 1178l164 358h248l-297 -358h-115z" />
<glyph unicode="&#xb5;" horiz-adv-x="1101" d="M133 -512v1536h211v-733q2 -123 166 -123q135 0 238 49v807h210v-1024h-141l-20 57q-127 -84 -287 -84q-92 0 -166 23v-508h-211z" />
<glyph unicode="&#xb6;" horiz-adv-x="1241" d="M72 1061q0 207 127 341t401 134h487v-1536h-217v584h-161v-584h-215v590q-219 27 -320.5 156t-101.5 315zM305 1061q0 -221 189 -262v522q-189 -41 -189 -260zM709 788h161v543h-161v-543z" />
<glyph unicode="&#xb7;" horiz-adv-x="450" d="M82 768q0 59 42 101t101.5 42t101.5 -42t42 -101t-42 -101t-101.5 -42t-101.5 42t-42 101z" />
<glyph unicode="&#xb8;" horiz-adv-x="1232" d="M446 -379q47 41 65.5 87t-15.5 75q-123 66 2 217h145q-78 -98 2 -145q61 -35 71.5 -84.5t-10 -84t-51.5 -65.5h-209z" />
<glyph unicode="&#xb9;" d="M184 1337v105l428 121h107v-1383h285v-180h-789v180h285v1170z" />
<glyph unicode="&#xba;" horiz-adv-x="960" d="M115 1157q0 203 86 304.5t272 101.5q373 0 373 -405.5t-373 -405.5q-186 0 -272 101t-86 304zM309 1157q0 -117 39 -167t125 -50q92 0 136 51t44 166t-44 166t-136 51q-86 0 -125 -50t-39 -167z" />
<glyph unicode="&#xbb;" horiz-adv-x="1013" d="M123 129v180l219 203l-219 203v178l389 -287v-188zM512 129v180l219 203l-219 203v178l389 -287v-188z" />
<glyph unicode="&#xbc;" horiz-adv-x="3586" d="M2468 414v127l684 1022h143v-955h201v-194h-201v-414h-205v414h-622zM2728 608h362v541zM1127 0l1089 1536h244l-1090 -1536h-243zM184 1337v105l428 121h107v-1383h285v-180h-789v180h285v1170z" />
<glyph unicode="&#xbd;" horiz-adv-x="3586" d="M2459 0v143l693 781q78 90 77 213q0 109 -59 169t-221 60q-195 0 -397 -86v207q170 76 395 76q496 0 495 -426q0 -190 -190 -396l-506 -540h717v-201h-1004zM1127 0l1089 1536h244l-1090 -1536h-243zM184 1337v105l428 121h107v-1383h285v-180h-789v180h285v1170z" />
<glyph unicode="&#xbe;" horiz-adv-x="3586" d="M2468 414v127l684 1022h143v-955h201v-194h-201v-414h-205v414h-622zM2728 608h362v541zM1127 0l1089 1536h244l-1090 -1536h-243zM125 41v197q190 -70 434 -70q106 0 178 23.5t104.5 66.5t45 86t12.5 100q0 127 -67.5 188.5t-219.5 61.5h-317v201h317q127 0 183.5 70.5 t56.5 164.5q0 109 -63.5 173.5t-243.5 64.5q-98 0 -222 -19.5t-198 -45.5v202q61 25 187 41.5t223 16.5q160 0 268 -34t164.5 -97.5t79 -135t22.5 -166.5q0 -90 -40 -183t-107 -138q96 -43 145 -144.5t49 -220.5q0 -100 -24.5 -178t-83 -147.5t-175 -107.5t-284.5 -38 q-293 0 -424 68z" />
<glyph unicode="&#xbf;" horiz-adv-x="1024" d="M72 -115q0 78 18.5 138.5t46 101.5t80.5 78t100.5 59.5t127 55t99 90t19.5 186.5h150q20 -115 20 -166q0 -205 -231 -293q-123 -49 -160 -84q-59 -57 -59 -164q0 -115 60 -171t235 -56q158 0 333 61v-200q-57 -23 -158.5 -41.5t-172.5 -18.5q-156 0 -261.5 35 t-156.5 99.5t-70.5 132t-19.5 157.5zM471 907.5q0 59.5 42 101.5t101.5 42t101.5 -42t42 -101.5t-42 -101.5t-101.5 -42t-101.5 42t-42 101.5z" />
<glyph unicode="&#xc0;" horiz-adv-x="1402" d="M82 0l545 1563h149l545 -1563h-236l-131 408h-508l-129 -408h-235zM348 2048h248l164 -358h-115zM510 606h381l-189 602z" />
<glyph unicode="&#xc1;" horiz-adv-x="1402" d="M82 0l545 1563h149l545 -1563h-236l-131 408h-508l-129 -408h-235zM510 606h381l-189 602zM645 1690l164 358h248l-297 -358h-115z" />
<glyph unicode="&#xc2;" horiz-adv-x="1402" d="M82 0l545 1563h149l545 -1563h-236l-131 408h-508l-129 -408h-235zM338 1690l256 358h217l256 -358h-115l-250 215l-249 -215h-115zM510 606h381l-189 602z" />
<glyph unicode="&#xc3;" horiz-adv-x="1402" d="M82 0l545 1563h149l545 -1563h-236l-131 408h-508l-129 -408h-235zM303 1743q2 145 65.5 215t190.5 67q57 -2 102.5 -22.5t68 -44t53 -43t63.5 -19.5q39 0 59.5 18.5t25.5 40t7 54.5l164 -14q-2 -145 -65.5 -214t-190.5 -67q-72 0 -123 32t-88 63.5t-76 31.5t-59.5 -18.5 t-25.5 -39t-7 -54.5zM510 606h381l-189 602z" />
<glyph unicode="&#xc4;" horiz-adv-x="1402" d="M82 0l545 1563h149l545 -1563h-236l-131 408h-508l-129 -408h-235zM334 1878q0 59 42 101t101.5 42t101.5 -42t42 -101t-42 -101t-101.5 -42t-101.5 42t-42 101zM510 606h381l-189 602zM784 1878q0 59 42 101t101.5 42t101.5 -42t42 -101t-42 -101t-101.5 -42t-101.5 42 t-42 101z" />
<glyph unicode="&#xc5;" horiz-adv-x="1402" d="M82 0l545 1563h149l545 -1563h-236l-131 408h-508l-129 -408h-235zM494 1868q0 104 55 155.5t153 51.5q96 0 151.5 -51.5t55.5 -155.5q0 -102 -55 -153.5t-152 -51.5q-98 0 -153 51.5t-55 153.5zM510 606h381l-189 602zM612 1868q0 -88 90.5 -88t90.5 88q0 92 -91 92 q-47 0 -68.5 -20.5t-21.5 -71.5z" />
<glyph unicode="&#xc6;" horiz-adv-x="2088" d="M-2 0l1010 1536h940v-205h-711v-434h641v-205h-641v-487h711v-205h-926v692h-324l-444 -692h-256zM829 897h193v301z" />
<glyph unicode="&#xc7;" horiz-adv-x="1318" d="M143 768q0 172 32 309t100.5 250t190.5 174.5t292 61.5q244 0 418 -76v-219q-217 90 -418 90q-205 0 -298 -160t-93 -430t93 -430t298 -160q201 0 418 90v-219q-160 -68 -369 -74q-51 -80 22 -120q61 -35 71.5 -84.5t-10 -84t-50.5 -65.5h-209q47 41 65.5 87t-16.5 75 q-115 61 -14 197q-523 57 -523 788z" />
<glyph unicode="&#xc8;" horiz-adv-x="1241" d="M174 0v1536h924v-205h-709v-434h641v-205h-641v-487h709v-205h-924zM283 2048h247l164 -358h-114z" />
<glyph unicode="&#xc9;" horiz-adv-x="1241" d="M174 0v1536h924v-205h-709v-434h641v-205h-641v-487h709v-205h-924zM580 1690l163 358h248l-297 -358h-114z" />
<glyph unicode="&#xca;" horiz-adv-x="1241" d="M174 0v1536h924v-205h-709v-434h641v-205h-641v-487h709v-205h-924zM272 1690l256 358h217l256 -358h-114l-250 215l-250 -215h-115z" />
<glyph unicode="&#xcb;" horiz-adv-x="1241" d="M174 0v1536h924v-205h-709v-434h641v-205h-641v-487h709v-205h-924zM268 1878q0 59 42 101t101.5 42t101.5 -42t42 -101t-42 -101t-101.5 -42t-101.5 42t-42 101zM719 1878q0 59 42 101t101.5 42t101.5 -42t42 -101t-42 -101t-101.5 -42t-101.5 42t-42 101z" />
<glyph unicode="&#xcc;" horiz-adv-x="653" d="M-27 2048h248l164 -358h-115zM219 0v1536h215v-1536h-215z" />
<glyph unicode="&#xcd;" horiz-adv-x="653" d="M219 0v1536h215v-1536h-215zM270 1690l164 358h248l-297 -358h-115z" />
<glyph unicode="&#xce;" horiz-adv-x="653" d="M-37 1690l256 358h217l256 -358h-114l-250 215l-250 -215h-115zM219 0v1536h215v-1536h-215z" />
<glyph unicode="&#xcf;" horiz-adv-x="653" d="M-41 1878q0 59 42 101t101.5 42t101.5 -42t42 -101t-42 -101t-101.5 -42t-101.5 42t-42 101zM219 0v1536h215v-1536h-215zM410 1878q0 59 42 101t101 42t101 -42t42 -101t-42 -101t-101 -42t-101 42t-42 101z" />
<glyph unicode="&#xd0;" horiz-adv-x="1468" d="M51 688v168h185v680h436q184 0 315 -57.5t203 -165t103.5 -240.5t31.5 -305t-31.5 -305t-103.5 -240.5t-203 -165t-315 -57.5h-436v688h-185zM451 205h229q225 0 321.5 148.5t96.5 414.5t-96.5 414.5t-321.5 148.5h-229v-475h276v-168h-276v-483z" />
<glyph unicode="&#xd1;" horiz-adv-x="1437" d="M174 0v1536h170l715 -1114l-4 1114h209v-1536h-170l-715 1114l4 -1114h-209zM319 1743q2 145 66 215t190 67q57 -2 102.5 -22.5t68 -44t53 -43t63.5 -19.5q39 0 59.5 18.5t25.5 40t7 54.5l164 -14q-2 -145 -65.5 -214t-190.5 -67q-72 0 -123 32t-88 63.5t-75.5 31.5 t-59 -18.5t-26 -39t-7.5 -54.5z" />
<glyph unicode="&#xd2;" horiz-adv-x="1454" d="M143 768q0 135 11.5 238.5t47.5 213t97 180t170 117t258.5 46.5t258 -46.5t170 -117t98 -180t47 -213t10.5 -238.5t-10.5 -238.5t-47 -213t-98 -180t-170 -117t-258 -46.5t-258.5 46.5t-170 117t-97 180t-47.5 213t-11.5 238.5zM365 768q0 -135 12 -229.5t49 -182.5 t111.5 -133t189.5 -45t189.5 45t111.5 133t49.5 182.5t12.5 229.5t-12.5 229.5t-49.5 182.5t-111.5 133t-189.5 45t-189.5 -45t-111.5 -133t-49 -182.5t-12 -229.5zM373 2048h248l163 -358h-114z" />
<glyph unicode="&#xd3;" horiz-adv-x="1454" d="M143 768q0 135 11.5 238.5t47.5 213t97 180t170 117t258.5 46.5t258 -46.5t170 -117t98 -180t47 -213t10.5 -238.5t-10.5 -238.5t-47 -213t-98 -180t-170 -117t-258 -46.5t-258.5 46.5t-170 117t-97 180t-47.5 213t-11.5 238.5zM365 768q0 -135 12 -229.5t49 -182.5 t111.5 -133t189.5 -45t189.5 45t111.5 133t49.5 182.5t12.5 229.5t-12.5 229.5t-49.5 182.5t-111.5 133t-189.5 45t-189.5 -45t-111.5 -133t-49 -182.5t-12 -229.5zM670 1690l164 358h247l-297 -358h-114z" />
<glyph unicode="&#xd4;" horiz-adv-x="1454" d="M143 768q0 135 11.5 238.5t47.5 213t97 180t170 117t258.5 46.5t258 -46.5t170 -117t98 -180t47 -213t10.5 -238.5t-10.5 -238.5t-47 -213t-98 -180t-170 -117t-258 -46.5t-258.5 46.5t-170 117t-97 180t-47.5 213t-11.5 238.5zM362 1690l256 358h218l256 -358h-115 l-250 215l-250 -215h-115zM365 768q0 -135 12 -229.5t49 -182.5t111.5 -133t189.5 -45t189.5 45t111.5 133t49.5 182.5t12.5 229.5t-12.5 229.5t-49.5 182.5t-111.5 133t-189.5 45t-189.5 -45t-111.5 -133t-49 -182.5t-12 -229.5z" />
<glyph unicode="&#xd5;" horiz-adv-x="1454" d="M143 768q0 135 11.5 238.5t47.5 213t97 180t170 117t258.5 46.5t258 -46.5t170 -117t98 -180t47 -213t10.5 -238.5t-10.5 -238.5t-47 -213t-98 -180t-170 -117t-258 -46.5t-258.5 46.5t-170 117t-97 180t-47.5 213t-11.5 238.5zM328 1743q2 145 65.5 215t190.5 67 q57 -2 102 -22.5t67.5 -44t53.5 -43t63 -19.5q39 0 59.5 18.5t26 40t7.5 54.5l163 -14q-2 -145 -65.5 -214t-190.5 -67q-72 0 -123 32t-87.5 63.5t-75.5 31.5t-59.5 -18.5t-25.5 -39t-7 -54.5zM365 768q0 -135 12 -229.5t49 -182.5t111.5 -133t189.5 -45t189.5 45t111.5 133 t49.5 182.5t12.5 229.5t-12.5 229.5t-49.5 182.5t-111.5 133t-189.5 45t-189.5 -45t-111.5 -133t-49 -182.5t-12 -229.5z" />
<glyph unicode="&#xd6;" horiz-adv-x="1454" d="M143 768q0 135 11.5 238.5t47.5 213t97 180t170 117t258.5 46.5t258 -46.5t170 -117t98 -180t47 -213t10.5 -238.5t-10.5 -238.5t-47 -213t-98 -180t-170 -117t-258 -46.5t-258.5 46.5t-170 117t-97 180t-47.5 213t-11.5 238.5zM358 1878q0 59 42 101t101.5 42t101.5 -42 t42 -101t-42 -101t-101.5 -42t-101.5 42t-42 101zM365 768q0 -135 12 -229.5t49 -182.5t111.5 -133t189.5 -45t189.5 45t111.5 133t49.5 182.5t12.5 229.5t-12.5 229.5t-49.5 182.5t-111.5 133t-189.5 45t-189.5 -45t-111.5 -133t-49 -182.5t-12 -229.5zM809 1878 q0 59 42 101t101.5 42t101.5 -42t42 -101t-42 -101t-101.5 -42t-101.5 42t-42 101z" />
<glyph unicode="&#xd7;" horiz-adv-x="1064" d="M172 479l219 219l-219 220l141 141l219 -219l220 219l141 -141l-219 -220l219 -219l-141 -141l-220 219l-219 -219z" />
<glyph unicode="&#xd8;" horiz-adv-x="1454" d="M115 0l131 211q-102 178 -103 557q0 135 11.5 238.5t47.5 213t97 180t170 117t258 46.5q193 0 317 -74l29 47h279l-140 -221q98 -180 99 -547q0 -135 -10.5 -238.5t-47 -213t-98 -180t-170 -117t-258.5 -46.5q-184 0 -309 68l-25 -41h-278zM365 768q0 -201 28 -322 l535 857q-82 55 -201 55q-115 0 -189.5 -45t-111.5 -133t-49 -182.5t-12 -229.5zM535 225q76 -47 192 -47q115 0 189.5 45t111.5 133t49.5 182.5t12.5 229.5q0 188 -27 305z" />
<glyph unicode="&#xd9;" horiz-adv-x="1437" d="M164 489v1047h215v-1020q0 -336 340 -336t340 336v1020h215v-1047q0 -127 -41 -224t-99.5 -150.5t-138.5 -87t-145.5 -44t-131 -10.5t-131 10.5t-145.5 44t-138 87t-99 150.5t-41 224zM365 2048h247l164 -358h-114z" />
<glyph unicode="&#xda;" horiz-adv-x="1437" d="M164 489v1047h215v-1020q0 -336 340 -336t340 336v1020h215v-1047q0 -127 -41 -224t-99.5 -150.5t-138.5 -87t-145.5 -44t-131 -10.5t-131 10.5t-145.5 44t-138 87t-99 150.5t-41 224zM662 1690l163 358h248l-297 -358h-114z" />
<glyph unicode="&#xdb;" horiz-adv-x="1437" d="M164 489v1047h215v-1020q0 -336 340 -336t340 336v1020h215v-1047q0 -127 -41 -224t-99.5 -150.5t-138.5 -87t-145.5 -44t-131 -10.5t-131 10.5t-145.5 44t-138 87t-99 150.5t-41 224zM354 1690l256 358h217l256 -358h-114l-250 215l-250 -215h-115z" />
<glyph unicode="&#xdc;" horiz-adv-x="1437" d="M164 489v1047h215v-1020q0 -336 340 -336t340 336v1020h215v-1047q0 -127 -41 -224t-99.5 -150.5t-138.5 -87t-145.5 -44t-131 -10.5t-131 10.5t-145.5 44t-138 87t-99 150.5t-41 224zM350 1878q0 59 42 101t101.5 42t101.5 -42t42 -101t-42 -101t-101.5 -42t-101.5 42 t-42 101zM801 1878q0 59 42 101t101.5 42t101 -42t41.5 -101t-41.5 -101t-101 -42t-101.5 42t-42 101z" />
<glyph unicode="&#xdd;" horiz-adv-x="1486" d="M82 1536h258l403 -717l404 717h258l-555 -903v-633h-213v633zM686 1690l164 358h248l-297 -358h-115z" />
<glyph unicode="&#xde;" horiz-adv-x="1282" d="M174 0v1536h217v-293h271q274 0 401 -134t127 -341q0 -209 -127 -343t-401 -134h-271v-291h-217zM391 496h277q289 0 288 272q0 270 -288 270h-277v-542z" />
<glyph unicode="&#xdf;" horiz-adv-x="1320" d="M164 0v1202q0 160 115.5 257t343 97t344 -98t114.5 -256q-2 -139 -62.5 -214t-211.5 -114q-74 -18 -104.5 -47.5t-30.5 -78.5q0 -47 38 -70t144 -35q213 -25 292 -100.5t79 -220.5q0 -143 -101.5 -242.5t-320.5 -99.5q-72 0 -169 18t-153 41v197q176 -61 324 -62 q115 0 164 42t49 103q0 59 -36 93t-144 45q-213 18 -291 91t-78 199.5t62.5 197.5t228.5 112q72 18 93 54t21 93q0 70 -64.5 114t-187 44t-188 -44t-65.5 -114v-1204h-205z" />
<glyph unicode="&#xe0;" horiz-adv-x="1075" d="M113 324q0 137 84 225t295 104l231 19v20q0 86 -41 125t-147 39q-193 0 -351 -61v194q57 27 165 44.5t186 17.5q223 0 310 -91.5t87 -265.5v-694h-141l-19 53q-131 -80 -287 -80q-197 0 -284.5 99.5t-87.5 251.5zM180 1536h248l164 -358h-115zM324 324q0 -31 5 -54.5 t21.5 -49t51 -39t87.5 -13.5q127 0 234 63v269l-234 -21q-165 -16 -165 -155z" />
<glyph unicode="&#xe1;" horiz-adv-x="1075" d="M113 324q0 137 84 225t295 104l231 19v20q0 86 -41 125t-147 39q-193 0 -351 -61v194q57 27 165 44.5t186 17.5q223 0 310 -91.5t87 -265.5v-694h-141l-19 53q-131 -80 -287 -80q-197 0 -284.5 99.5t-87.5 251.5zM324 324q0 -31 5 -54.5t21.5 -49t51 -39t87.5 -13.5 q127 0 234 63v269l-234 -21q-165 -16 -165 -155zM477 1178l164 358h248l-297 -358h-115z" />
<glyph unicode="&#xe2;" horiz-adv-x="1075" d="M113 324q0 137 84 225t295 104l231 19v20q0 86 -41 125t-147 39q-193 0 -351 -61v194q57 27 165 44.5t186 17.5q223 0 310 -91.5t87 -265.5v-694h-141l-19 53q-131 -80 -287 -80q-197 0 -284.5 99.5t-87.5 251.5zM170 1178l256 358h217l256 -358h-115l-249 215l-250 -215 h-115zM324 324q0 -31 5 -54.5t21.5 -49t51 -39t87.5 -13.5q127 0 234 63v269l-234 -21q-165 -16 -165 -155z" />
<glyph unicode="&#xe3;" horiz-adv-x="1075" d="M113 324q0 137 84 225t295 104l231 19v20q0 86 -41 125t-147 39q-193 0 -351 -61v194q57 27 165 44.5t186 17.5q223 0 310 -91.5t87 -265.5v-694h-141l-19 53q-131 -80 -287 -80q-197 0 -284.5 99.5t-87.5 251.5zM145 1231q2 145 65.5 215t190.5 67q57 -2 102.5 -22.5 t68 -44t53 -43t63.5 -19.5q39 0 59.5 18.5t25.5 40t7 54.5l164 -14q-2 -145 -65.5 -214t-190.5 -67q-72 0 -123 32t-88 63.5t-76 31.5t-59 -18.5t-25.5 -39t-7.5 -54.5zM324 324q0 -31 5 -54.5t21.5 -49t51 -39t87.5 -13.5q127 0 234 63v269l-234 -21q-165 -16 -165 -155z " />
<glyph unicode="&#xe4;" horiz-adv-x="1075" d="M113 324q0 137 84 225t295 104l231 19v20q0 86 -41 125t-147 39q-193 0 -351 -61v194q57 27 165 44.5t186 17.5q223 0 310 -91.5t87 -265.5v-694h-141l-19 53q-131 -80 -287 -80q-197 0 -284.5 99.5t-87.5 251.5zM166 1366q0 59 42 101t101.5 42t101.5 -42t42 -101 t-42 -101t-101.5 -42t-101.5 42t-42 101zM324 324q0 -31 5 -54.5t21.5 -49t51 -39t87.5 -13.5q127 0 234 63v269l-234 -21q-165 -16 -165 -155zM616 1366q0 59 42 101t101.5 42t101.5 -42t42 -101t-42 -101t-101.5 -42t-101.5 42t-42 101z" />
<glyph unicode="&#xe5;" horiz-adv-x="1075" d="M113 324q0 137 84 225t295 104l231 19v20q0 86 -41 125t-147 39q-193 0 -351 -61v194q57 27 165 44.5t186 17.5q223 0 310 -91.5t87 -265.5v-694h-141l-19 53q-131 -80 -287 -80q-197 0 -284.5 99.5t-87.5 251.5zM324 324q0 -31 5 -54.5t21.5 -49t51 -39t87.5 -13.5 q127 0 234 63v269l-234 -21q-165 -16 -165 -155zM326 1356q0 104 55 155.5t154 51.5q96 0 151 -51.5t55 -155.5q0 -102 -55 -153.5t-151 -51.5q-98 0 -153.5 51.5t-55.5 153.5zM444 1356q0 -88 90.5 -88t90.5 88q0 92 -90 92q-47 0 -69 -20.5t-22 -71.5z" />
<glyph unicode="&#xe6;" horiz-adv-x="1691" d="M102 305q0 141 86 222t304 81h239v80q0 86 -49 125t-162 39q-150 0 -340 -64v193q147 63 340 63q248 0 338 -108q104 109 311 108q104 0 179 -28.5t117 -72.5t65.5 -117.5t31 -143.5t7.5 -170v-88h-627q8 -117 58.5 -184.5t168.5 -67.5q180 0 353 74v-197 q-154 -70 -353 -69q-209 0 -317 112l-31 -22q-127 -90 -321 -90q-203 0 -300.5 89t-97.5 236zM313 305q0 -133 191 -133q152 0 244 78l14 8q-16 57 -29 166h-252q-168 0 -168 -119zM942 608h418q-4 119 -42 181.5t-149 62.5q-117 0 -166 -64.5t-61 -179.5z" />
<glyph unicode="&#xe7;" horiz-adv-x="1003" d="M123 512q0 260 105.5 399.5t351.5 139.5q195 0 321 -60v-194q-172 59 -321 59q-139 0 -191.5 -92t-52.5 -252t52 -252t192 -92q150 0 321 59v-194q-109 -49 -272 -58q-51 -80 22 -120q61 -35 71.5 -84.5t-10 -84t-50.5 -65.5h-209q47 41 65.5 87t-16.5 75 q-113 61 -15 197q-197 25 -280.5 162t-83.5 370z" />
<glyph unicode="&#xe8;" horiz-adv-x="1110" d="M123 512q0 260 105.5 399.5t351.5 139.5q104 0 180 -30t119 -76t67.5 -120.5t32.5 -145.5t8 -167v-98h-647q29 -246 240 -246q182 0 352 74v-199q-154 -70 -352 -70q-246 0 -351.5 139.5t-105.5 399.5zM225 1536h248l164 -358h-115zM338 596h432q-2 123 -39 191.5 t-151 68.5q-123 0 -176.5 -67.5t-65.5 -192.5z" />
<glyph unicode="&#xe9;" horiz-adv-x="1110" d="M123 512q0 260 105.5 399.5t351.5 139.5q104 0 180 -30t119 -76t67.5 -120.5t32.5 -145.5t8 -167v-98h-647q29 -246 240 -246q182 0 352 74v-199q-154 -70 -352 -70q-246 0 -351.5 139.5t-105.5 399.5zM338 596h432q-2 123 -39 191.5t-151 68.5q-123 0 -176.5 -67.5 t-65.5 -192.5zM522 1178l164 358h248l-297 -358h-115z" />
<glyph unicode="&#xea;" horiz-adv-x="1110" d="M123 512q0 260 105.5 399.5t351.5 139.5q104 0 180 -30t119 -76t67.5 -120.5t32.5 -145.5t8 -167v-98h-647q29 -246 240 -246q182 0 352 74v-199q-154 -70 -352 -70q-246 0 -351.5 139.5t-105.5 399.5zM215 1178l256 358h217l256 -358h-115l-249 215l-250 -215h-115z M338 596h432q-2 123 -39 191.5t-151 68.5q-123 0 -176.5 -67.5t-65.5 -192.5z" />
<glyph unicode="&#xeb;" horiz-adv-x="1110" d="M123 512q0 260 105.5 399.5t351.5 139.5q104 0 180 -30t119 -76t67.5 -120.5t32.5 -145.5t8 -167v-98h-647q29 -246 240 -246q182 0 352 74v-199q-154 -70 -352 -70q-246 0 -351.5 139.5t-105.5 399.5zM211 1366q0 59 42 101t101.5 42t101.5 -42t42 -101t-42 -101 t-101.5 -42t-101.5 42t-42 101zM338 596h432q-2 123 -39 191.5t-151 68.5q-123 0 -176.5 -67.5t-65.5 -192.5zM662 1366q0 59 41.5 101t101 42t101.5 -42t42 -101t-42 -101t-101.5 -42t-101 42t-41.5 101z" />
<glyph unicode="&#xec;" horiz-adv-x="563" d="M-84 1536h248l164 -358h-115zM166 221v803h207v-809q0 -27 17.5 -37t62.5 -10v-195h-39q-125 0 -186.5 57.5t-61.5 190.5z" />
<glyph unicode="&#xed;" horiz-adv-x="563" d="M166 221v803h207v-809q0 -27 17.5 -37t62.5 -10v-195h-39q-125 0 -186.5 57.5t-61.5 190.5zM213 1178l164 358h248l-297 -358h-115z" />
<glyph unicode="&#xee;" horiz-adv-x="563" d="M-94 1178l256 358h217l256 -358h-115l-250 215l-250 -215h-114zM166 221v803h207v-809q0 -27 17.5 -37t62.5 -10v-195h-39q-125 0 -186.5 57.5t-61.5 190.5z" />
<glyph unicode="&#xef;" horiz-adv-x="563" d="M-98 1366q0 59 42 101t101 42t101 -42t42 -101t-42 -101t-101 -42t-101 42t-42 101zM166 221v803h207v-809q0 -27 17.5 -37t62.5 -10v-195h-39q-125 0 -186.5 57.5t-61.5 190.5zM352 1366q0 59 42 101t101.5 42t101.5 -42t42 -101t-42 -101t-101.5 -42t-101.5 42t-42 101 z" />
<glyph unicode="&#xf0;" horiz-adv-x="1114" d="M113 512q0 266 93 402.5t351 136.5q61 0 117 -19q-43 88 -119 176l-291 -147v172l178 90q-117 102 -309 213h318q100 -63 167 -123l240 123v-172l-127 -66q260 -303 268 -757q2 -10 2 -29q0 -131 -17 -221t-64.5 -166t-137.5 -114t-225 -38q-258 0 -351 136.5t-93 402.5z M322 512q0 -68 3 -112t16 -92t37.5 -75.5t70 -46t108.5 -18.5q78 0 127 24.5t71.5 77t30 105.5t7.5 137t-7.5 137t-30 105.5t-71.5 77t-127 24.5q-63 0 -108.5 -18.5t-70 -46t-37.5 -75.5t-16 -92t-3 -112z" />
<glyph unicode="&#xf1;" horiz-adv-x="1101" d="M143 0v1024h142l20 -57q127 84 287 84q186 0 281.5 -86t95.5 -244v-721h-211v725q0 131 -166 131q-135 0 -238 -49v-807h-211zM178 1231q2 145 65.5 215t190.5 67q57 -2 102.5 -22.5t68 -44t53 -43t63.5 -19.5q39 0 59.5 18.5t25.5 40t7 54.5l164 -14q-2 -145 -65.5 -214 t-190.5 -67q-72 0 -123 32t-88 63.5t-76 31.5t-59.5 -18.5t-25.5 -39t-7 -54.5z" />
<glyph unicode="&#xf2;" horiz-adv-x="1134" d="M123 512q0 266 93 402.5t351 136.5q135 0 225.5 -38t137.5 -114t64.5 -166t17.5 -221t-17.5 -221t-64.5 -166t-137.5 -114t-225.5 -38q-258 0 -351 136.5t-93 402.5zM213 1536h248l164 -358h-115zM332 512q0 -68 3 -112t16.5 -92t38 -75.5t69.5 -46t108 -18.5 q78 0 127 24.5t71.5 77t30 105.5t7.5 137t-7.5 137t-30 105.5t-71.5 77t-127 24.5q-63 0 -108 -18.5t-69.5 -46t-38 -75.5t-16.5 -92t-3 -112z" />
<glyph unicode="&#xf3;" horiz-adv-x="1134" d="M123 512q0 266 93 402.5t351 136.5q135 0 225.5 -38t137.5 -114t64.5 -166t17.5 -221t-17.5 -221t-64.5 -166t-137.5 -114t-225.5 -38q-258 0 -351 136.5t-93 402.5zM332 512q0 -68 3 -112t16.5 -92t38 -75.5t69.5 -46t108 -18.5q78 0 127 24.5t71.5 77t30 105.5t7.5 137 t-7.5 137t-30 105.5t-71.5 77t-127 24.5q-63 0 -108 -18.5t-69.5 -46t-38 -75.5t-16.5 -92t-3 -112zM510 1178l164 358h248l-297 -358h-115z" />
<glyph unicode="&#xf4;" horiz-adv-x="1134" d="M123 512q0 266 93 402.5t351 136.5q135 0 225.5 -38t137.5 -114t64.5 -166t17.5 -221t-17.5 -221t-64.5 -166t-137.5 -114t-225.5 -38q-258 0 -351 136.5t-93 402.5zM203 1178l256 358h217l256 -358h-115l-250 215l-250 -215h-114zM332 512q0 -68 3 -112t16.5 -92 t38 -75.5t69.5 -46t108 -18.5q78 0 127 24.5t71.5 77t30 105.5t7.5 137t-7.5 137t-30 105.5t-71.5 77t-127 24.5q-63 0 -108 -18.5t-69.5 -46t-38 -75.5t-16.5 -92t-3 -112z" />
<glyph unicode="&#xf5;" horiz-adv-x="1134" d="M123 512q0 266 93 402.5t351 136.5q135 0 225.5 -38t137.5 -114t64.5 -166t17.5 -221t-17.5 -221t-64.5 -166t-137.5 -114t-225.5 -38q-258 0 -351 136.5t-93 402.5zM168 1231q2 145 65.5 215t190.5 67q57 -2 102 -22.5t67.5 -44t53.5 -43t64 -19.5q39 0 59.5 18.5 t25.5 40t7 54.5l164 -14q-2 -145 -65.5 -214t-190.5 -67q-72 0 -123 32t-88 63.5t-76 31.5t-59.5 -18.5t-25.5 -39t-7 -54.5zM332 512q0 -68 3 -112t16.5 -92t38 -75.5t69.5 -46t108 -18.5q78 0 127 24.5t71.5 77t30 105.5t7.5 137t-7.5 137t-30 105.5t-71.5 77t-127 24.5 q-63 0 -108 -18.5t-69.5 -46t-38 -75.5t-16.5 -92t-3 -112z" />
<glyph unicode="&#xf6;" horiz-adv-x="1134" d="M123 512q0 266 93 402.5t351 136.5q135 0 225.5 -38t137.5 -114t64.5 -166t17.5 -221t-17.5 -221t-64.5 -166t-137.5 -114t-225.5 -38q-258 0 -351 136.5t-93 402.5zM199 1366q0 59 42 101t101 42t101 -42t42 -101t-42 -101t-101 -42t-101 42t-42 101zM332 512 q0 -68 3 -112t16.5 -92t38 -75.5t69.5 -46t108 -18.5q78 0 127 24.5t71.5 77t30 105.5t7.5 137t-7.5 137t-30 105.5t-71.5 77t-127 24.5q-63 0 -108 -18.5t-69.5 -46t-38 -75.5t-16.5 -92t-3 -112zM649 1366q0 59 42 101t101.5 42t101.5 -42t42 -101t-42 -101t-101.5 -42 t-101.5 42t-42 101z" />
<glyph unicode="&#xf7;" horiz-adv-x="1064" d="M123 598v201h819v-201h-819zM389 385q0 59 42 101t101.5 42t101.5 -42t42 -101t-42 -101t-101.5 -42t-101.5 42t-42 101zM389 1011.5q0 59.5 42 101.5t101.5 42t101.5 -42t42 -101.5t-42 -101.5t-101.5 -42t-101.5 42t-42 101.5z" />
<glyph unicode="&#xf8;" horiz-adv-x="1146" d="M92 0l101 143q-70 123 -70 369q0 266 93 402.5t351 136.5q137 0 230 -41l10 14h248l-109 -154q66 -123 66 -358q0 -131 -17.5 -221t-64.5 -166t-137.5 -114t-225.5 -38q-133 0 -221 37l-6 -10h-248zM332 512q0 -111 8 -158l336 484q-51 18 -109 18q-63 0 -108 -18.5 t-69.5 -46t-38 -75.5t-16.5 -92t-3 -112zM467 182q37 -14 100 -14q78 0 127 24.5t71.5 77t30 105.5t7.5 137t-8 141z" />
<glyph unicode="&#xf9;" horiz-adv-x="1101" d="M133 303v721h211v-725q0 -131 166 -131q135 0 238 49v807h210v-1024h-141l-20 57q-127 -84 -287 -84q-186 0 -281.5 86t-95.5 244zM193 1536h247l164 -358h-115z" />
<glyph unicode="&#xfa;" horiz-adv-x="1101" d="M133 303v721h211v-725q0 -131 166 -131q135 0 238 49v807h210v-1024h-141l-20 57q-127 -84 -287 -84q-186 0 -281.5 86t-95.5 244zM489 1178l164 358h248l-297 -358h-115z" />
<glyph unicode="&#xfb;" horiz-adv-x="1101" d="M133 303v721h211v-725q0 -131 166 -131q135 0 238 49v807h210v-1024h-141l-20 57q-127 -84 -287 -84q-186 0 -281.5 86t-95.5 244zM182 1178l256 358h217l256 -358h-114l-250 215l-250 -215h-115z" />
<glyph unicode="&#xfc;" horiz-adv-x="1101" d="M133 303v721h211v-725q0 -131 166 -131q135 0 238 49v807h210v-1024h-141l-20 57q-127 -84 -287 -84q-186 0 -281.5 86t-95.5 244zM178 1366q0 59 42 101t101.5 42t101.5 -42t42 -101t-42 -101t-101.5 -42t-101.5 42t-42 101zM629 1366q0 59 42 101t101 42t101 -42 t42 -101t-42 -101t-101 -42t-101 42t-42 101z" />
<glyph unicode="&#xfd;" horiz-adv-x="1054" d="M51 1024h238l239 -739l240 739h236l-590 -1536h-230l246 561zM469 1178l164 358h248l-297 -358h-115z" />
<glyph unicode="&#xfe;" horiz-adv-x="1148" d="M143 -512v2048h207v-545q123 59 232 60q246 0 345 -138.5t99 -400.5t-99.5 -400.5t-344.5 -138.5q-109 0 -232 56v-541h-207zM350 215q27 -14 76 -27q82 -20 156 -20q137 0 184 90t47 254q0 78 -8 133t-31.5 106.5t-72 78t-119.5 26.5q-129 0 -232 -49v-592z" />
<glyph unicode="&#xff;" horiz-adv-x="1054" d="M51 1024h238l239 -739l240 739h236l-590 -1536h-230l246 561zM158 1366q0 59 42 101t101 42t101 -42t42 -101t-42 -101t-101 -42t-101 42t-42 101zM608 1366q0 59 42 101t101.5 42t101.5 -42t42 -101t-42 -101t-101.5 -42t-101.5 42t-42 101z" />
<glyph unicode="&#x152;" horiz-adv-x="1900" d="M143 768q0 172 32 305t103.5 240.5t202.5 165t316 57.5h960v-205h-627v-434h560v-205h-560v-487h627v-205h-960q-184 0 -315.5 57.5t-203 165t-103.5 240.5t-32 305zM371 768q0 -266 96 -414.5t321 -148.5h127v1126h-127q-225 0 -321 -148.5t-96 -414.5z" />
<glyph unicode="&#x153;" horiz-adv-x="1789" d="M123 512q0 266 93 402.5t351 136.5q242 0 348 -131q113 131 345 131q104 0 180 -30t119 -76t67.5 -120.5t32.5 -145.5t8 -167v-98h-647q29 -246 240 -246q182 0 352 74v-199q-154 -70 -352 -70q-231 0 -345 129q-106 -129 -348 -129q-258 0 -351 136.5t-93 402.5z M332 512q0 -68 3 -112t16.5 -92t38 -75.5t69.5 -46t108 -18.5q141 0 187.5 80t48.5 239v48q-2 160 -48 240.5t-188 80.5q-63 0 -108 -18.5t-69.5 -46t-38 -75.5t-16.5 -92t-3 -112zM1018 596h432q-2 123 -39 191.5t-151 68.5q-123 0 -176.5 -67.5t-65.5 -192.5z" />
<glyph unicode="&#x178;" horiz-adv-x="1486" d="M82 1536h258l403 -717l404 717h258l-555 -903v-633h-213v633zM375 1878q0 59 42 101t101.5 42t101.5 -42t42 -101t-42 -101t-101.5 -42t-101.5 42t-42 101zM825 1878q0 59 42 101t101.5 42t101.5 -42t42 -101t-42 -101t-101.5 -42t-101.5 42t-42 101z" />
<glyph unicode="&#x2c6;" horiz-adv-x="1105" d="M209 1178l256 358h217l256 -358h-115l-250 215l-249 -215h-115z" />
<glyph unicode="&#x2dc;" horiz-adv-x="1105" d="M174 1231q2 145 65.5 215t190.5 67q57 -2 102.5 -22.5t68 -44t53 -43t63.5 -19.5q39 0 59.5 18.5t25.5 40t7 54.5l164 -14q-2 -145 -65.5 -214t-190.5 -67q-72 0 -123 32t-88 63.5t-76 31.5t-59.5 -18.5t-25.5 -39t-7 -54.5z" />
<glyph unicode="&#x2000;" horiz-adv-x="1036" />
<glyph unicode="&#x2001;" horiz-adv-x="2074" />
<glyph unicode="&#x2002;" horiz-adv-x="1036" />
<glyph unicode="&#x2003;" horiz-adv-x="2074" />
<glyph unicode="&#x2004;" horiz-adv-x="690" />
<glyph unicode="&#x2005;" horiz-adv-x="518" />
<glyph unicode="&#x2006;" horiz-adv-x="344" />
<glyph unicode="&#x2007;" horiz-adv-x="344" />
<glyph unicode="&#x2008;" horiz-adv-x="258" />
<glyph unicode="&#x2009;" horiz-adv-x="413" />
<glyph unicode="&#x200a;" horiz-adv-x="114" />
<glyph unicode="&#x2010;" horiz-adv-x="757" d="M102 598v201h553v-201h-553z" />
<glyph unicode="&#x2011;" horiz-adv-x="757" d="M102 598v201h553v-201h-553z" />
<glyph unicode="&#x2012;" horiz-adv-x="757" d="M102 598v201h553v-201h-553z" />
<glyph unicode="&#x2013;" horiz-adv-x="1024" d="M123 598v201h778v-201h-778z" />
<glyph unicode="&#x2014;" horiz-adv-x="2048" d="M123 598v201h1802v-201h-1802z" />
<glyph unicode="&#x2018;" horiz-adv-x="389" d="M-4 1024q6 268 182 477l33 35h100q-4 -8 -10 -23.5t-22.5 -67.5t-23.5 -107.5t-13 -142.5t10 -171h-256z" />
<glyph unicode="&#x2019;" horiz-adv-x="389" d="M78 1024q4 8 10 23.5t22.5 67.5t23.5 107.5t13.5 142.5t-10.5 171h256q-6 -268 -182 -477l-33 -35h-100z" />
<glyph unicode="&#x201a;" horiz-adv-x="389" d="M78 -328q4 8 10 23.5t22.5 68t23.5 107.5t13.5 142t-10.5 171h256q-6 -268 -182 -477l-33 -35h-100z" />
<glyph unicode="&#x201c;" horiz-adv-x="757" d="M-4 1024q6 268 182 477l33 35h100q-4 -8 -10 -23.5t-22.5 -67.5t-23.5 -107.5t-13 -142.5t10 -171h-256zM365 1024q6 268 182 477l33 35h100q-4 -8 -10 -23.5t-22.5 -67.5t-24 -107.5t-13.5 -142.5t11 -171h-256z" />
<glyph unicode="&#x201d;" horiz-adv-x="757" d="M78 1024q4 8 10 23.5t22.5 67.5t23.5 107.5t13.5 142.5t-10.5 171h256q-6 -268 -182 -477l-33 -35h-100zM446 1024q4 8 10.5 23.5t23 67.5t23.5 107.5t13 142.5t-10 171h256q-6 -268 -182 -477l-33 -35h-101z" />
<glyph unicode="&#x201e;" horiz-adv-x="757" d="M78 -328q4 8 10 23.5t22.5 68t23.5 107.5t13.5 142t-10.5 171h256q-6 -268 -182 -477l-33 -35h-100zM446 -328q4 8 10.5 23.5t23 68t23.5 107.5t13 142t-10 171h256q-6 -268 -182 -477l-33 -35h-101z" />
<glyph unicode="&#x2022;" horiz-adv-x="819" d="M133 768q0 115 81 195.5t195.5 80.5t195.5 -80.5t81 -195.5t-81 -195.5t-195.5 -80.5t-195.5 80.5t-81 195.5z" />
<glyph unicode="&#x2026;" horiz-adv-x="2027" d="M195 116.5q0 59.5 42 101.5t101 42t101 -42t42 -101.5t-42 -101.5t-101 -42t-101 42t-42 101.5zM870 116.5q0 59.5 42 101.5t101.5 42t101.5 -42t42 -101.5t-42 -101.5t-101.5 -42t-101.5 42t-42 101.5zM1546 116.5q0 59.5 42 101.5t101.5 42t101.5 -42t42 -101.5 t-42 -101.5t-101.5 -42t-101.5 42t-42 101.5z" />
<glyph unicode="&#x202f;" horiz-adv-x="413" />
<glyph unicode="&#x2039;" horiz-adv-x="624" d="M113 418v188l389 287v-178l-219 -203l219 -203v-180z" />
<glyph unicode="&#x203a;" horiz-adv-x="624" d="M123 129v180l219 203l-219 203v178l389 -287v-188z" />
<glyph unicode="&#x2044;" horiz-adv-x="1128" d="M-102 0l1089 1536h244l-1090 -1536h-243z" />
<glyph unicode="&#x205f;" horiz-adv-x="518" />
<glyph unicode="&#x20ac;" horiz-adv-x="1118" d="M72 512v203h112v106h-112v203h125q29 274 152.5 406.5t387.5 132.5q190 0 322 -56v-198q-164 53 -322 53q-147 0 -222 -83t-99 -255h532l-67 -203h-480v-106h445l-68 -203h-362q25 -174 99.5 -256t221.5 -82q158 0 322 53v-198q-131 -55 -322 -56q-264 0 -388 132.5 t-152 406.5h-125z" />
<glyph unicode="&#x2122;" horiz-adv-x="1177" d="M51 1442v94h420v-94h-156v-418h-106v418h-158zM535 1024v512h112l152 -319l155 319h111v-512h-98l4 324l-131 -263h-78l-131 263l4 -324h-100z" />
<glyph unicode="&#xe000;" horiz-adv-x="1025" d="M0 1025h1025v-1025h-1025v1025z" />
<glyph unicode="&#xfb01;" horiz-adv-x="1400" d="M55 844v127l191 53v215q0 324 381 324q106 0 170 -21v-196q-86 23 -170 22q-174 0 -174 -133v-211h303v-180h-303v-844h-207v844h-191zM965 1366q0 59 42 101t101 42t101 -42t42 -101t-42 -101t-101 -42t-101 42t-42 101zM1004 221v803h206v-809q0 -27 17.5 -37t62.5 -10 v-195h-39q-125 0 -186 57.5t-61 190.5z" />
<glyph unicode="&#xfb02;" horiz-adv-x="1400" d="M55 844v127l191 53v215q0 324 381 324q106 0 170 -21v-196q-86 23 -170 22q-174 0 -174 -133v-211h303v-180h-303v-844h-207v844h-191zM1004 221v1315h206v-1321q0 -27 17.5 -37t62.5 -10v-195h-39q-125 0 -186 57.5t-61 190.5z" />
<glyph unicode="&#xfb03;" horiz-adv-x="2238" d="M1802 1366q0 59 42 101t101.5 42t101.5 -42t42 -101t-42 -101t-101.5 -42t-101.5 42t-42 101zM1841 221v803h207v-809q0 -27 17.5 -37t62.5 -10v-195h-39q-125 0 -186.5 57.5t-61.5 190.5zM893 844v127l191 53v215q0 324 381 324q106 0 170 -21v-196q-86 23 -170 22 q-174 0 -174 -133v-211h303v-180h-303v-844h-207v844h-191zM55 844v127l191 53v215q0 324 381 324q106 0 170 -21v-196q-86 23 -170 22q-174 0 -174 -133v-211h303v-180h-303v-844h-207v844h-191z" />
<glyph unicode="&#xfb04;" horiz-adv-x="2238" d="M1841 221v1315h207v-1321q0 -27 17.5 -37t62.5 -10v-195h-39q-125 0 -186.5 57.5t-61.5 190.5zM893 844v127l191 53v215q0 324 381 324q106 0 170 -21v-196q-86 23 -170 22q-174 0 -174 -133v-211h303v-180h-303v-844h-207v844h-191zM55 844v127l191 53v215 q0 324 381 324q106 0 170 -21v-196q-86 23 -170 22q-174 0 -174 -133v-211h303v-180h-303v-844h-207v844h-191z" />
</font>
</defs>
</svg>
