<?xml version="1.0" standalone="no"?>
<!DOCTYPE svg PUBLIC "-//W3C//DTD SVG 1.1//EN" "http://www.w3.org/Graphics/SVG/1.1/DTD/svg11.dtd" >
<svg xmlns="http://www.w3.org/2000/svg">
<metadata>
Created by FontPrep 20130207 at Mon Jun 30 11:39:52 2014
 By Jeff Harrington
Copyright (c) Village Type and Design 2003-2007. All rights reserved.
</metadata>
<defs>
<font id="f72b215d3d2c959f79eadb78fd012f0d" horiz-adv-x='1024' >
  <font-face 
    font-family="VerizonApex-ExtraboldItalic"
    font-weight="725"
    font-style="italic"
    font-stretch="normal"
    units-per-em="2048"
    panose-1="2 1 6 0 4 5 1 1 1 3"
    ascent="1536"
    descent="-512"
    x-height="1024"
    cap-height="1536"
    bbox="-188 -549.006 2938.26 2095"
    underline-thickness="102"
    underline-position="-102"
    unicode-range="U+0020-FB02"
  />
<missing-glyph horiz-adv-x="1863" 
d="M836 768l-527 526v-1052zM1028 768l526 -526v1052zM932 672l-537 -537h1073zM395 1401l537 -537l536 537h-1073zM164 0v1536h1536v-1536h-1536z" />
    <glyph glyph-name="fi" unicode="fi" horiz-adv-x="1556" 
d="M1108 1320q10 83 74 139q64 57 145 57q82 0 131 -56t40 -139q-8 -82 -72 -138q-64 -57 -146 -57t-132 56t-40 138zM1292 -16q-139 0 -219 72t-61 216l90 752h325l-79 -666q-4 -31 12 -46t63 -15l-37 -313h-94zM748 1573q127 0 217 -31l-39 -315q-98 31 -215 30
q-78 0 -88 -75l-21 -158h262l-37 -303h-262l-149 -1233h-326l150 1233h-166l30 244l172 49l23 192q45 367 449 367z" />
    <glyph glyph-name="fl" unicode="fl" horiz-adv-x="1556" 
d="M1292 -16q-139 0 -219 72t-61 216l153 1264h326l-143 -1178q-4 -31 12 -46t63 -15l-37 -313h-94zM748 1573q127 0 217 -31l-39 -315q-98 31 -215 30q-78 0 -88 -75l-21 -158h262l-37 -303h-262l-149 -1233h-326l150 1233h-166l30 244l172 49l23 192q45 367 449 367z" />
    <glyph glyph-name="f_dotlessi" unicode="f&#x131;" horiz-adv-x="1556" 
d="M1292 -16q-139 0 -219 72t-61 216l90 752h325l-79 -666q-4 -31 12 -46t63 -15l-37 -313h-94zM748 1573q127 0 217 -31l-39 -315q-98 31 -215 30q-78 0 -88 -75l-21 -158h262l-37 -303h-262l-149 -1233h-326l150 1233h-166l30 244l172 49l23 192q45 367 449 367z" />
    <glyph glyph-name=".notdef" horiz-adv-x="1863" 
d="M836 768l-527 526v-1052zM1028 768l526 -526v1052zM932 672l-537 -537h1073zM395 1401l537 -537l536 537h-1073zM164 0v1536h1536v-1536h-1536z" />
    <glyph glyph-name=".null" horiz-adv-x="0" 
 />
    <glyph glyph-name="nonmarkingreturn" horiz-adv-x="681" 
 />
    <glyph glyph-name="space" unicode=" " horiz-adv-x="409" 
 />
    <glyph glyph-name="exclam" unicode="!" horiz-adv-x="524" 
d="M242 352q82 0 132 -56t40 -138t-74 -138t-146 -57q-83 0 -132 56q-47 57 -37 139t72 138q63 56 145 56zM371 430h-238l62 1106h385z" />
    <glyph glyph-name="quotedbl" unicode="&#x22;" horiz-adv-x="962" 
d="M641 1024v512h401l-127 -512h-274zM170 1024v512h401l-127 -512h-274z" />
    <glyph glyph-name="numbersign" unicode="#" horiz-adv-x="1220" 
d="M659 1034l-10 -18h27l10 18h-27zM424 512l90 182h-25l-94 -182h-338l95 182h-119l135 322h143l11 18h-121l137 320h143l92 182h340l-92 -182h27l92 182h340l-92 -182h125l-137 -320h-150l-12 -18h129l-135 -322h-152l-94 -182h-338z" />
    <glyph glyph-name="dollar" unicode="$" horiz-adv-x="1228" 
d="M578 492q178 0 188 69q4 38 -46 50t-106 18q-240 23 -336 95t-78 236q19 162 142 272t330 124l86 180h354l-106 -207q90 -18 131 -37l-37 -307q-143 59 -406 59q-164 0 -172 -59q-2 -17 8 -27q20 -21 152 -32q246 -23 338 -98t72 -257q-20 -153 -152 -267t-354 -126
l-80 -178h-350l102 205q-94 18 -129 39l39 311q119 -63 410 -63z" />
    <glyph glyph-name="percent" unicode="%" horiz-adv-x="2125" 
d="M539 999q45 0 67 30t31 104q10 73 -5 103q-14 30 -60 30t-68 -30t-31 -104q-11 -74 5 -103q16 -30 61 -30zM1649 537q-45 0 -67 -30t-31 -104q-9 -73 7 -103t60 -30t66 30t31 104t-6 103q-15 30 -60 30zM1687 844q207 0 289 -111t54 -330t-137 -329t-315 -111
q-206 1 -288 111t-53 329q27 219 135 330q109 111 315 111zM502 692q-206 0 -288 111q-83 111 -56 330q53 440 450 440q207 -1 289 -111t55 -329q-28 -219 -136 -330t-314 -111zM653 0h-393l1276 1536h393z" />
    <glyph glyph-name="ampersand" unicode="&#x26;" horiz-adv-x="1714" 
d="M492 694q176 80 299 230q-106 -6 -185 -66t-114 -164zM1524 508q0 -14 -2 -23q-29 -244 -228 -383q-198 -139 -532 -139t-499 166t-128 469t231 474t488 171q45 0 117 -10q57 145 78 303h329q-40 -348 -246 -674q-101 -160 -255 -292t-342 -205q88 -84 264 -84
q369 0 391 204q2 10 -2 43h-90l39 324h536l-39 -324h-108q-2 -6 -2 -20z" />
    <glyph glyph-name="quotesingle" unicode="'" horiz-adv-x="491" 
d="M170 1024v512h401l-127 -512h-274z" />
    <glyph glyph-name="parenleft" unicode="(" horiz-adv-x="815" 
d="M618 -422h-354q-80 144 -125 420t-2 626t156 627q113 276 227 420h354q-114 -143 -228 -419t-157 -626q-43 -349 3 -626t126 -422z" />
    <glyph glyph-name="parenright" unicode=")" horiz-adv-x="815" 
d="M322 -422h-355q117 144 231 420t156 626t-4 627q-47 276 -127 420h355q80 -143 126 -419t2 -627q-42 -350 -156 -628t-228 -419z" />
    <glyph glyph-name="asterisk" unicode="*" horiz-adv-x="1024" 
d="M451 1536h372l-49 -186l187 84l55 -357l-174 -30l110 -138l-334 -211l-63 160l-104 -160l-281 211l143 138l-166 30l142 357l166 -84z" />
    <glyph glyph-name="plus" unicode="+" horiz-adv-x="1064" 
d="M664 270h-320l33 269h-268l38 319h269l33 268h319l-33 -268h269l-39 -319h-269z" />
    <glyph glyph-name="comma" unicode="," horiz-adv-x="491" 
d="M224 352q81 0 132 -58t41 -136q-4 -46 -37 -97l-172 -294h-200l80 233q-72 58 -61 148t73 147t144 57z" />
    <glyph glyph-name="hyphen" unicode="-" horiz-adv-x="757" 
d="M735 858l-39 -319h-626l39 319h626z" />
    <glyph glyph-name="period" unicode="." horiz-adv-x="491" 
d="M225 352q82 0 132 -56t40 -138t-73 -138q-62 -56 -146 -57q-84 1 -132 57t-38 138t72 138t145 56z" />
    <glyph glyph-name="slash" unicode="/" horiz-adv-x="1081" 
d="M248 -422h-361l973 2093h363z" />
    <glyph glyph-name="zero" unicode="0" horiz-adv-x="1228" 
d="M707 1270q-123 0 -170 -98t-80 -349q-33 -249 -30 -361t37 -154t120 -42q123 0 171 98t85 404q53 379 -14 459q-35 43 -119 43zM548 -37q-300 0 -390 176t-35 629t188 629t433 176t390 -177t34 -628t-188 -628t-432 -177z" />
    <glyph glyph-name="one" unicode="1" horiz-adv-x="1228" 
d="M113 0l37 303h266l112 936l-256 -10l27 227l438 117h168l-153 -1270h268l-37 -303h-870z" />
    <glyph glyph-name="two" unicode="2" horiz-adv-x="1228" 
d="M703 1573q240 0 344 -74q105 -74 125 -186q20 -111 8 -183q-12 -100 -66 -188t-164 -199l-428 -424h576l-39 -319h-1012l27 225l696 760q66 69 75 137t-23 102t-130 33q-219 0 -426 -86l41 334q156 68 396 68z" />
    <glyph glyph-name="three" unicode="3" horiz-adv-x="1228" 
d="M671 1573q297 0 405 -113t77 -352q-10 -84 -51 -168t-96 -121q70 -43 98 -137t14 -209q-33 -258 -177 -384q-145 -126 -455 -126t-445 72l39 323q199 -82 436 -82t262 197q10 92 -29 128q-40 36 -141 36h-266l39 315h266q76 0 117 45t49 116q17 147 -188 147
q-238 0 -445 -78l41 336q154 55 450 55z" />
    <glyph glyph-name="four" unicode="4" horiz-adv-x="1228" 
d="M479 666h221l39 317zM35 348l24 203l838 1022h238l-111 -907h168l-39 -318h-168l-41 -348h-323l41 348h-627z" />
    <glyph glyph-name="five" unicode="5" horiz-adv-x="1228" 
d="M45 33l41 323q49 -28 186 -52t253 -24t187 41q71 40 84 149t-49 132t-147 23h-442l110 911h965l-39 -315h-641l-33 -279l158 4q281 7 387 -125q90 -113 63 -346q-16 -129 -63 -225t-109 -150q-154 -137 -463 -137t-448 70z" />
    <glyph glyph-name="six" unicode="6" horiz-adv-x="1228" 
d="M645 653q-169 0 -194 -188q-23 -188 149 -189q152 0 174 188t-129 189zM760 1255q-226 0 -254 -331q84 47 194 47t197 -33q88 -33 129 -85q94 -119 84 -256q-11 -183 -31 -254q-20 -72 -60 -143t-96 -121q-55 -50 -149 -83t-236 -33t-239 49q-98 48 -136 140
q-72 174 -26 501q20 170 45 290t74 247t117 205q67 78 177 128t253 50q279 0 391 -68l-39 -323q-180 73 -395 73z" />
    <glyph glyph-name="seven" unicode="7" horiz-adv-x="1228" 
d="M506 0h-363l691 1223h-646l39 313h1022l-26 -211z" />
    <glyph glyph-name="eight" unicode="8" horiz-adv-x="1228" 
d="M668 948q74 0 118 50t50 108q8 58 -21 105q-29 49 -111 49t-120 -48q-39 -48 -46 -105q-7 -58 24 -109q32 -50 106 -50zM629 635q-89 0 -145 -52t-65 -124t30 -127q39 -56 137 -56t149 56t61 127q10 72 -35 124q-44 52 -132 52zM743 1573q360 0 420 -297
q35 -173 -46 -338q-40 -82 -89 -123q57 -45 87 -151q55 -193 -35 -394q-139 -307 -533 -307q-270 0 -380 140t-85 350q14 107 70 213t122 149q-39 41 -59 123t-9 170q23 184 143 316q61 69 163 109t231 40z" />
    <glyph glyph-name="nine" unicode="9" horiz-adv-x="1228" 
d="M645 883q99 0 143 56t52 132q23 188 -150 189q-152 0 -174 -188t129 -189zM530 281q119 0 182 90q62 90 72 241q-80 -47 -192 -47t-199 33q-88 33 -129 85q-92 117 -84 256q4 69 8 132q66 502 541 502q323 0 398 -186t26 -504q-20 -170 -45 -290t-74 -247
q-48 -127 -116 -205t-178 -128t-253 -50q-279 0 -391 68l41 323q178 -73 393 -73z" />
    <glyph glyph-name="colon" unicode=":" horiz-adv-x="491" 
d="M225 352q82 0 132 -56t40 -138t-73 -138q-62 -56 -146 -57q-84 1 -132 57t-38 138t72 138t145 56zM82 767q10 83 74 139t145 56q82 0 131 -56t40 -138q-8 -82 -72 -138t-146 -56t-132 54q-50 56 -40 139z" />
    <glyph glyph-name="semicolon" unicode=";" horiz-adv-x="491" 
d="M82 767q10 83 74 139t145 56q82 0 131 -56t40 -138q-8 -82 -72 -138t-146 -56t-132 54q-50 56 -40 139zM224 352q81 0 132 -58t41 -136q-4 -46 -37 -97l-172 -294h-200l80 233q-72 58 -61 148t73 147t144 57z" />
    <glyph glyph-name="less" unicode="&#x3c;" horiz-adv-x="747" 
d="M684 526l-45 -358l-576 418l29 225l678 418l-45 -359l-248 -172z" />
    <glyph glyph-name="equal" unicode="=" horiz-adv-x="1064" 
d="M977 651l-39 -321h-856l39 321h856zM1022 1024l-39 -322h-856l39 322h856z" />
    <glyph glyph-name="greater" unicode="&#x3e;" horiz-adv-x="747" 
d="M23 168l45 358l247 172l-206 172l45 359l575 -418l-29 -225z" />
    <glyph glyph-name="question" unicode="?" horiz-adv-x="1024" 
d="M362 352q82 0 132 -56t41 -138t-73 -138t-148 -57q-84 1 -131 57q-48 56 -38 138q11 82 73 138t144 56zM530 989q45 15 69 27q23 12 47 39t30 79t-27 82q-33 32 -166 32t-358 -79l41 334q74 29 188 49t216 20t196 -25q94 -27 143 -69q106 -92 108 -222q4 -254 -101 -388
q-54 -69 -198 -132q-46 -19 -120 -47t-96 -84q-20 -56 -8 -175h-273q-14 100 -1 214q14 114 82 201t228 144z" />
    <glyph glyph-name="at" unicode="@" horiz-adv-x="2174" 
d="M1098 756q-168 0 -199 -244t139 -244q86 0 142 17l22 6l53 442q-74 23 -157 23zM1130 1061q66 -1 143 -21t113 -49l15 33h217l-84 -696q199 0 240 340q38 313 -96 441t-499 128t-541 -186t-218 -539q-88 -725 577 -725q379 0 617 111l-41 -355q-119 -43 -292 -67
t-325 -25q-1020 0 -890 1061q29 244 104 431q76 187 209 333q272 298 833 297q561 0 767 -221t149 -684q-43 -354 -222 -511t-493 -157h-135l-8 33q-43 -29 -126 -49t-149 -21q-259 0 -357 132t-63 417t166 417t389 132z" />
    <glyph glyph-name="A" unicode="A" horiz-adv-x="1402" 
d="M793 705l-37 237l-101 -237h138zM348 0h-375l738 1552h239l357 -1552h-373l-74 371h-348z" />
    <glyph glyph-name="B" unicode="B" horiz-adv-x="1290" 
d="M754 1200h-189l-28 -239h204q136 -1 152 120q8 55 -21 87t-118 32zM659 336q188 0 205 141q10 76 -28 111q-39 35 -136 35h-204l-37 -287h200zM791 1536q273 0 381 -125t83 -330q-20 -158 -125 -270q53 -61 79 -153t16 -181q-27 -217 -174 -347t-439 -130h-540l186 1536
h533z" />
    <glyph glyph-name="C" unicode="C" horiz-adv-x="1290" 
d="M864 1573q299 0 445 -68l-43 -362q-219 94 -443 94q-279 0 -336 -469t222 -469q223 0 465 94l-46 -362q-164 -68 -460 -68q-176 1 -294 59t-174 164q-121 228 -67 582q47 385 219 595t512 210z" />
    <glyph glyph-name="D" unicode="D" horiz-adv-x="1374" 
d="M588 336q166 0 249 113t107 319t-30 320q-54 112 -220 112h-129l-106 -864h129zM729 1536q189 0 317 -58t186 -162q123 -220 71 -548q-39 -340 -209 -554t-551 -214h-471l186 1536h471z" />
    <glyph glyph-name="E" unicode="E" horiz-adv-x="1220" 
d="M1114 961l-41 -338h-581l-37 -287h641l-39 -336h-985l186 1536h985l-41 -336h-641l-29 -239h582z" />
    <glyph glyph-name="F" unicode="F" horiz-adv-x="1177" 
d="M1100 961l-41 -338h-563l-76 -623h-348l186 1536h973l-41 -336h-625l-28 -239h563z" />
    <glyph glyph-name="G" unicode="G" horiz-adv-x="1380" 
d="M668 -37q-176 1 -295 59t-175 164q-117 222 -65 582q74 597 423 748q132 57 308 57q303 0 471 -84l-43 -359q-252 106 -469 107q-281 0 -338 -469t224 -469q88 0 168 12l32 264h-272l41 338h618l-102 -837q-254 -113 -526 -113z" />
    <glyph glyph-name="H" unicode="H" horiz-adv-x="1388" 
d="M1194 0h-348l76 623h-426l-76 -623h-348l186 1536h348l-69 -575h426l69 575h348z" />
    <glyph glyph-name="I" unicode="I" horiz-adv-x="657" 
d="M442 0h-350l187 1536h350z" />
    <glyph glyph-name="J" unicode="J" horiz-adv-x="868" 
d="M260 299q84 0 90 68l144 1169h346l-146 -1194q-45 -379 -475 -379q-129 0 -229 37l39 334q106 -35 231 -35z" />
    <glyph glyph-name="K" unicode="K" horiz-adv-x="1454" 
d="M922 0l-344 584l-105 -109l-57 -475h-344l186 1536h344l-72 -588l529 588h459l-678 -688l542 -848h-460z" />
    <glyph glyph-name="L" unicode="L" horiz-adv-x="1146" 
d="M604 1536l-147 -1200h606l-39 -336h-952l186 1536h346z" />
    <glyph glyph-name="M" unicode="M" horiz-adv-x="1703" 
d="M1270 786l-336 -602h-246l-188 600l-84 -784h-344l186 1536h360l256 -836l461 836h361l-187 -1536h-344z" />
    <glyph glyph-name="N" unicode="N" horiz-adv-x="1404" 
d="M1210 0h-272l-430 827l-96 -827h-340l186 1536h272l431 -827l96 827h340z" />
    <glyph glyph-name="O" unicode="O" horiz-adv-x="1417" 
d="M797 1237q-154 -1 -215 -107q-62 -106 -94 -362t4 -362t192 -106q154 0 215 106q61 108 85 313t23 309q-6 209 -210 209zM640 -37q-156 0 -261 47q-106 47 -162 119q-55 71 -80 183t-22 216q8 422 133 696q51 112 124 184q74 72 192 118q118 47 252 47q233 0 366 -89
q156 -109 178 -382q10 -145 -10 -307q-20 -163 -44 -267t-75 -216t-124 -184t-192 -118q-119 -47 -275 -47z" />
    <glyph glyph-name="P" unicode="P" horiz-adv-x="1241" 
d="M698 864q184 0 207 168t-166 168h-172l-41 -336h172zM778 1536q287 0 403 -142t89 -362q-28 -220 -178 -363q-150 -142 -437 -143h-170l-63 -526h-350l186 1536h520z" />
    <glyph glyph-name="Q" unicode="Q" horiz-adv-x="1417" 
d="M797 1237q-154 -1 -215 -107q-62 -106 -94 -362t4 -362t192 -106q154 0 215 106q61 108 85 313t23 309q-6 209 -210 209zM816 1573q233 0 366 -89q156 -109 178 -382q10 -145 -14 -334q-55 -454 -236 -635l344 -72l-41 -335l-969 262q-122 34 -198 112t-101 182
q-53 221 -12 486q16 136 40 240t75 216t124 184q74 72 192 118q118 47 252 47z" />
    <glyph glyph-name="R" unicode="R" horiz-adv-x="1355" 
d="M731 913q96 0 132 37t44 108q7 70 -19 106t-122 36h-203l-35 -287h203zM782 1536q297 0 407 -122t81 -355q-20 -152 -76 -251t-174 -159l264 -649h-416l-213 575h-168l-69 -575h-346l186 1536h524z" />
    <glyph glyph-name="S" unicode="S" horiz-adv-x="1269" 
d="M540 -37q-138 0 -284 31t-219 72l45 360q68 -43 199 -85t266 -42q248 0 270 180q8 68 -34 100t-152 44q-289 37 -392 136t-77 328q17 150 94 262q92 137 282 193q105 31 240 31q250 0 445 -92l-45 -365q-244 121 -445 121t-221 -150q-8 -59 42 -85t169 -41
q266 -33 374 -133t77 -347q-24 -202 -162 -350q-74 -78 -204 -123t-268 -45z" />
    <glyph glyph-name="T" unicode="T" horiz-adv-x="1218" 
d="M1235 1200h-367l-145 -1200h-350l145 1200h-366l41 336h1083z" />
    <glyph glyph-name="U" unicode="U" horiz-adv-x="1400" 
d="M676 303q233 0 260 229l123 1004h344l-125 -1028q-16 -134 -70 -236t-124 -159q-69 -57 -184 -104t-266 -46q-152 0 -256 46q-104 45 -158 103t-84 160t-13 236l125 1028h344l-123 -1004q-26 -229 207 -229z" />
    <glyph glyph-name="V" unicode="V" horiz-adv-x="1404" 
d="M711 580l407 956h377l-735 -1552h-242l-358 1552h377z" />
    <glyph glyph-name="W" unicode="W" horiz-adv-x="1781" 
d="M561 702l305 834h299l101 -834l241 834h369l-524 -1552h-305l-111 897l-328 -897h-305l-147 1552h368z" />
    <glyph glyph-name="X" unicode="X" horiz-adv-x="1495" 
d="M813 1057l348 479h420l-592 -762l414 -774h-424l-236 485l-350 -485h-424l602 778l-407 758h420z" />
    <glyph glyph-name="Y" unicode="Y" horiz-adv-x="1515" 
d="M1616 1536l-670 -911l-76 -625h-348l76 625l-448 911h409l252 -584l395 584h410z" />
    <glyph glyph-name="Z" unicode="Z" horiz-adv-x="1277" 
d="M1155 0h-1155l27 223l770 977h-617l41 336h1096l-27 -223l-772 -977h676z" />
    <glyph glyph-name="bracketleft" unicode="[" horiz-adv-x="681" 
d="M590 1335l-174 -1421h131l-41 -336h-477l256 2093h477l-41 -336h-131z" />
    <glyph glyph-name="backslash" unicode="\" horiz-adv-x="1081" 
d="M967 -422h-363l-463 2093h363z" />
    <glyph glyph-name="bracketright" unicode="]" horiz-adv-x="681" 
d="M119 -86l174 1421h-131l41 336h477l-256 -2093h-477l41 336h131z" />
    <glyph glyph-name="asciicircum" unicode="^" horiz-adv-x="1105" 
d="M600 1536h197l319 -512h-303l-156 172l-200 -172h-303z" />
    <glyph glyph-name="underscore" unicode="_" horiz-adv-x="655" 
d="M569 -193l-39 -319h-653l39 319h653z" />
    <glyph glyph-name="grave" unicode="`" horiz-adv-x="1105" 
d="M694 1178h-217l-252 358h350z" />
    <glyph glyph-name="a" unicode="a" horiz-adv-x="1185" 
d="M614 756q-168 0 -198 -244t139 -244q88 0 141 17l23 6l53 442q-74 23 -158 23zM647 1061q66 -1 143 -21t113 -49l15 33h217l-123 -1024h-217l-9 33q-43 -29 -126 -49t-148 -21q-258 0 -356 132t-64 417q35 285 166 417t389 132z" />
    <glyph glyph-name="b" unicode="b" horiz-adv-x="1185" 
d="M569 268q170 0 201 244t-141 244q-86 0 -142 -17l-20 -6l-53 -442q72 -23 155 -23zM674 1061q258 0 356 -132t64 -417t-166 -417q-131 -132 -389 -132q-66 1 -144 21t-114 49l-13 -33h-217l187 1536h327l-61 -502q86 27 170 27z" />
    <glyph glyph-name="c" unicode="c" horiz-adv-x="1003" 
d="M629 1061q201 0 344 -51l-39 -320q-178 58 -330 58t-180 -236t123 -236q152 0 342 58l-39 -320q-154 -51 -356 -51q-252 -1 -342 143t-60 406q66 549 537 549z" />
    <glyph glyph-name="d" unicode="d" horiz-adv-x="1185" 
d="M614 756q-168 0 -198 -244t139 -244q88 0 141 17l23 6l53 442q-74 23 -158 23zM647 1061q82 0 162 -27l61 502h328l-186 -1536h-217l-9 33q-43 -29 -126 -49t-148 -21q-258 0 -356 132t-64 417q35 285 166 417t389 132z" />
    <glyph glyph-name="e" unicode="e" horiz-adv-x="1112" 
d="M612 758q-127 0 -178 -131h162q61 0 86 16t29 49q4 34 -17 50t-82 16zM498 -37q-254 0 -345 143q-91 144 -61 404t164 405q133 145 396 145t343 -123q37 -59 46 -115t1 -128t-30 -120q-56 -119 -218 -155q-95 -22 -237 -22h-154q6 -59 34 -88t87 -33q184 -14 426 52
l-37 -310q-161 -55 -415 -55z" />
    <glyph glyph-name="f" unicode="f" horiz-adv-x="901" 
d="M748 1573q127 0 217 -31l-39 -315q-98 31 -215 30q-78 0 -88 -75l-21 -158h262l-37 -303h-262l-149 -1233h-326l150 1233h-166l30 244l172 49l23 192q45 367 449 367z" />
    <glyph glyph-name="g" unicode="g" horiz-adv-x="1165" 
d="M614 756q-168 0 -198 -244t139 -244q88 0 141 17l23 6l53 442q-74 23 -158 23zM647 1061q66 -1 143 -21t113 -49l15 33h217l-131 -1090q-59 -483 -535 -483q-283 0 -459 68l41 331q209 -84 455 -86q82 -2 119 31t47 105l10 90q-92 -27 -170 -27q-258 0 -356 132t-64 417
q35 285 166 417t389 132z" />
    <glyph glyph-name="h" unicode="h" horiz-adv-x="1165" 
d="M645 748q-119 0 -180 -31l-86 -717h-328l187 1536h327l-61 -506q117 31 219 31q225 0 303 -108t53 -298l-78 -655h-329l76 637q16 111 -103 111z" />
    <glyph glyph-name="i" unicode="i" horiz-adv-x="655" 
d="M207 1320q9 83 73 139q64 57 146 57t131 -56t40 -139q-9 -82 -73 -138q-64 -57 -145 -57q-82 0 -132 56t-40 138zM391 -16q-139 0 -219 72t-61 216l90 752h325l-80 -666q-4 -31 12 -46t64 -15l-37 -313h-94z" />
    <glyph glyph-name="j" unicode="j" horiz-adv-x="618" 
d="M537 1183q-63 -57 -145 -57t-133 56q-50 56 -40 138q9 83 73 139q64 57 146 57t131 -56t40 -139q-9 -82 -72 -138zM-188 -549l36 305q96 0 157 35q60 35 67 90l139 1143h328l-142 -1159q-25 -205 -195 -309t-390 -105z" />
    <glyph glyph-name="k" unicode="k" horiz-adv-x="1177" 
d="M766 1024h461l-514 -434l393 -590h-434l-230 362l-24 -20l-41 -342h-326l187 1536h325l-96 -780z" />
    <glyph glyph-name="l" unicode="l" horiz-adv-x="655" 
d="M391 -16q-139 0 -219 72t-61 216l153 1264h326l-144 -1178q-4 -31 12 -46t64 -15l-37 -313h-94z" />
    <glyph glyph-name="m" unicode="m" horiz-adv-x="1687" 
d="M1206 748q-78 0 -170 -29q0 -18 -4 -51l-80 -668h-329l79 666q10 82 -69 82q-88 0 -166 -29l-86 -719h-330l123 1024h217l6 -33q37 20 133 45t160 25q174 0 252 -66q10 0 16 6q156 59 304 60q216 -1 290 -103t52 -294l-80 -664h-330l80 666q10 82 -68 82z" />
    <glyph glyph-name="n" unicode="n" 
d="M746 1061q388 0 335 -406l-77 -655h-330l76 637q16 111 -103 111t-180 -31l-86 -717h-330l123 1024h217l6 -33q145 70 349 70z" />
    <glyph glyph-name="o" unicode="o" horiz-adv-x="1159" 
d="M564 266q82 0 121 64q63 101 59 302q-2 126 -148 126q-82 0 -122 -65t-50 -156t-9 -145t34 -90t115 -36zM144 116q-89 153 -52 396q32 254 147 393q127 156 404 156q276 0 367 -142q90 -143 58 -399t-146 -400q-124 -157 -407 -157q-282 0 -371 153z" />
    <glyph glyph-name="p" unicode="p" horiz-adv-x="1185" 
d="M569 268q170 0 201 244t-141 244q-86 0 -142 -17l-20 -6l-53 -442q72 -23 155 -23zM539 -37q-82 0 -162 27l-62 -502h-327l186 1536h217l6 -33q45 29 128 49t149 21q258 0 356 -132t64 -417t-166 -417q-131 -132 -389 -132z" />
    <glyph glyph-name="q" unicode="q" horiz-adv-x="1185" 
d="M614 756q-168 0 -198 -244t139 -244q88 0 141 17l23 6l53 442q-74 23 -158 23zM512 -37q-258 0 -356 132t-64 417q35 285 166 417t389 132q66 -1 143 -21t113 -49l15 33h217l-187 -1536h-327l61 502q-86 -27 -170 -27z" />
    <glyph glyph-name="r" unicode="r" horiz-adv-x="849" 
d="M656 1061q138 0 186 -27l-37 -307q-128 37 -260 9q-57 -11 -78 -21l-86 -715h-330l123 1024h217l6 -33q121 70 259 70z" />
    <glyph glyph-name="s" unicode="s" horiz-adv-x="1024" 
d="M567 748q-125 0 -129 -56q-9 -39 88 -45q233 -23 319 -92q85 -71 65 -229t-146 -260q-125 -102 -358 -103q-84 0 -203 23t-162 45l41 329q68 -32 180 -58t195 -26q125 0 129 56q9 39 -88 45q-233 23 -319 92q-85 71 -65 229t146 260q125 102 358 103q78 -1 180 -19
t152 -41l-41 -331q-53 26 -163 52t-179 26z" />
    <glyph glyph-name="t" unicode="t" horiz-adv-x="901" 
d="M739 295l-39 -313q-68 -18 -149 -19q-211 0 -296 93t-62 280l47 385h-166l30 244l172 49l25 211l338 94l-37 -295h262l-37 -303h-262l-43 -367q-10 -76 70 -75q79 0 147 16z" />
    <glyph glyph-name="u" unicode="u" 
d="M422 -37q-205 0 -283 108t-55 298l80 655h330l-76 -637q-16 -111 102 -111t180 31l86 717h330l-123 -1024h-217l-8 33q-141 -70 -346 -70z" />
    <glyph glyph-name="v" unicode="v" horiz-adv-x="1095" 
d="M547 489l219 535h360l-526 -1040h-231l-277 1040h357z" />
    <glyph glyph-name="w" unicode="w" horiz-adv-x="1423" 
d="M915 1024l56 -455l139 455h344l-414 -1040h-252l-77 503l-203 -503h-252l-164 1040h346l33 -453l160 453h284z" />
    <glyph glyph-name="x" unicode="x" horiz-adv-x="1189" 
d="M565 262l-205 -262h-401l442 526l-301 498h400l129 -242l182 242h401l-417 -498l313 -526h-403z" />
    <glyph glyph-name="y" unicode="y" 
d="M520 276q118 0 180 31l86 717h330l-131 -1090q-59 -483 -534 -483q-283 0 -459 68l41 331q217 -86 454 -86q82 0 119 32t47 104l11 92q-125 -29 -222 -29q-225 0 -303 108t-55 298l80 655h330l-76 -637q-16 -111 102 -111z" />
    <glyph glyph-name="z" unicode="z" horiz-adv-x="958" 
d="M846 0h-856l24 217l449 494h-363l37 313h815l-24 -217l-449 -494h404z" />
    <glyph glyph-name="braceleft" unicode="{" horiz-adv-x="636" 
d="M158 766q20 0 22 25l39 593q8 148 96 218t230 69h172l-41 -336h-84q-23 0 -23 -22l-34 -533q-8 -86 -72 -155q47 -72 33 -156l-95 -532q-4 -23 17 -23h84l-41 -336h-172q-141 0 -212 70t-44 217l106 594q4 25 -16 24h-80l35 283h80z" />
    <glyph glyph-name="bar" unicode="|" horiz-adv-x="657" 
d="M389 -422h-350l256 2093h350z" />
    <glyph glyph-name="braceright" unicode="}" horiz-adv-x="636" 
d="M541 766h80l-35 -283h-80q-20 0 -21 -24l-41 -594q-8 -147 -96 -217t-229 -70h-172l41 336h84q25 0 24 23l33 532q6 82 72 156q-49 74 -33 155l96 533q4 23 -18 22h-84l41 336h172q141 1 212 -69t44 -218l-105 -593q-8 -25 15 -25z" />
    <glyph glyph-name="asciitilde" unicode="~" horiz-adv-x="757" 
d="M549 655q-43 -1 -88 -31t-101 -61t-136 -31t-142 70l37 291q63 -51 147 -51q43 0 88 30q44 30 100 62q56 31 121 31q97 0 158 -70l-37 -291q-63 51 -147 51z" />
    <glyph glyph-name="exclamdown" unicode="&#xa1;" horiz-adv-x="491" 
d="M313 1061q82 0 131 -56q49 -57 40 -139q-10 -82 -74 -138t-146 -56t-131 56t-39 139t74 139t145 55zM137 594h238l-62 -1106h-383z" />
    <glyph glyph-name="cent" unicode="&#xa2;" horiz-adv-x="1228" 
d="M160 768q29 236 162 396t350 188l86 184h354l-104 -203q90 -14 135 -35l-37 -305q-61 27 -175 43t-211 8q-98 -8 -158 -85t-74 -191t27 -192q42 -76 137 -84t213 8t186 43l-37 -305q-62 -27 -190 -43t-212 -17h-26l-80 -178h-350l141 285q-176 161 -137 483z" />
    <glyph glyph-name="sterling" unicode="&#xa3;" horiz-adv-x="1228" 
d="M792 1257q-76 1 -124 -25q-47 -26 -52 -69l-26 -215h463l-39 -311h-463l-39 -324h610l-37 -313h-1065l37 313h127l39 324h-127l39 311h127l27 215q27 215 151 313q125 97 375 97q90 -1 217 -17t201 -47l-39 -319q-72 33 -199 50t-203 17z" />
    <glyph glyph-name="currency" unicode="&#xa4;" horiz-adv-x="1228" 
d="M890 1270q-171 0 -253 -152h422l-148 -321h-364l-8 -58h344l-148 -321h-186q45 -152 217 -152t352 60l-37 -308q-170 -55 -360 -55q-242 1 -368 107t-150 348h-150l39 321h119l8 58h-119l39 321h150q82 242 234 348q153 106 368 106t373 -54l-37 -308q-166 60 -337 60z
" />
    <glyph glyph-name="yen" unicode="&#xa5;" horiz-adv-x="1228" 
d="M139 1118h129l-139 418h389l152 -563l291 563h389l-242 -418h129l-39 -321h-276l-35 -58h303l-39 -321h-375l-49 -418h-348l49 418h-375l39 321h303l-18 58h-277z" />
    <glyph glyph-name="brokenbar" unicode="&#xa6;" horiz-adv-x="657" 
d="M506 537l-117 -959h-350l117 959h350zM178 713l117 958h350l-117 -958h-350z" />
    <glyph glyph-name="section" unicode="&#xa7;" horiz-adv-x="1433" 
d="M941 593q-43 28 -157 46t-188 39q-127 -53 -141 -160q-8 -57 37 -86t148 -45t196 -41q129 53 143 160q6 59 -38 87zM942 1573q279 0 449 -80l-43 -363q-219 109 -449 109q-121 0 -171 -37t-58 -100t43 -90t189 -45q138 -19 232 -53q93 -34 141 -88t57 -130t-3 -180
q-29 -244 -227 -375q24 -89 12 -195t-45 -180t-99 -150q-66 -75 -190 -120q-123 -45 -288 -45q-279 0 -449 80l43 363q219 -109 449 -109q121 0 171 37t58 100t-43 90t-189 45q-138 19 -232 53q-179 66 -199 218q-9 76 3 180q29 244 226 375q-26 77 -12 189t47 186
q139 314 577 315z" />
    <glyph glyph-name="dieresis" unicode="&#xa8;" horiz-adv-x="1105" 
d="M725 1321q11 82 73 138q62 57 144 57t132 -56t40 -139q-10 -82 -74 -138q-64 -57 -146 -57q-83 0 -131 56t-38 139zM233 1321q11 82 73 138q62 57 144 57t133 -56q50 -56 40 -139q-9 -82 -73 -138q-64 -57 -148 -57t-131 56q-48 56 -38 139z" />
    <glyph glyph-name="copyright" unicode="&#xa9;" horiz-adv-x="1392" 
d="M710 428q-54 0 -68 18q-15 18 -9 66q10 84 84 84q68 0 203 -35l30 248q-119 29 -215 29q-157 0 -241 -75t-106 -251t45 -251t224 -75q94 0 220 29l30 248q-143 -35 -197 -35zM361 956q164 105 403 105t378 -105q155 -118 114 -445t-225 -443q-164 -105 -402 -105
q-240 0 -378 105q-156 119 -115 444q41 326 225 444z" />
    <glyph glyph-name="ordfeminine" unicode="&#xaa;" horiz-adv-x="942" 
d="M533 1020q49 0 112 29l27 225q-62 29 -108 29t-75 -29t-39 -113q-10 -85 12 -113t71 -28zM498 752q-193 0 -267 101t-49 308t124 308t292 102q94 0 188 -58l15 23h166l-93 -750h-165l-9 23q-100 -57 -202 -57z" />
    <glyph glyph-name="guillemotleft" unicode="&#xab;" horiz-adv-x="1013" 
d="M489 418l25 188l426 307l-35 -280l-135 -121l107 -121l-35 -282zM100 418l25 188l426 307l-35 -280l-135 -121l106 -121l-34 -282z" />
    <glyph glyph-name="logicalnot" unicode="&#xac;" horiz-adv-x="1351" 
d="M1126 0h-1024l123 1024h1024z" />
    <glyph glyph-name="uni00AD" unicode="&#xad;" horiz-adv-x="757" 
d="M735 858l-39 -319h-626l39 319h626z" />
    <glyph glyph-name="registered" unicode="&#xae;" horiz-adv-x="704" 
d="M465 1360h-53l-6 -51h53q24 -1 28 28q4 23 -22 23zM479 1444q117 0 103 -107q-6 -66 -50 -92l41 -129h-98l-31 109h-49l-12 -109h-86l39 328h143zM471 1483q-99 0 -155 -41t-71 -162t31 -162t146 -41t155 40q54 40 70 163q14 123 -31 163t-145 40zM481 1573
q135 1 209 -63t53 -230q-37 -293 -333 -293q-135 -1 -208 63t-52 230q20 166 108 230t223 63z" />
    <glyph glyph-name="macron" unicode="&#xaf;" horiz-adv-x="1105" 
d="M1022 1536l-41 -319h-561l41 319h561z" />
    <glyph glyph-name="degree" unicode="&#xb0;" horiz-adv-x="749" 
d="M477 1346q-66 0 -71 -66q-8 -66 55 -66t71 66q6 66 -55 66zM432 987q-127 0 -205 68q-79 67 -59 225t114 226t222 67q129 0 206 -68q78 -67 58 -225t-114 -226t-222 -67z" />
    <glyph glyph-name="plusminus" unicode="&#xb1;" horiz-adv-x="1064" 
d="M43 0l39 319h856l-39 -319h-856zM676 371h-320l33 268h-268l39 319h268l31 269h319l-30 -269h268l-39 -319h-268z" />
    <glyph glyph-name="acute" unicode="&#xb4;" horiz-adv-x="1105" 
d="M694 1178h-217l209 358h350z" />
    <glyph glyph-name="mu" unicode="&#xb5;" horiz-adv-x="1177" 
d="M453 -37q-31 0 -76 4l-60 -479h-329l186 1536h330l-78 -647q-6 -101 108 -101t177 31l86 717h329l-122 -1024h-218l-8 33q-141 -70 -325 -70z" />
    <glyph glyph-name="paragraph" unicode="&#xb6;" horiz-adv-x="1257" 
d="M729 1536h520l-186 -1536h-350l63 526h-61l-64 -526h-350l68 561q-156 53 -215 179t-39 292q27 219 177 362q151 142 437 142z" />
    <glyph glyph-name="periodcentered" unicode="&#xb7;" horiz-adv-x="491" 
d="M84 768q10 82 72 138t145 56q82 0 132 -56t40 -138q-9 -82 -73 -138t-147 -56t-131 56t-38 138z" />
    <glyph glyph-name="cedilla" unicode="&#xb8;" horiz-adv-x="1232" 
d="M588 -379h-291q53 41 77 87t-9 75q-115 66 30 217h228q-92 -99 -17 -145q58 -35 62 -84q8 -78 -80 -150z" />
    <glyph glyph-name="ordmasculine" unicode="&#xba;" horiz-adv-x="960" 
d="M539 1020q59 0 87 34t37 108t-11 106t-80 32q-58 0 -86 -34t-36 -106t10 -106q20 -34 79 -34zM506 752q-188 0 -263 102t-50 307q47 408 413 408q188 1 263 -101t53 -307q-49 -409 -416 -409z" />
    <glyph glyph-name="guillemotright" unicode="&#xbb;" horiz-adv-x="1013" 
d="M524 606l-24 -188l-426 -309l35 282l133 121l-105 121l35 280zM913 606l-24 -188l-426 -309l35 282l133 121l-105 121l35 280z" />
    <glyph glyph-name="questiondown" unicode="&#xbf;" horiz-adv-x="1024" 
d="M618 672q-82 0 -131 56t-38 138q10 82 73 138q62 56 146 57q84 -1 132 -57t38 -138t-74 -138t-146 -56zM453 35q-45 -15 -69 -27t-48 -39t-29 -79q-6 -52 27 -82q33 -32 166 -32t358 79l-41 -334q-73 -29 -187 -49t-216 -20t-197 25q-94 27 -143 69q-106 92 -108 222
q-4 254 101 388q54 69 198 132q46 19 134 52q59 23 81 79t9 175h273q14 -100 1 -214t-83 -201t-227 -144z" />
    <glyph glyph-name="Agrave" unicode="&#xc0;" horiz-adv-x="1415" 
d="M799 705l-37 237l-100 -237h137zM940 1690h-176l-254 358h309zM354 0h-374l739 1573h239l355 -1573h-373l-74 371h-348z" />
    <glyph glyph-name="Aacute" unicode="&#xc1;" horiz-adv-x="1402" 
d="M793 705l-37 237l-101 -237h138zM954 1690h-217l207 358h350zM348 0h-375l738 1552h239l357 -1552h-373l-74 371h-348z" />
    <glyph glyph-name="Acircumflex" unicode="&#xc2;" horiz-adv-x="1402" 
d="M793 705l-37 237l-101 -237h138zM1210 1690h-237l-115 98l-139 -98h-238l299 358h217zM348 0h-375l738 1552h239l357 -1552h-373l-74 371h-348z" />
    <glyph glyph-name="Atilde" unicode="&#xc3;" horiz-adv-x="1402" 
d="M725 2095q76 0 130 -37q54 -38 91 -74t74 -36q92 0 102 96h224l-5 -41q-23 -182 -109 -270t-218 -88q-76 1 -130 37t-91 73t-74 37q-88 0 -103 -96h-223l6 41q45 358 326 358zM795 705l-39 237l-99 -237h138zM348 0h-375l740 1552h239l355 -1552h-373l-74 371h-348z" />
    <glyph glyph-name="Adieresis" unicode="&#xc4;" horiz-adv-x="1402" 
d="M793 705l-37 237l-101 -237h138zM915 1833q11 82 73 138q62 57 144 57t133 -56q50 -56 40 -139q-9 -82 -73 -138q-64 -57 -148 -57t-131 56q-48 56 -38 139zM424 1833q10 82 72 138q62 57 145 57q82 0 132 -56t40 -139q-9 -82 -73 -138q-64 -57 -147 -57t-131 56t-38 139
zM348 0h-375l738 1552h239l357 -1552h-373l-74 371h-348z" />
    <glyph glyph-name="Aring" unicode="&#xc5;" horiz-adv-x="1402" 
d="M876 1915q-45 0 -53 -47q-2 -43 43 -43t47 43q8 47 -37 47zM795 705l-39 237l-99 -237h138zM843 1653q-101 0 -154 54q-52 54 -39 162t78 162t166 54t153 -54q52 -53 39 -161t-77 -163q-65 -54 -166 -54zM348 0h-375l740 1552h239l355 -1552h-373l-74 371h-348z" />
    <glyph glyph-name="AE" unicode="&#xc6;" horiz-adv-x="2203" 
d="M1065 961h125l22 198zM2116 961l-41 -338h-582l-37 -287h641l-39 -336h-985l76 623h-338l-465 -623h-407l1196 1536h1110l-41 -336h-641l-29 -239h582z" />
    <glyph glyph-name="Ccedilla" unicode="&#xc7;" horiz-adv-x="1290" 
d="M864 1573q299 0 445 -68l-43 -362q-219 94 -443 94q-279 0 -336 -469t222 -469q223 0 465 94l-46 -362q-141 -59 -376 -66q-45 -73 14 -109t63 -85q6 -79 -79 -150h-291q53 41 78 87t-9 75q-104 61 4 190q-178 29 -278 138t-122 275t1 382q47 385 219 595t512 210z" />
    <glyph glyph-name="Egrave" unicode="&#xc8;" horiz-adv-x="1220" 
d="M879 1690h-217l-254 358h350zM1114 961l-41 -338h-581l-37 -287h641l-39 -336h-985l186 1536h985l-41 -336h-641l-29 -239h582z" />
    <glyph glyph-name="Eacute" unicode="&#xc9;" horiz-adv-x="1220" 
d="M881 1690h-217l206 358h351zM1114 961l-41 -338h-581l-37 -287h641l-39 -336h-985l186 1536h985l-41 -336h-641l-29 -239h582z" />
    <glyph glyph-name="Ecircumflex" unicode="&#xca;" horiz-adv-x="1220" 
d="M1135 1690h-238l-115 98l-139 -98h-237l299 358h217zM1114 961l-41 -338h-581l-37 -287h641l-39 -336h-985l186 1536h985l-41 -336h-641l-29 -239h582z" />
    <glyph glyph-name="Edieresis" unicode="&#xcb;" horiz-adv-x="1220" 
d="M348 1833q10 82 72 138q62 57 145 57q82 0 132 -56t40 -139q-10 -82 -73 -138q-62 -57 -146 -57t-132 56t-38 139zM840 1833q10 82 72 138q62 57 144 57t133 -56q50 -56 40 -139q-9 -82 -73 -138q-64 -57 -147 -57t-131 56t-38 139zM1114 961l-41 -338h-581l-37 -287h641
l-39 -336h-985l186 1536h985l-41 -336h-641l-29 -239h582z" />
    <glyph glyph-name="Igrave" unicode="&#xcc;" horiz-adv-x="657" 
d="M582 1690h-217l-254 358h350zM442 0h-350l187 1536h350z" />
    <glyph glyph-name="Iacute" unicode="&#xcd;" horiz-adv-x="657" 
d="M582 1690h-217l206 358h351zM442 0h-350l187 1536h350z" />
    <glyph glyph-name="Icircumflex" unicode="&#xce;" horiz-adv-x="657" 
d="M838 1690h-238l-115 98l-139 -98h-237l299 358h217zM442 0h-350l187 1536h350z" />
    <glyph glyph-name="Idieresis" unicode="&#xcf;" horiz-adv-x="657" 
d="M51 1833q11 82 73 138q62 57 144 57t132 -56t40 -139q-10 -82 -73 -138q-63 -57 -147 -57t-131 56q-48 56 -38 139zM543 1833q10 82 72 138q63 57 145 57t132 -56t40 -139q-10 -82 -74 -138q-64 -57 -146 -57q-83 0 -131 56t-38 139zM442 0h-350l187 1536h350z" />
    <glyph glyph-name="Eth" unicode="&#xd0;" horiz-adv-x="1423" 
d="M680 336q166 0 248 113t108 319t-30 318q-55 114 -222 114h-129l-32 -278h245l-37 -299h-245l-35 -287h129zM821 1536q189 0 317 -58t186 -162q123 -220 71 -548q-46 -346 -205 -546q-177 -222 -557 -222h-471l76 623h-172l36 299h172l76 614h471z" />
    <glyph glyph-name="Ntilde" unicode="&#xd1;" horiz-adv-x="1404" 
d="M725 2095q76 0 130 -37q54 -38 91 -74t74 -36q92 0 102 96h224l-5 -41q-23 -182 -109 -270t-218 -88q-76 1 -130 37t-91 73t-74 37q-88 0 -103 -96h-223l6 41q45 358 326 358zM1210 0h-272l-430 827l-96 -827h-340l188 1536h272l429 -827l98 827h340z" />
    <glyph glyph-name="Ograve" unicode="&#xd2;" horiz-adv-x="1417" 
d="M961 1690h-218l-254 358h351zM797 1237q-154 -1 -215 -107q-62 -106 -94 -362t4 -362t192 -106q154 0 215 106q61 108 85 313t23 309q-6 209 -210 209zM640 -37q-156 0 -261 47q-106 47 -162 119q-55 71 -80 183t-22 216q8 422 133 696q51 112 124 184q74 72 192 118
q118 47 252 47q233 0 366 -89q156 -109 178 -382q10 -145 -10 -307q-20 -163 -44 -267t-75 -216t-124 -184t-192 -118q-119 -47 -275 -47z" />
    <glyph glyph-name="Oacute" unicode="&#xd3;" horiz-adv-x="1417" 
d="M961 1690h-218l207 358h350zM797 1237q-154 -1 -215 -107q-62 -106 -94 -362t4 -362t192 -106q154 0 215 106q61 108 85 313t23 309q-6 209 -210 209zM640 -37q-156 0 -261 47q-106 47 -162 119q-55 71 -80 183t-22 216q8 422 133 696q51 112 124 184q74 72 192 118
q118 47 252 47q233 0 366 -89q156 -109 178 -382q10 -145 -10 -307q-20 -163 -44 -267t-75 -216t-124 -184t-192 -118q-119 -47 -275 -47z" />
    <glyph glyph-name="Ocircumflex" unicode="&#xd4;" horiz-adv-x="1417" 
d="M1217 1690h-238l-115 98l-139 -98h-238l299 358h218zM797 1237q-154 -1 -215 -107q-62 -106 -94 -362t4 -362t192 -106q154 0 215 106q61 108 85 313t23 309q-6 209 -210 209zM640 -37q-156 0 -261 47q-106 47 -162 119q-55 71 -80 183t-22 216q8 422 133 696
q51 112 124 184q74 72 192 118q118 47 252 47q233 0 366 -89q156 -109 178 -382q10 -145 -10 -307q-20 -163 -44 -267t-75 -216t-124 -184t-192 -118q-119 -47 -275 -47z" />
    <glyph glyph-name="Otilde" unicode="&#xd5;" horiz-adv-x="1417" 
d="M731 2095q76 0 130 -37q54 -38 91 -74t74 -36q92 0 102 96h224l-4 -41q-23 -182 -109 -270t-219 -88q-76 1 -130 37t-91 73t-74 37q-88 0 -102 -96h-224l7 41q45 358 325 358zM683 299q155 -1 216 107t93 363t-4 361t-190 106t-216 -107q-61 -108 -93 -361
q-39 -233 0 -351t194 -118zM640 -37q-156 0 -261 47q-106 47 -162 119q-55 71 -79 183t-21 216q8 422 133 696q51 112 124 184q74 72 192 118q118 47 252 47q233 0 366 -89q156 -109 178 -382q10 -145 -10 -308q-20 -164 -45 -266t-76 -215t-124 -185t-192 -118
q-119 -47 -275 -47z" />
    <glyph glyph-name="Odieresis" unicode="&#xd6;" horiz-adv-x="1417" 
d="M922 1833q10 82 72 138q62 57 144 57t133 -56q50 -56 40 -139q-9 -82 -73 -138q-64 -57 -147 -57t-131 56t-38 139zM430 1833q10 82 72 138q62 57 145 57q82 0 132 -56t40 -139q-9 -82 -73 -138q-64 -57 -147 -57t-131 56t-38 139zM797 1237q-154 -1 -215 -107
q-62 -106 -94 -362t4 -362t192 -106q154 0 215 106q61 108 85 313t23 309q-6 209 -210 209zM640 -37q-156 0 -261 47q-106 47 -162 119q-55 71 -80 183t-22 216q8 422 133 696q51 112 124 184q74 72 192 118q118 47 252 47q233 0 366 -89q156 -109 178 -382
q10 -145 -10 -307q-20 -163 -44 -267t-75 -216t-124 -184t-192 -118q-119 -47 -275 -47z" />
    <glyph glyph-name="multiply" unicode="&#xd7;" horiz-adv-x="1064" 
d="M313 283l-196 225l213 190l-168 191l254 225l166 -190l215 190l196 -225l-213 -191l168 -190l-254 -225l-166 190z" />
    <glyph glyph-name="Oslash" unicode="&#xd8;" horiz-adv-x="1417" 
d="M799 1237q-155 1 -217 -107t-93 -362q-18 -129 -18 -221l473 647q-49 43 -145 43zM682 299q156 -1 217 107t94 362q14 121 15 225l-476 -649q47 -45 150 -45zM864 1573q180 0 301 -78l31 41h211l-121 -164q111 -188 62 -604q-16 -138 -41 -240t-76 -215t-124 -185
t-192 -118q-119 -47 -297 -47t-305 80l-30 -43h-211l121 166q-111 190 -58 602q16 136 40 240t75 216t124 183q169 166 490 166z" />
    <glyph glyph-name="Ugrave" unicode="&#xd9;" horiz-adv-x="1400" 
d="M952 1690h-217l-254 358h350zM676 303q233 0 260 229l123 1004h344l-125 -1028q-16 -134 -70 -236t-124 -159q-69 -57 -184 -104t-266 -46q-152 0 -256 46q-104 45 -158 103t-84 160t-13 236l125 1028h344l-123 -1004q-26 -229 207 -229z" />
    <glyph glyph-name="Uacute" unicode="&#xda;" horiz-adv-x="1400" 
d="M952 1690h-217l207 358h350zM676 303q233 0 260 229l123 1004h344l-125 -1028q-16 -134 -70 -236t-124 -159q-69 -57 -184 -104t-266 -46q-152 0 -256 46q-104 45 -158 103t-84 160t-13 236l125 1028h344l-123 -1004q-26 -229 207 -229z" />
    <glyph glyph-name="Ucircumflex" unicode="&#xdb;" horiz-adv-x="1400" 
d="M1208 1690h-237l-115 98l-139 -98h-238l299 358h217zM676 303q233 0 260 229l123 1004h344l-125 -1028q-16 -134 -70 -236t-124 -159q-69 -57 -184 -104t-266 -46q-152 0 -256 46q-104 45 -158 103t-84 160t-13 236l125 1028h344l-123 -1004q-26 -229 207 -229z" />
    <glyph glyph-name="Udieresis" unicode="&#xdc;" horiz-adv-x="1400" 
d="M422 1833q10 82 72 138q62 57 145 57q82 0 132 -56t40 -139q-9 -82 -73 -138q-64 -57 -147 -57t-131 56t-38 139zM913 1833q11 82 73 138q62 57 144 57t132 -56t41 -139q-9 -82 -73 -138q-64 -57 -148 -57t-131 56q-48 56 -38 139zM676 303q233 0 260 229l123 1004h344
l-125 -1028q-16 -134 -70 -236t-124 -159q-69 -57 -184 -104t-266 -46q-152 0 -256 46q-104 45 -158 103t-84 160t-13 236l125 1028h344l-123 -1004q-26 -229 207 -229z" />
    <glyph glyph-name="Yacute" unicode="&#xdd;" horiz-adv-x="1515" 
d="M1010 1690h-217l206 358h351zM1616 1536l-670 -911l-76 -625h-348l76 625l-448 911h409l252 -584l395 584h410z" />
    <glyph glyph-name="Thorn" unicode="&#xde;" horiz-adv-x="1257" 
d="M666 600q188 0 206 168q23 168 -165 168h-172l-41 -336h172zM745 1272q287 0 403 -142t89 -363q-27 -220 -177 -363q-151 -142 -437 -142h-170l-31 -262h-350l186 1536h350l-33 -264h170z" />
    <glyph glyph-name="germandbls" unicode="&#xdf;" horiz-adv-x="1429" 
d="M774 1270q-100 0 -167 -35t-75 -98l-200 -1649h-320l199 1651q29 225 171 329t427 104t405 -104t91 -329q-21 -170 -91 -251t-245 -130q-59 -16 -68 -60q-4 -24 18 -36t70 -15q233 -23 319 -92q84 -71 64 -229t-145 -260t-359 -103q-84 0 -202 23t-162 45l41 329
q67 -32 179 -58t196 -26q125 0 129 56q9 39 -88 45q-233 23 -319 92t-66 227t88 232t245 121q61 15 69 83t-48 103t-156 35z" />
    <glyph glyph-name="agrave" unicode="&#xe0;" horiz-adv-x="1185" 
d="M770 1178h-217l-254 358h350zM614 756q-168 0 -198 -244t139 -244q88 0 141 17l23 6l53 442q-74 23 -158 23zM647 1061q66 -1 143 -21t113 -49l15 33h217l-123 -1024h-217l-9 33q-43 -29 -126 -49t-148 -21q-258 0 -356 132t-64 417q35 285 166 417t389 132z" />
    <glyph glyph-name="aacute" unicode="&#xe1;" horiz-adv-x="1185" 
d="M770 1178h-217l207 358h350zM614 756q-168 0 -198 -244t139 -244q88 0 141 17l23 6l53 442q-74 23 -158 23zM647 1061q66 -1 143 -21t113 -49l15 33h217l-123 -1024h-217l-9 33q-43 -29 -126 -49t-148 -21q-258 0 -356 132t-64 417q35 285 166 417t389 132z" />
    <glyph glyph-name="acircumflex" unicode="&#xe2;" horiz-adv-x="1185" 
d="M614 756q-168 0 -198 -244t139 -244q88 0 141 17l23 6l53 442q-74 23 -158 23zM1026 1178h-238l-116 98l-137 -98h-238l299 358h217zM647 1061q66 -1 143 -21t113 -49l15 33h217l-123 -1024h-217l-9 33q-43 -29 -126 -49t-148 -21q-258 0 -356 132t-64 417
q35 285 166 417t389 132z" />
    <glyph glyph-name="atilde" unicode="&#xe3;" horiz-adv-x="1185" 
d="M537 1583q59 1 107 -23t73 -51q69 -75 117 -73q90 0 100 96h223l-4 -41q-23 -182 -109 -270t-219 -88q-76 1 -130 37t-91 73t-74 37q-88 0 -102 -96h-223l6 41q45 358 326 358zM614 756q-168 0 -198 -244t139 -244q88 0 141 17l23 6l53 442q-74 23 -158 23zM647 1061
q66 -1 143 -21t113 -49l15 33h217l-123 -1024h-217l-9 33q-43 -29 -126 -49t-148 -21q-258 0 -356 132t-64 417q35 285 166 417t389 132z" />
    <glyph glyph-name="adieresis" unicode="&#xe4;" horiz-adv-x="1185" 
d="M238 1321q10 82 72 138q62 57 144 57t133 -56q50 -56 40 -139q-9 -82 -73 -138q-64 -57 -147 -57t-131 56t-38 139zM729 1321q11 82 73 138q62 57 144 57t132 -56t40 -139q-10 -82 -74 -138q-64 -57 -146 -57q-83 0 -131 56t-38 139zM614 756q-168 0 -198 -244t139 -244
q88 0 141 17l23 6l53 442q-74 23 -158 23zM647 1061q66 -1 143 -21t113 -49l15 33h217l-123 -1024h-217l-9 33q-43 -29 -126 -49t-148 -21q-258 0 -356 132t-64 417q35 285 166 417t389 132z" />
    <glyph glyph-name="aring" unicode="&#xe5;" horiz-adv-x="1185" 
d="M688 1403q-45 0 -51 -45t39 -45t51 45t-39 45zM614 756q-168 0 -198 -244t139 -244q88 0 141 17l23 6l53 442q-74 23 -158 23zM654 1141q-101 0 -153 54t-38 162t79 162t166 54t153 -54q52 -53 38 -161t-79 -162t-166 -55zM647 1061q66 -1 143 -21t113 -49l15 33h217
l-123 -1024h-217l-9 33q-43 -29 -126 -49t-148 -21q-258 0 -356 132t-64 417q35 285 166 417t389 132z" />
    <glyph glyph-name="ae" unicode="&#xe6;" horiz-adv-x="1724" 
d="M502 266q131 0 176 131h-160q-61 0 -86 -16t-29 -49q-4 -34 17 -50t82 -16zM1225 758q-127 0 -178 -131h161q61 0 86 16t29 49q3 34 -17 50t-81 16zM1138 -37q-226 0 -335 98q-127 -98 -339 -98t-306 82q-93 84 -89 184q1 51 3 101q8 72 30 120q57 120 219 155
q95 22 236 22h152q-8 113 -119 121q-184 12 -426 -52l37 310q162 55 387 55t334 -98q131 98 329 98q278 0 357 -124q37 -59 46 -115t1 -128t-31 -120q-57 -119 -218 -155q-95 -22 -237 -22h-153q6 -59 34 -88t87 -33q184 -14 426 52l-37 -310q-162 -55 -388 -55z" />
    <glyph glyph-name="ccedilla" unicode="&#xe7;" horiz-adv-x="1003" 
d="M629 1061q201 0 344 -51l-39 -320q-178 58 -330 58t-180 -236t123 -236q152 0 342 58l-39 -320q-113 -37 -270 -49q-51 -69 10 -107t65 -87q6 -78 -80 -150h-290q53 41 77 87q25 46 -8 75q-104 61 6 192q-328 70 -268 537q66 549 537 549z" />
    <glyph glyph-name="egrave" unicode="&#xe8;" horiz-adv-x="1112" 
d="M612 758q-127 0 -178 -131h162q61 0 86 16t29 49q4 34 -17 50t-82 16zM762 1178h-217l-254 358h350zM498 -37q-254 0 -345 143q-91 144 -61 404t164 405q133 145 396 145t343 -123q37 -59 46 -115t1 -128t-30 -120q-56 -119 -218 -155q-95 -22 -237 -22h-154
q6 -59 34 -88t87 -33q184 -14 426 52l-37 -310q-161 -55 -415 -55z" />
    <glyph glyph-name="eacute" unicode="&#xe9;" horiz-adv-x="1112" 
d="M612 758q-127 0 -178 -131h162q61 0 86 16t29 49q4 34 -17 50t-82 16zM762 1178h-217l207 358h350zM498 -37q-254 0 -345 143q-91 144 -61 404t164 405q133 145 396 145t343 -123q37 -59 46 -115t1 -128t-30 -120q-56 -119 -218 -155q-95 -22 -237 -22h-154q6 -59 34 -88
t87 -33q184 -14 426 52l-37 -310q-161 -55 -415 -55z" />
    <glyph glyph-name="ecircumflex" unicode="&#xea;" horiz-adv-x="1112" 
d="M612 758q-127 0 -178 -131h162q61 0 86 16t29 49q4 34 -17 50t-82 16zM1018 1178h-238l-116 98l-138 -98h-237l299 358h217zM498 -37q-254 0 -345 143q-91 144 -61 404t164 405q133 145 396 145t343 -123q37 -59 46 -115t1 -128t-30 -120q-56 -119 -218 -155
q-95 -22 -237 -22h-154q6 -59 34 -88t87 -33q184 -14 426 52l-37 -310q-161 -55 -415 -55z" />
    <glyph glyph-name="edieresis" unicode="&#xeb;" horiz-adv-x="1112" 
d="M612 758q-127 0 -178 -131h162q61 0 86 16t29 49q4 34 -17 50t-82 16zM721 1320q9 83 73 139q64 57 146 57t131 -56t40 -139q-9 -82 -73 -138q-64 -57 -145 -57q-82 0 -132 56t-40 138zM547 1183q-63 -57 -145 -57t-133 56q-50 56 -40 138q9 83 73 139q64 57 146 57
t132 -56t40 -139q-10 -82 -73 -138zM498 -37q-254 0 -345 143q-91 144 -61 404t164 405q133 145 396 145t343 -123q37 -59 46 -115t1 -128t-30 -120q-56 -119 -218 -155q-95 -22 -237 -22h-154q6 -59 34 -88t87 -33q184 -14 426 52l-37 -310q-161 -55 -415 -55z" />
    <glyph glyph-name="igrave" unicode="&#xec;" horiz-adv-x="655" 
d="M494 1178h-218l-253 358h350zM387 -37q-139 0 -218 73t-63 216l95 772h325l-82 -686q-4 -31 12 -46t64 -16l-39 -313h-94z" />
    <glyph glyph-name="iacute" unicode="&#xed;" horiz-adv-x="655" 
d="M494 1178h-218l207 358h351zM387 -37q-139 0 -218 73t-63 216l95 772h325l-82 -686q-4 -31 12 -46t64 -16l-39 -313h-94z" />
    <glyph glyph-name="icircumflex" unicode="&#xee;" horiz-adv-x="655" 
d="M750 1178h-238l-117 98l-137 -98h-238l299 358h218zM387 -37q-139 0 -218 73t-63 216l95 772h325l-82 -686q-4 -31 12 -46t64 -16l-39 -313h-94z" />
    <glyph glyph-name="idieresis" unicode="&#xef;" horiz-adv-x="655" 
d="M526 1459q64 57 146 57t131 -56t40 -139q-9 -82 -73 -138q-64 -57 -145 -57q-82 0 -132 56t-40 138q10 83 73 139zM279 1183q-63 -57 -145 -57t-133 56q-50 56 -40 138q9 83 73 139q64 57 146 57t131 -56t40 -139q-9 -82 -72 -138zM387 -37q-139 0 -218 73t-63 216
l95 772h325l-82 -686q-4 -31 12 -46t64 -16l-39 -313h-94z" />
    <glyph glyph-name="eth" unicode="&#xf0;" horiz-adv-x="1159" 
d="M566 758q-82 0 -122 -65t-51 -156q-10 -91 -9 -145t35 -90t99 -36q96 0 138 66t50 156q9 90 8 144t-34 90q-32 36 -114 36zM113 117q-88 154 -52 395q32 252 153 400q121 149 402 149q35 0 68 -12q-29 78 -68 141l-299 -143l21 161l197 95q-135 147 -310 233h449
q78 -53 127 -104l219 104l-21 -162l-106 -51q206 -301 143 -811q-31 -248 -145 -392q-124 -157 -407 -157t-371 154z" />
    <glyph glyph-name="ntilde" unicode="&#xf1;" 
d="M543 1583q59 1 107 -23t73 -51q69 -75 117 -73q90 0 100 96h223l-4 -41q-23 -182 -109 -270t-219 -88q-76 1 -130 37t-91 73t-73 37q-88 0 -103 -96h-223l6 41q45 358 326 358zM725 1061q225 0 303 -108t55 -298l-79 -655h-330l78 637q12 111 -106 111t-179 -31l-86 -717
h-330l125 1024h217l6 -33q145 70 326 70z" />
    <glyph glyph-name="ograve" unicode="&#xf2;" horiz-adv-x="1159" 
d="M770 1178h-217l-254 358h350zM564 266q82 0 121 64q63 101 59 302q-2 126 -148 126q-82 0 -122 -65t-50 -156t-9 -145t34 -90t115 -36zM144 116q-89 153 -52 396q32 254 147 393q127 156 404 156q276 0 367 -142q90 -143 58 -399t-146 -400q-124 -157 -407 -157
q-282 0 -371 153z" />
    <glyph glyph-name="oacute" unicode="&#xf3;" horiz-adv-x="1159" 
d="M770 1178h-217l207 358h350zM564 266q82 0 121 64q63 101 59 302q-2 126 -148 126q-82 0 -122 -65t-50 -156t-9 -145t34 -90t115 -36zM144 116q-89 153 -52 396q32 254 147 393q127 156 404 156q276 0 367 -142q90 -143 58 -399t-146 -400q-124 -157 -407 -157
q-282 0 -371 153z" />
    <glyph glyph-name="ocircumflex" unicode="&#xf4;" horiz-adv-x="1159" 
d="M564 266q82 0 121 64q63 101 59 302q-2 126 -148 126q-82 0 -122 -65t-50 -156t-9 -145t34 -90t115 -36zM1026 1178h-238l-116 98l-137 -98h-238l299 358h217zM144 116q-89 153 -52 396q32 254 147 393q127 156 404 156q276 0 367 -142q90 -143 58 -399t-146 -400
q-124 -157 -407 -157q-282 0 -371 153z" />
    <glyph glyph-name="otilde" unicode="&#xf5;" horiz-adv-x="1159" 
d="M539 1583q59 1 107 -23t73 -51q69 -75 117 -73q90 0 100 96h223l-4 -41q-23 -182 -109 -270t-219 -88q-76 1 -130 37t-91 73t-74 37q-88 0 -102 -96h-223l6 41q45 358 326 358zM549 266q96 0 137 66q62 99 58 300q-2 126 -148 126q-82 0 -122 -65t-50 -156t-9 -145
t35 -90t99 -36zM144 116q-89 153 -52 396q32 254 147 393q127 156 404 156q276 0 367 -142q90 -143 58 -399t-146 -400q-124 -157 -407 -157q-282 0 -371 153z" />
    <glyph glyph-name="odieresis" unicode="&#xf6;" horiz-adv-x="1159" 
d="M1047 1183q-63 -57 -145 -57t-133 56q-50 56 -40 138q9 83 73 139q64 57 146 57t131 -56t40 -139q-9 -82 -72 -138zM311 1459q63 57 145 57t132 -56q49 -56 40 -139q-8 -82 -72 -138q-64 -57 -146 -57t-132 56t-40 138q10 83 73 139zM564 266q82 0 121 64q63 101 59 302
q-2 126 -148 126q-82 0 -122 -65t-50 -156t-9 -145t34 -90t115 -36zM144 116q-89 153 -52 396q32 254 147 393q127 156 404 156q276 0 367 -142q90 -143 58 -399t-146 -400q-124 -157 -407 -157q-282 0 -371 153z" />
    <glyph glyph-name="divide" unicode="&#xf7;" horiz-adv-x="1064" 
d="M628 1298q82 0 132 -56q49 -56 40 -138q-8 -82 -72 -138t-146 -56t-132 54q-50 56 -40 139t73 139t145 56zM530 487q82 0 132 -56t38 -138q-10 -82 -73 -138q-63 -57 -147 -57t-131 56q-48 56 -38 139q9 82 73 138t146 56zM109 539l38 319h857l-39 -319h-856z" />
    <glyph glyph-name="oslash" unicode="&#xf8;" horiz-adv-x="1159" 
d="M549 266q96 0 139 68t55 210q2 22 2 31l-272 -292q25 -16 76 -17zM420 512q0 -2 -3 -28t-3 -38l272 293q-29 18 -76 19q-96 0 -136 -64t-54 -182zM496 -37q-158 0 -260 64l-25 -27h-211l129 139q-68 131 -36 379t146 387q127 156 408 156q176 0 279 -64l24 27h211
l-131 -141q68 -131 37 -375t-145 -388q-124 -157 -426 -157z" />
    <glyph glyph-name="ugrave" unicode="&#xf9;" 
d="M770 1178h-217l-254 358h350zM422 -37q-205 0 -283 108t-55 298l80 655h330l-76 -637q-16 -111 102 -111t180 31l86 717h330l-123 -1024h-217l-8 33q-141 -70 -346 -70z" />
    <glyph glyph-name="uacute" unicode="&#xfa;" 
d="M770 1178h-217l207 358h350zM422 -37q-205 0 -283 108t-55 298l80 655h330l-76 -637q-16 -111 102 -111t180 31l86 717h330l-123 -1024h-217l-8 33q-141 -70 -346 -70z" />
    <glyph glyph-name="ucircumflex" unicode="&#xfb;" 
d="M1026 1178h-238l-116 98l-137 -98h-238l299 358h217zM422 -37q-205 0 -283 108t-55 298l80 655h330l-76 -637q-16 -111 102 -111t180 31l86 717h330l-123 -1024h-217l-8 33q-141 -70 -346 -70z" />
    <glyph glyph-name="udieresis" unicode="&#xfc;" 
d="M1047 1183q-63 -57 -145 -57t-133 56q-50 56 -40 138q9 83 73 139q64 57 146 57t131 -56t40 -139q-9 -82 -72 -138zM311 1459q63 57 145 57t132 -56q49 -56 40 -139q-8 -82 -72 -138q-64 -57 -146 -57t-132 56t-40 138q10 83 73 139zM422 -37q-205 0 -283 108t-55 298
l80 655h330l-76 -637q-16 -111 102 -111t180 31l86 717h330l-123 -1024h-217l-8 33q-141 -70 -346 -70z" />
    <glyph glyph-name="yacute" unicode="&#xfd;" 
d="M770 1178h-217l207 358h350zM520 276q118 0 180 31l86 717h330l-131 -1090q-59 -483 -534 -483q-283 0 -459 68l41 331q217 -86 454 -86q82 0 119 32t47 104l11 92q-125 -29 -222 -29q-225 0 -303 108t-55 298l80 655h330l-76 -637q-16 -111 102 -111z" />
    <glyph glyph-name="thorn" unicode="&#xfe;" horiz-adv-x="1185" 
d="M569 268q170 0 201 244t-141 244q-86 0 -142 -17l-20 -6l-53 -442q72 -23 155 -23zM674 1061q258 0 356 -132t64 -417t-166 -417q-131 -132 -389 -132q-82 0 -162 27l-62 -502h-327l250 2048h327l-61 -502q90 27 170 27z" />
    <glyph glyph-name="ydieresis" unicode="&#xff;" 
d="M1047 1183q-63 -57 -145 -57t-133 56q-50 56 -40 138q9 83 73 139q64 57 146 57t131 -56t40 -139q-9 -82 -72 -138zM311 1459q63 57 145 57t132 -56q49 -56 40 -139q-8 -82 -72 -138q-64 -57 -146 -57t-132 56t-40 138q10 83 73 139zM520 276q118 0 180 31l86 717h330
l-131 -1090q-59 -483 -534 -483q-283 0 -459 68l41 331q217 -86 454 -86q82 0 119 32t47 104l11 92q-125 -29 -222 -29q-225 0 -303 108t-55 298l80 655h330l-76 -637q-16 -111 102 -111z" />
    <glyph glyph-name="Amacron" unicode="&#x100;" horiz-adv-x="1402" 
d="M1169 2048l-39 -319h-561l39 319h561zM795 705l-39 237l-99 -237h138zM348 0h-375l740 1552h239l355 -1552h-373l-74 371h-348z" />
    <glyph glyph-name="amacron" unicode="&#x101;" horiz-adv-x="1185" 
d="M985 1536l-41 -319h-561l41 319h561zM614 756q-168 0 -198 -244t139 -244q88 0 141 17l23 6l53 442q-74 23 -158 23zM647 1061q66 -1 143 -21t113 -49l15 33h217l-123 -1024h-217l-9 33q-43 -29 -126 -49t-148 -21q-258 0 -356 132t-64 417q35 285 166 417t389 132z" />
    <glyph glyph-name="Abreve" unicode="&#x102;" horiz-adv-x="1402" 
d="M840 1645q-178 0 -247 99t-48 304h198q-6 -80 18 -114q23 -34 109 -34t119 36q33 34 45 112h199q-31 -205 -123 -304t-270 -99zM795 705l-39 237l-99 -237h138zM348 0h-375l740 1552h239l355 -1552h-373l-74 371h-348z" />
    <glyph glyph-name="abreve" unicode="&#x103;" horiz-adv-x="1185" 
d="M653 1133q-177 0 -245 99t-48 304h199q-6 -78 18 -113q23 -35 109 -35t118 34t46 114h199q-31 -203 -125 -303t-271 -100zM614 756q-168 0 -198 -244t139 -244q88 0 141 17l23 6l53 442q-74 23 -158 23zM647 1061q66 -1 143 -21t113 -49l15 33h217l-123 -1024h-217l-9 33
q-43 -29 -126 -49t-148 -21q-258 0 -356 132t-64 417q35 285 166 417t389 132z" />
    <glyph glyph-name="Aogonek" unicode="&#x104;" horiz-adv-x="1402" 
d="M795 705l-39 237l-99 -237h138zM1094 -475q-126 0 -210 60q-85 61 -68 193t118 216l-74 377h-348l-164 -371h-375l740 1552h239l355 -1552l-41 -2q-66 -10 -114 -45t-54 -79t28 -61t87 -18q54 -1 98 12l12 7l-31 -250q-72 -39 -198 -39z" />
    <glyph glyph-name="aogonek" unicode="&#x105;" horiz-adv-x="1185" 
d="M614 756q-168 0 -198 -244t139 -244q88 0 141 17l23 6l53 442q-74 23 -158 23zM922 -205q78 0 116 19l-30 -250q-72 -39 -194 -39t-201 59t-64 170q18 168 242 260l-5 19q-43 -29 -126 -49t-148 -21q-258 0 -356 132t-64 417q35 285 166 417t389 132q66 -1 143 -21
t113 -49l15 33h217l-123 -1024h-15q-71 -2 -119 -40t-55 -89q-10 -76 99 -76z" />
    <glyph glyph-name="Cacute" unicode="&#x106;" horiz-adv-x="1290" 
d="M979 1690h-217l207 358h350zM866 1573q297 0 445 -68l-45 -362q-219 94 -441 94q-281 0 -337 -469t221 -469q223 0 465 94l-46 -362q-164 -68 -460 -68q-340 0 -460 210t-73 595q74 597 423 748q132 57 308 57z" />
    <glyph glyph-name="cacute" unicode="&#x107;" horiz-adv-x="1003" 
d="M752 1178h-217l208 358h351zM629 1061q203 0 344 -51l-39 -320q-178 58 -330 58t-180 -236t123 -236q152 0 344 58l-41 -320q-154 -51 -356 -51q-252 -1 -342 143t-60 406q33 262 159 406t378 143z" />
    <glyph glyph-name="Ccircumflex" unicode="&#x108;" horiz-adv-x="1290" 
d="M743 1690h-237l299 358h217l213 -358h-238l-114 100zM866 1573q297 0 445 -68l-45 -362q-219 94 -441 94q-281 0 -337 -469t221 -469q223 0 465 94l-46 -362q-164 -68 -460 -68q-340 0 -460 210t-73 595q74 597 423 748q132 57 308 57z" />
    <glyph glyph-name="ccircumflex" unicode="&#x109;" horiz-adv-x="1003" 
d="M1008 1178h-238l-115 98l-139 -98h-237l301 358h217zM629 1061q203 0 344 -51l-39 -320q-178 58 -330 58t-180 -236t123 -236q152 0 344 58l-41 -320q-154 -51 -356 -51q-252 -1 -342 143t-60 406q33 262 159 406t378 143z" />
    <glyph glyph-name="Cdotaccent" unicode="&#x10a;" horiz-adv-x="1290" 
d="M1010 1695q-64 -57 -146 -57t-132 56t-40 138q10 83 74 139q64 57 145 57q82 0 131 -56t40 -139q-9 -82 -72 -138zM866 1573q297 0 445 -68l-45 -362q-219 94 -441 94q-281 0 -337 -469t221 -469q223 0 465 94l-46 -362q-164 -68 -460 -68q-340 0 -460 210t-73 595
q74 597 423 748q132 57 308 57z" />
    <glyph glyph-name="cdotaccent" unicode="&#x10b;" horiz-adv-x="1003" 
d="M467 1321q11 82 73 138q62 57 144 57t132 -56t40 -139q-10 -82 -74 -138q-64 -57 -146 -57q-83 0 -131 56t-38 139zM629 1061q203 0 344 -51l-39 -320q-178 58 -330 58t-180 -236t123 -236q152 0 344 58l-41 -320q-154 -51 -356 -51q-252 -1 -342 143t-60 406
q33 262 159 406t378 143z" />
    <glyph glyph-name="Ccaron" unicode="&#x10c;" horiz-adv-x="1290" 
d="M1040 2048h238l-299 -358h-217l-213 358h237l115 -100zM866 1573q297 0 445 -68l-45 -362q-219 94 -441 94q-281 0 -337 -469t221 -469q223 0 465 94l-46 -362q-164 -68 -460 -68q-340 0 -460 210t-73 595q74 597 423 748q132 57 308 57z" />
    <glyph glyph-name="ccaron" unicode="&#x10d;" horiz-adv-x="1003" 
d="M815 1536h238l-301 -358h-217l-211 358h237l115 -100zM629 1061q203 0 344 -51l-39 -320q-178 58 -330 58t-180 -236t123 -236q152 0 344 58l-41 -320q-154 -51 -356 -51q-252 -1 -342 143t-60 406q33 262 159 406t378 143z" />
    <glyph glyph-name="Dcaron" unicode="&#x10e;" horiz-adv-x="1374" 
d="M961 2048h237l-299 -358h-217l-213 358h238l114 -100zM590 336q166 0 248 113t108 319t-30 318q-56 114 -222 114h-129l-104 -864h129zM731 1536q189 0 317 -58t186 -162q123 -220 71 -548q-46 -346 -205 -546q-177 -222 -557 -222h-471l188 1536h471z" />
    <glyph glyph-name="dcaron" unicode="&#x10f;" horiz-adv-x="1185" 
d="M1294 1536h232l-150 -410h-166zM616 756q-170 0 -200 -244t141 -244q90 0 139 17l23 6l53 442q-72 23 -156 23zM647 1061q80 0 164 -27l61 502h328l-188 -1536h-217l-9 33q-43 -29 -126 -49t-148 -21q-258 0 -356 132t-64 417q35 285 166 417t389 132z" />
    <glyph glyph-name="Dcroat" unicode="&#x110;" horiz-adv-x="1423" 
d="M680 336q166 0 248 113t108 319t-30 318q-55 114 -222 114h-129l-32 -278h245l-37 -299h-245l-35 -287h129zM821 1536q189 0 317 -58t186 -162q123 -220 71 -548q-46 -346 -205 -546q-177 -222 -557 -222h-471l76 623h-172l36 299h172l76 614h471z" />
    <glyph glyph-name="dcroat" unicode="&#x111;" horiz-adv-x="1185" 
d="M616 756q-170 0 -200 -244t141 -244q90 0 139 17l23 6l53 442q-72 23 -156 23zM647 1061q80 0 164 -27l16 135h-200l28 234h201l16 133h328l-16 -133h112l-28 -234h-113l-143 -1169h-217l-9 33q-43 -29 -126 -49t-148 -21q-258 0 -356 132t-64 417q35 285 166 417
t389 132z" />
    <glyph glyph-name="Emacron" unicode="&#x112;" horiz-adv-x="1220" 
d="M1096 2048l-39 -319h-561l39 319h561zM1114 961l-41 -338h-581l-35 -287h641l-41 -336h-985l188 1536h985l-43 -336h-641l-29 -239h582z" />
    <glyph glyph-name="emacron" unicode="&#x113;" horiz-adv-x="1112" 
d="M979 1536l-41 -319h-561l41 319h561zM612 758q-127 0 -178 -131h162q61 0 86 16t29 49q4 34 -17 50t-82 16zM498 -37q-254 0 -345 143q-91 144 -61 404t164 405q133 145 396 145t343 -123q37 -59 46 -115t1 -128t-30 -120q-56 -119 -218 -155q-95 -22 -237 -22h-154
q6 -59 34 -88t87 -33q184 -14 426 52l-37 -310q-161 -55 -415 -55z" />
    <glyph glyph-name="Ebreve" unicode="&#x114;" horiz-adv-x="1220" 
d="M766 1645q-178 0 -247 99t-48 304h199q-6 -80 18 -114t109 -34q87 0 119 36q32 34 45 112h198q-31 -205 -123 -304t-270 -99zM1114 961l-41 -338h-581l-35 -287h641l-41 -336h-985l188 1536h985l-43 -336h-641l-29 -239h582z" />
    <glyph glyph-name="ebreve" unicode="&#x115;" horiz-adv-x="1112" 
d="M647 1133q-178 0 -246 99t-47 304h199q-7 -78 17 -113t110 -35t118 34t46 114h198q-31 -203 -124 -303t-271 -100zM612 758q-127 0 -178 -131h162q61 0 86 16t29 49q4 34 -17 50t-82 16zM498 -37q-254 0 -345 143q-91 144 -61 404t164 405q133 145 396 145t343 -123
q37 -59 46 -115t1 -128t-30 -120q-56 -119 -218 -155q-95 -22 -237 -22h-154q6 -59 34 -88t87 -33q184 -14 426 52l-37 -310q-161 -55 -415 -55z" />
    <glyph glyph-name="Edotaccent" unicode="&#x116;" horiz-adv-x="1220" 
d="M594 1832q10 83 74 139q64 57 145 57q82 0 131 -56t40 -139q-8 -82 -72 -138q-64 -57 -146 -57t-132 56t-40 138zM1114 961l-41 -338h-581l-35 -287h641l-41 -336h-985l188 1536h985l-43 -336h-641l-29 -239h582z" />
    <glyph glyph-name="edotaccent" unicode="&#x117;" horiz-adv-x="1112" 
d="M477 1321q11 82 73 138q62 57 144 57t132 -56t40 -139q-10 -82 -73 -138q-63 -57 -147 -57t-131 56q-48 56 -38 139zM612 758q-127 0 -178 -131h162q61 0 86 16t29 49q4 34 -17 50t-82 16zM498 -37q-254 0 -345 143q-91 144 -61 404t164 405q133 145 396 145t343 -123
q37 -59 46 -115t1 -128t-30 -120q-56 -119 -218 -155q-95 -22 -237 -22h-154q6 -59 34 -88t87 -33q184 -14 426 52l-37 -310q-161 -55 -415 -55z" />
    <glyph glyph-name="Eogonek" unicode="&#x118;" horiz-adv-x="1220" 
d="M844 -475q-126 0 -210 60q-85 61 -69 193t127 222h-620l188 1536h985l-43 -336h-641l-29 -239h582l-41 -338h-581l-35 -287h641l-41 -336q-76 0 -139 -38q-64 -38 -70 -85t28 -64t88 -18t97 12l12 7l-31 -250q-72 -39 -198 -39z" />
    <glyph glyph-name="eogonek" unicode="&#x119;" horiz-adv-x="1112" 
d="M612 758q-127 0 -178 -131h162q61 0 86 16t29 49q4 34 -17 50t-82 16zM666 -475q-126 0 -210 60q-85 59 -70 181t89 197q-244 7 -329 151t-54 400t164 401t396 145t343 -123q37 -59 46 -115t1 -128t-30 -120q-56 -119 -218 -155q-95 -22 -237 -22h-154q6 -59 34 -88
t87 -33q184 -14 426 52l-37 -310q-31 -10 -110 -28q-123 -37 -133 -119q-11 -73 108 -76q79 0 117 19l-31 -250q-72 -39 -198 -39z" />
    <glyph glyph-name="Ecaron" unicode="&#x11a;" horiz-adv-x="1220" 
d="M451 2048h237l115 -98l139 98h238l-299 -358h-217zM1114 961l-41 -338h-581l-35 -287h641l-41 -336h-985l188 1536h985l-43 -336h-641l-29 -239h582z" />
    <glyph glyph-name="ecaron" unicode="&#x11b;" horiz-adv-x="1112" 
d="M825 1536h238l-301 -358h-217l-211 358h237l115 -100zM612 758q-127 0 -178 -131h162q61 0 86 16t29 49q4 34 -17 50t-82 16zM498 -37q-254 0 -345 143q-91 144 -61 404t164 405q133 145 396 145t343 -123q37 -59 46 -115t1 -128t-30 -120q-56 -119 -218 -155
q-95 -22 -237 -22h-154q6 -59 34 -88t87 -33q184 -14 426 52l-37 -310q-161 -55 -415 -55z" />
    <glyph glyph-name="Gcircumflex" unicode="&#x11c;" horiz-adv-x="1380" 
d="M1241 1690h-237l-115 98l-139 -98h-238l299 358h217zM668 -37q-176 1 -295 59t-175 164q-116 219 -63 582q47 385 217 595t514 210q303 0 471 -84l-45 -359q-250 106 -467 107q-283 0 -338 -469q-16 -144 -5 -248q12 -104 68 -162t152 -59q96 0 175 12l32 264h-272
l41 338h618l-102 -837q-254 -113 -526 -113z" />
    <glyph glyph-name="gcircumflex" unicode="&#x11d;" horiz-adv-x="1165" 
d="M1026 1178h-238l-116 98l-137 -98h-238l299 358h217zM614 756q-168 0 -198 -244t139 -244q88 0 141 17l23 6l53 442q-74 23 -158 23zM647 1061q66 -1 143 -21t113 -49l15 33h217l-131 -1090q-59 -483 -535 -483q-283 0 -459 68l41 331q209 -84 455 -86q82 -2 119 31
t47 105l10 90q-92 -27 -170 -27q-258 0 -356 132t-64 417q35 285 166 417t389 132z" />
    <glyph glyph-name="Gbreve" unicode="&#x11e;" horiz-adv-x="1380" 
d="M870 1645q-178 0 -246 99t-49 304h199q-6 -80 18 -114t110 -34t118 36q33 34 45 112h199q-32 -205 -124 -304t-270 -99zM668 -37q-176 1 -295 59t-175 164q-116 219 -63 582q47 385 217 595t514 210q303 0 471 -84l-45 -359q-250 106 -467 107q-283 0 -338 -469
q-16 -144 -5 -248q12 -104 68 -162t152 -59q96 0 175 12l32 264h-272l41 338h618l-102 -837q-254 -113 -526 -113z" />
    <glyph glyph-name="gbreve" unicode="&#x11f;" horiz-adv-x="1165" 
d="M655 1133q-177 0 -245 99t-48 304h199q-6 -78 18 -113q23 -35 109 -35t118 34t46 114h199q-31 -203 -125 -303t-271 -100zM614 756q-168 0 -198 -244t139 -244q88 0 141 17l23 6l53 442q-74 23 -158 23zM647 1061q66 -1 143 -21t113 -49l15 33h217l-131 -1090
q-59 -483 -535 -483q-283 0 -459 68l41 331q209 -84 455 -86q82 -2 119 31t47 105l10 90q-92 -27 -170 -27q-258 0 -356 132t-64 417q35 285 166 417t389 132z" />
    <glyph glyph-name="Gdotaccent" unicode="&#x120;" horiz-adv-x="1380" 
d="M1016 1695q-64 -57 -146 -57t-132 56t-40 138q10 83 74 139q64 57 146 57t131 -56t39 -139q-10 -82 -72 -138zM668 -37q-176 1 -295 59t-175 164q-116 219 -63 582q47 385 217 595t514 210q303 0 471 -84l-45 -359q-250 106 -467 107q-283 0 -338 -469q-16 -144 -5 -248
q12 -104 68 -162t152 -59q96 0 175 12l32 264h-272l41 338h618l-102 -837q-254 -113 -526 -113z" />
    <glyph glyph-name="gdotaccent" unicode="&#x121;" horiz-adv-x="1165" 
d="M485 1321q11 82 73 138q62 57 144 57t132 -56t40 -139q-10 -82 -73 -138q-63 -57 -147 -57t-131 56q-48 56 -38 139zM614 756q-168 0 -198 -244t139 -244q88 0 141 17l23 6l53 442q-74 23 -158 23zM647 1061q66 -1 143 -21t113 -49l15 33h217l-131 -1090
q-59 -483 -535 -483q-283 0 -459 68l41 331q209 -84 455 -86q82 -2 119 31t47 105l10 90q-92 -27 -170 -27q-258 0 -356 132t-64 417q35 285 166 417t389 132z" />
    <glyph glyph-name="Gcommaaccent" unicode="&#x122;" horiz-adv-x="1380" 
d="M795 -352l-95 -160h-231l33 98q-72 60 -61 148t75 146t143 58t131 -56q52 -58 41 -138q-3 -45 -36 -96zM668 -37q-176 1 -295 59t-175 164q-116 219 -63 582q47 385 217 595t514 210q303 0 471 -84l-45 -359q-250 106 -467 107q-283 0 -338 -469q-16 -144 -5 -248
q12 -104 68 -162t152 -59q96 0 175 12l32 264h-272l41 338h618l-102 -837q-254 -113 -526 -113z" />
    <glyph glyph-name="gcommaaccent" unicode="&#x123;" horiz-adv-x="1165" 
d="M514 1376l96 160h232l-33 -98q71 -58 59 -148t-74 -147t-144 -57t-132 58q-51 58 -41 136q4 45 37 96zM614 756q-168 0 -198 -244t139 -244q88 0 141 17l23 6l53 442q-74 23 -158 23zM647 1061q66 -1 143 -21t113 -49l15 33h217l-131 -1090q-59 -483 -535 -483
q-283 0 -459 68l41 331q209 -84 455 -86q82 -2 119 31t47 105l10 90q-92 -27 -170 -27q-258 0 -356 132t-64 417q35 285 166 417t389 132z" />
    <glyph glyph-name="Hcircumflex" unicode="&#x124;" horiz-adv-x="1388" 
d="M1204 1690h-237l-115 98l-139 -98h-238l299 358h217zM1194 0h-348l76 623h-426l-76 -623h-348l188 1536h348l-71 -575h426l71 575h348z" />
    <glyph glyph-name="hcircumflex" unicode="&#x125;" horiz-adv-x="1165" 
d="M788 1690h-237l-115 98l-139 -98h-238l299 358h217zM644 748q-118 0 -179 -31l-86 -717h-328l189 1536h327l-63 -506q117 31 219 31q225 0 303 -108t55 -298l-80 -655h-329l78 637q12 111 -106 111z" />
    <glyph glyph-name="Hbar" unicode="&#x126;" horiz-adv-x="1388" 
d="M537 961h426l20 165h-426zM1194 0h-348l76 623h-426l-76 -623h-348l188 1536h348l-18 -152h426l18 152h348z" />
    <glyph glyph-name="hbar" unicode="&#x127;" horiz-adv-x="1165" 
d="M644 748q-118 0 -179 -31l-86 -717h-328l144 1169h-113l29 234h112l17 133h327l-16 -133h201l-29 -234h-201l-18 -139q117 31 219 31q225 0 303 -108t55 -298l-80 -655h-329l78 637q12 111 -106 111z" />
    <glyph glyph-name="Itilde" unicode="&#x128;" horiz-adv-x="657" 
d="M350 2095q76 0 130 -37q54 -38 91 -74t74 -36q92 0 103 96h223l-4 -41q-23 -182 -109 -270t-219 -88q-76 1 -130 37t-91 73t-74 37q-88 0 -102 -96h-224l7 41q45 358 325 358zM442 0h-350l189 1536h350z" />
    <glyph glyph-name="itilde" unicode="&#x129;" horiz-adv-x="655" 
d="M262 1583q60 1 108 -23t72 -51q68 -75 117 -73q90 0 100 96h224l-4 -41q-23 -182 -109 -270t-219 -88q-76 1 -130 37t-91 73t-74 37q-88 0 -102 -96h-222l7 41q20 182 105 270t218 88zM391 -16q-139 0 -219 72t-61 216l92 752h325l-82 -666q-4 -31 12 -46t64 -15
l-37 -313h-94z" />
    <glyph glyph-name="imacron" unicode="&#x12b;" horiz-adv-x="655" 
d="M711 1536l-41 -319h-561l41 319h561zM391 -16q-139 0 -219 72t-61 216l92 752h325l-82 -666q-4 -31 12 -46t64 -15l-37 -313h-94z" />
    <glyph glyph-name="Ibreve" unicode="&#x12c;" horiz-adv-x="657" 
d="M469 1645q-178 0 -247 99t-48 304h199q-7 -80 17 -114t110 -34t118 36q32 34 46 112h198q-31 -205 -123 -304t-270 -99zM442 0h-350l189 1536h350z" />
    <glyph glyph-name="Iogonek" unicode="&#x12e;" horiz-adv-x="657" 
d="M230 -475q-126 0 -210 60t-68 199t140 228l189 1524h350l-189 -1536h-16q-72 -4 -129 -41t-63 -83t27 -63q52 -26 141 -14q30 4 44 8l13 7l-31 -250q-72 -39 -198 -39z" />
    <glyph glyph-name="iogonek" unicode="&#x12f;" horiz-adv-x="655" 
d="M209 1321q11 82 73 138q62 57 144 57t132 -56t40 -139q-10 -82 -74 -138q-64 -57 -146 -57q-83 0 -131 56t-38 139zM277 -475q-127 0 -211 60t-68 188q18 172 188 270q-96 80 -75 229l92 752h325l-82 -666q-4 -31 12 -46t64 -15l-37 -313q-78 0 -138 -33t-66 -78
q-7 -45 27 -61t96 -17t102 19l-31 -250q-72 -39 -198 -39z" />
    <glyph glyph-name="Idotaccent" unicode="&#x130;" horiz-adv-x="657" 
d="M297 1832q9 83 73 139q64 57 146 57t131 -56t40 -139q-9 -82 -73 -138q-64 -57 -145 -57q-82 0 -132 56t-40 138zM442 0h-350l189 1536h350z" />
    <glyph glyph-name="dotlessi" unicode="&#x131;" horiz-adv-x="655" 
d="M391 -16q-139 0 -219 72t-61 216l90 752h325l-80 -666q-4 -31 12 -46t64 -15l-37 -313h-94z" />
    <glyph glyph-name="IJ" unicode="&#x132;" horiz-adv-x="1525" 
d="M918 299q84 0 90 68l143 1169h346l-145 -1194q-45 -379 -475 -379q-130 0 -230 37l39 334q106 -35 232 -35zM442 0h-350l187 1536h350z" />
    <glyph glyph-name="ij" unicode="&#x133;" horiz-adv-x="1273" 
d="M874 1320q10 83 74 139q64 57 146 57t131 -56t40 -139q-9 -82 -73 -138q-64 -57 -145 -57q-83 0 -133 56t-40 138zM467 -549l37 305q96 0 156 35t67 90l139 1143h328l-141 -1159q-25 -205 -196 -309t-390 -105zM207 1320q9 83 73 139q64 57 146 57t131 -56t40 -139
q-9 -82 -73 -138q-64 -57 -145 -57q-82 0 -132 56t-40 138zM391 -16q-139 0 -219 72t-61 216l90 752h325l-80 -666q-4 -31 12 -46t64 -15l-37 -313h-94z" />
    <glyph glyph-name="Jcircumflex" unicode="&#x134;" horiz-adv-x="868" 
d="M1053 1690h-238l-115 98l-139 -98h-237l299 358h217zM260 299q84 0 90 68l146 1169h346l-148 -1194q-45 -379 -475 -379q-129 0 -229 37l41 334q104 -35 229 -35z" />
    <glyph glyph-name="jcircumflex" unicode="&#x135;" horiz-adv-x="618" 
d="M760 1178h-238l-114 98l-140 -98h-237l301 358h217zM-188 -549l36 305q96 0 157 35q60 35 67 90l141 1143h328l-144 -1159q-25 -205 -195 -309t-390 -105z" />
    <glyph glyph-name="Kcommaaccent" unicode="&#x136;" horiz-adv-x="1454" 
d="M780 -352l-94 -160h-231l32 98q-73 60 -61 148t76 146t143 58q80 0 131 -56q51 -58 41 -138q-4 -45 -37 -96zM922 0l-344 584l-105 -109l-57 -475h-344l188 1536h344l-74 -588l531 588h459l-680 -688l542 -848h-460z" />
    <glyph glyph-name="kcommaaccent" unicode="&#x137;" horiz-adv-x="1171" 
d="M645 -352l-94 -160h-232l33 98q-72 60 -60 148t74 146q64 58 144 58t131 -56q51 -58 41 -138q-4 -45 -37 -96zM768 1024h461l-516 -434l393 -590h-434l-230 362l-24 -20l-41 -342h-326l189 1536h325l-96 -780z" />
    <glyph glyph-name="kgreenlandic" unicode="&#x138;" horiz-adv-x="1171" 
d="M768 1024h461l-516 -434l393 -590h-434l-230 362l-24 -20l-41 -342h-326l125 1024h326l-33 -268z" />
    <glyph glyph-name="Lacute" unicode="&#x139;" horiz-adv-x="1146" 
d="M561 1690h-217l207 358h350zM606 1536l-147 -1200h606l-41 -336h-952l188 1536h346z" />
    <glyph glyph-name="lacute" unicode="&#x13a;" horiz-adv-x="655" 
d="M557 1690h-217l207 358h350zM391 -16q-139 0 -219 72t-61 216l155 1264h326l-146 -1178q-4 -31 12 -46t64 -15l-37 -313h-94z" />
    <glyph glyph-name="Lcommaaccent" unicode="&#x13b;" horiz-adv-x="1146" 
d="M668 -352l-95 -160h-231l33 98q-72 60 -61 148q10 88 74 146t144 58t132 -56q52 -58 41 -138q-4 -45 -37 -96zM606 1536l-147 -1200h606l-41 -336h-952l188 1536h346z" />
    <glyph glyph-name="lcommaaccent" unicode="&#x13c;" horiz-adv-x="655" 
d="M412 -352l-95 -160h-231l33 98q-72 60 -61 148q10 88 74 146t144 58t132 -56q52 -58 41 -138q-4 -45 -37 -96zM391 -16q-139 0 -219 72t-61 216l155 1264h326l-146 -1178q-4 -31 12 -46t64 -15l-37 -313h-94z" />
    <glyph glyph-name="Lcaron" unicode="&#x13d;" horiz-adv-x="1146" 
d="M741 1536h232l-150 -410h-166zM606 1536l-147 -1200h606l-41 -336h-952l188 1536h346z" />
    <glyph glyph-name="lcaron" unicode="&#x13e;" horiz-adv-x="655" 
d="M686 1536h232l-150 -410h-166zM391 -16q-139 0 -219 72t-61 216l155 1264h326l-146 -1178q-4 -31 12 -46t64 -15l-37 -313h-94z" />
    <glyph glyph-name="Ldot" unicode="&#x13f;" horiz-adv-x="1146" 
d="M721 768q11 82 73 138t144 56t132 -56t40 -138t-74 -138t-146 -56q-83 0 -131 56t-38 138zM606 1536l-147 -1200h606l-41 -336h-952l188 1536h346z" />
    <glyph glyph-name="ldot" unicode="&#x140;" horiz-adv-x="837" 
d="M758 809q82 0 131 -56q49 -57 40 -139t-73 -138t-145 -56q-82 0 -132 55t-40 138t73 139q64 56 146 57zM391 -16q-139 0 -219 72t-61 216l155 1264h326l-146 -1178q-4 -31 12 -46t64 -15l-37 -313h-94z" />
    <glyph glyph-name="Lslash" unicode="&#x141;" horiz-adv-x="1146" 
d="M948 856l-356 -170l-43 -350h606l-41 -336h-952l61 508l-182 -88l25 209l182 88l102 819h346l-80 -641l357 170z" />
    <glyph glyph-name="lslash" unicode="&#x142;" horiz-adv-x="655" 
d="M387 -37q-139 0 -218 73t-60 216l30 262l-114 -55l26 211l115 55l100 811h326l-80 -645l178 86l-26 -211l-179 -86l-41 -342q-4 -31 12 -46t64 -16l-39 -313h-94z" />
    <glyph glyph-name="Nacute" unicode="&#x143;" horiz-adv-x="1404" 
d="M956 1690h-217l207 358h350zM1210 0h-272l-430 827l-96 -827h-340l188 1536h272l429 -827l98 827h340z" />
    <glyph glyph-name="nacute" unicode="&#x144;" 
d="M774 1178h-217l209 358h350zM725 1061q225 0 303 -108t55 -298l-79 -655h-330l78 637q12 111 -106 111t-179 -31l-86 -717h-330l125 1024h217l6 -33q145 70 326 70z" />
    <glyph glyph-name="Ncommaaccent" unicode="&#x145;" horiz-adv-x="1404" 
d="M776 -352l-94 -160h-231l32 98q-73 60 -61 148t76 146t143 58q80 0 131 -56q51 -58 41 -138q-4 -45 -37 -96zM1210 0h-272l-430 827l-96 -827h-340l188 1536h272l429 -827l98 827h340z" />
    <glyph glyph-name="ncommaaccent" unicode="&#x146;" 
d="M647 -352l-94 -160h-231l32 98q-72 60 -60 148t74 146q64 58 144 58t131 -56q51 -58 41 -138q-4 -45 -37 -96zM725 1061q225 0 303 -108t55 -298l-79 -655h-330l78 637q12 111 -106 111t-179 -31l-86 -717h-330l125 1024h217l6 -33q145 70 326 70z" />
    <glyph glyph-name="Ncaron" unicode="&#x147;" horiz-adv-x="1404" 
d="M1018 2048h237l-299 -358h-217l-213 358h238l115 -100zM1210 0h-272l-430 827l-96 -827h-340l188 1536h272l429 -827l98 827h340z" />
    <glyph glyph-name="ncaron" unicode="&#x148;" 
d="M838 1536h237l-301 -358h-217l-211 358h238l114 -100zM725 1061q225 0 303 -108t55 -298l-79 -655h-330l78 637q12 111 -106 111t-179 -31l-86 -717h-330l125 1024h217l6 -33q145 70 326 70z" />
    <glyph glyph-name="Eng" unicode="&#x14a;" horiz-adv-x="1404" 
d="M604 -549l37 305q96 0 158 35q61 35 67 90l27 205l-385 741l-96 -827h-340l188 1536h272l429 -827l98 827h340l-207 -1671q-16 -139 -110 -237q-170 -178 -478 -177z" />
    <glyph glyph-name="eng" unicode="&#x14b;" 
d="M646 748q-118 0 -179 -31l-86 -717h-330l125 1024h217l6 -33q145 70 326 70q225 0 303 -108t55 -298l-98 -790q-16 -139 -109 -237q-169 -177 -479 -177l37 305q96 0 157 36q60 36 68 93l93 752q12 111 -106 111z" />
    <glyph glyph-name="Omacron" unicode="&#x14c;" horiz-adv-x="1417" 
d="M1178 2048l-39 -319h-561l38 319h562zM683 299q155 -1 216 107t93 363t-4 361t-190 106t-216 -107q-61 -108 -93 -361q-39 -233 0 -351t194 -118zM640 -37q-156 0 -261 47q-106 47 -162 119q-55 71 -79 183t-21 216q8 422 133 696q51 112 124 184q74 72 192 118
q118 47 252 47q233 0 366 -89q156 -109 178 -382q10 -145 -10 -308q-20 -164 -45 -266t-76 -215t-124 -185t-192 -118q-119 -47 -275 -47z" />
    <glyph glyph-name="omacron" unicode="&#x14d;" horiz-adv-x="1159" 
d="M987 1536l-41 -319h-561l41 319h561zM549 266q96 0 137 66q62 99 58 300q-2 126 -148 126q-82 0 -122 -65t-50 -156t-9 -145t35 -90t99 -36zM144 116q-89 153 -52 396q32 254 147 393q127 156 404 156q276 0 367 -142q90 -143 58 -399t-146 -400q-124 -157 -407 -157
q-282 0 -371 153z" />
    <glyph glyph-name="Obreve" unicode="&#x14e;" horiz-adv-x="1417" 
d="M848 1645q-178 0 -247 99t-48 304h199q-6 -80 18 -114t109 -34q87 0 119 36q32 34 44 112h199q-31 -205 -123 -304t-270 -99zM683 299q155 -1 216 107t93 363t-4 361t-190 106t-216 -107q-61 -108 -93 -361q-39 -233 0 -351t194 -118zM640 -37q-156 0 -261 47
q-106 47 -162 119q-55 71 -79 183t-21 216q8 422 133 696q51 112 124 184q74 72 192 118q118 47 252 47q233 0 366 -89q156 -109 178 -382q10 -145 -10 -308q-20 -164 -45 -266t-76 -215t-124 -185t-192 -118q-119 -47 -275 -47z" />
    <glyph glyph-name="obreve" unicode="&#x14f;" horiz-adv-x="1159" 
d="M655 1133q-177 0 -245 99t-48 304h199q-6 -78 18 -113q23 -35 109 -35t118 34t46 114h199q-31 -203 -125 -303t-271 -100zM549 266q96 0 137 66q62 99 58 300q-2 126 -148 126q-82 0 -122 -65t-50 -156t-9 -145t35 -90t99 -36zM144 116q-89 153 -52 396q32 254 147 393
q127 156 404 156q276 0 367 -142q90 -143 58 -399t-146 -400q-124 -157 -407 -157q-282 0 -371 153z" />
    <glyph glyph-name="Ohungarumlaut" unicode="&#x150;" horiz-adv-x="1417" 
d="M1149 1690h-217l207 358h350zM766 1690h-217l207 358h350zM683 299q155 -1 216 107t93 363t-4 361t-190 106t-216 -107q-61 -108 -93 -361q-39 -233 0 -351t194 -118zM640 -37q-156 0 -261 47q-106 47 -162 119q-55 71 -79 183t-21 216q8 422 133 696q51 112 124 184
q74 72 192 118q118 47 252 47q233 0 366 -89q156 -109 178 -382q10 -145 -10 -308q-20 -164 -45 -266t-76 -215t-124 -185t-192 -118q-119 -47 -275 -47z" />
    <glyph glyph-name="ohungarumlaut" unicode="&#x151;" horiz-adv-x="1159" 
d="M956 1178h-217l209 358h350zM573 1178h-217l209 358h350zM549 266q96 0 137 66q62 99 58 300q-2 126 -148 126q-82 0 -122 -65t-50 -156t-9 -145t35 -90t99 -36zM144 116q-89 153 -52 396q32 254 147 393q127 156 404 156q276 0 367 -142q90 -143 58 -399t-146 -400
q-124 -157 -407 -157q-282 0 -371 153z" />
    <glyph glyph-name="OE" unicode="&#x152;" horiz-adv-x="1902" 
d="M848 1200q-166 0 -249 -113t-107 -319t29 -320q54 -112 220 -112h88l107 864h-88zM709 0q-307 0 -445 144q-137 144 -141 377q-9 516 214 793q179 222 558 222h1030l-41 -336h-600l-29 -239h541l-41 -338h-541l-36 -287h600l-39 -336h-1030z" />
    <glyph glyph-name="oe" unicode="&#x153;" horiz-adv-x="1759" 
d="M1260 758q-127 0 -179 -131h162q61 0 86 16t29 49q4 34 -16 50t-82 16zM564 266q82 0 121 64q40 64 54 182l2 25q8 104 -16 162q-25 59 -118 59t-133 -65t-50 -156t-9 -145t34 -90t115 -36zM647 1061q213 0 318 -92q127 92 321 92q279 0 356 -124q64 -100 48 -243
q-8 -72 -31 -120q-57 -119 -218 -155q-95 -22 -237 -22h-153q5 -59 33 -88t87 -33q184 -14 426 52l-36 -310q-163 -55 -385 -55t-326 88q-133 -88 -338 -88q-279 0 -368 153t-52 396q32 254 147 393q127 156 408 156z" />
    <glyph glyph-name="Racute" unicode="&#x154;" horiz-adv-x="1355" 
d="M899 1690h-217l207 358h350zM731 913q96 0 132 37t44 108q7 70 -19 106t-122 36h-203l-35 -287h203zM784 1536q297 0 406 -122t80 -355q-35 -303 -250 -410l264 -649h-416l-213 575h-168l-69 -575h-346l188 1536h524z" />
    <glyph glyph-name="racute" unicode="&#x155;" horiz-adv-x="849" 
d="M616 1178h-217l209 358h350zM656 1061q136 0 188 -27l-39 -307q-124 38 -260 9q-57 -11 -78 -21l-86 -715h-330l125 1024h217l6 -33q121 70 257 70z" />
    <glyph glyph-name="Rcommaaccent" unicode="&#x156;" horiz-adv-x="1355" 
d="M752 -352l-95 -160h-231l33 98q-72 60 -61 148q10 88 74 146t144 58t132 -56q52 -58 40 -138q-3 -45 -36 -96zM731 913q96 0 132 37t44 108q7 70 -19 106t-122 36h-203l-35 -287h203zM784 1536q297 0 406 -122t80 -355q-35 -303 -250 -410l264 -649h-416l-213 575h-168
l-69 -575h-346l188 1536h524z" />
    <glyph glyph-name="rcommaaccent" unicode="&#x157;" horiz-adv-x="849" 
d="M342 -352l-94 -160h-232l33 98q-73 60 -61 148t75 146t143 58t132 -56q51 -58 41 -138q-4 -45 -37 -96zM656 1061q136 0 188 -27l-39 -307q-124 38 -260 9q-57 -11 -78 -21l-86 -715h-330l125 1024h217l6 -33q121 70 257 70z" />
    <glyph glyph-name="Rcaron" unicode="&#x158;" horiz-adv-x="1355" 
d="M961 2048h237l-299 -358h-217l-213 358h238l114 -100zM731 913q96 0 132 37t44 108q7 70 -19 106t-122 36h-203l-35 -287h203zM784 1536q297 0 406 -122t80 -355q-35 -303 -250 -410l264 -649h-416l-213 575h-168l-69 -575h-346l188 1536h524z" />
    <glyph glyph-name="rcaron" unicode="&#x159;" horiz-adv-x="849" 
d="M680 1536h238l-302 -358h-217l-211 358h238l115 -100zM656 1061q136 0 188 -27l-39 -307q-124 38 -260 9q-57 -11 -78 -21l-86 -715h-330l125 1024h217l6 -33q121 70 257 70z" />
    <glyph glyph-name="Sacute" unicode="&#x15a;" horiz-adv-x="1269" 
d="M897 1690h-217l207 358h350zM540 -37q-138 0 -284 31t-219 72l45 360q68 -43 199 -85t266 -42q248 0 270 180q8 68 -34 100t-152 44q-289 37 -392 136t-75 328q20 177 141 321q66 77 188 121t287 44q248 0 443 -92l-45 -365q-242 121 -445 121t-219 -150q-8 -61 41 -87
t175 -40q246 -29 360 -127t84 -352q-24 -202 -162 -350q-74 -78 -204 -123t-268 -45z" />
    <glyph glyph-name="sacute" unicode="&#x15b;" horiz-adv-x="1024" 
d="M702 1178h-217l209 358h350zM567 748q-121 0 -129 -56q-4 -39 88 -45q233 -23 319 -92q85 -71 65 -229t-146 -260q-125 -102 -358 -103q-84 0 -203 23t-162 45l41 329q68 -32 180 -58t195 -26q125 0 129 56q9 39 -88 45q-233 23 -319 92q-85 71 -65 229t146 260
q125 102 358 103q78 -1 180 -19t154 -41l-41 -331q-53 26 -163 52t-181 26z" />
    <glyph glyph-name="Scircumflex" unicode="&#x15c;" horiz-adv-x="1269" 
d="M662 1690h-238l299 358h217l213 -358h-238l-114 100zM540 -37q-138 0 -284 31t-219 72l45 360q68 -43 199 -85t266 -42q248 0 270 180q8 68 -34 100t-152 44q-289 37 -392 136t-75 328q20 177 141 321q66 77 188 121t287 44q248 0 443 -92l-45 -365q-242 121 -445 121
t-219 -150q-8 -61 41 -87t175 -40q246 -29 360 -127t84 -352q-24 -202 -162 -350q-74 -78 -204 -123t-268 -45z" />
    <glyph glyph-name="scircumflex" unicode="&#x15d;" horiz-adv-x="1024" 
d="M467 1178h-238l301 358h218l210 -358h-237l-115 100zM567 748q-121 0 -129 -56q-4 -39 88 -45q233 -23 319 -92q85 -71 65 -229t-146 -260q-125 -102 -358 -103q-84 0 -203 23t-162 45l41 329q68 -32 180 -58t195 -26q125 0 129 56q9 39 -88 45q-233 23 -319 92
q-85 71 -65 229t146 260q125 102 358 103q78 -1 180 -19t154 -41l-41 -331q-53 26 -163 52t-181 26z" />
    <glyph glyph-name="Scedilla" unicode="&#x15e;" horiz-adv-x="1269" 
d="M547 299q248 0 270 180q8 68 -34 100t-152 44q-289 37 -392 136t-75 328q20 177 141 321q66 77 188 121t287 44q248 0 443 -92l-45 -365q-242 121 -445 121t-219 -150q-8 -61 41 -87t175 -40q245 -28 359 -127q114 -98 85 -352q-24 -188 -141 -328q-132 -160 -429 -186
q-53 -71 8 -109q62 -38 66 -87q7 -78 -80 -150h-291q53 41 77 87t-9 75q-96 59 6 190q-233 31 -344 93l45 360q68 -43 199 -85t266 -42z" />
    <glyph glyph-name="scedilla" unicode="&#x15f;" horiz-adv-x="1024" 
d="M457 276q125 0 129 56q9 39 -88 45q-233 23 -319 92q-85 71 -65 229t146 260q125 102 358 103q78 -1 180 -19t154 -41l-41 -331q-53 26 -163 52t-181 26q-121 0 -129 -56q-4 -39 88 -45q233 -23 319 -92q85 -70 67 -218q-18 -149 -117 -247q-98 -98 -279 -121
q-57 -73 5 -111q63 -38 67 -87q7 -78 -80 -150h-291q53 41 77 87t-9 75q-100 57 4 188q-184 23 -248 60l41 329q68 -32 180 -58t195 -26z" />
    <glyph glyph-name="Scaron" unicode="&#x160;" horiz-adv-x="1269" 
d="M956 2048h238l-299 -358h-217l-213 358h237l115 -100zM540 -37q-138 0 -284 31t-219 72l45 360q68 -43 199 -85t266 -42q248 0 270 180q8 68 -34 100t-152 44q-289 37 -392 136t-77 328q17 150 94 262q92 137 282 193q105 31 240 31q250 0 445 -92l-45 -365
q-244 121 -445 121t-221 -150q-8 -59 42 -85t169 -41q266 -33 374 -133t77 -347q-24 -202 -162 -350q-74 -78 -204 -123t-268 -45z" />
    <glyph glyph-name="scaron" unicode="&#x161;" horiz-adv-x="1024" 
d="M764 1536h237l-299 -358h-217l-213 358h238l115 -100zM567 748q-125 0 -129 -56q-9 -39 88 -45q233 -23 319 -92q85 -71 65 -229t-146 -260q-125 -102 -358 -103q-84 0 -203 23t-162 45l41 329q68 -32 180 -58t195 -26q125 0 129 56q9 39 -88 45q-233 23 -319 92
q-85 71 -65 229t146 260q125 102 358 103q78 -1 180 -19t152 -41l-41 -331q-53 26 -163 52t-179 26z" />
    <glyph glyph-name="Tcommaaccent" unicode="&#x162;" horiz-adv-x="1218" 
d="M674 -352l-94 -160h-232l33 98q-73 60 -61 148t75 146t143 58t132 -56q51 -58 41 -138q-4 -45 -37 -96zM1235 1200h-367l-145 -1200h-350l145 1200h-366l43 336h1083z" />
    <glyph glyph-name="tcommaaccent" unicode="&#x163;" horiz-adv-x="901" 
d="M565 -352l-94 -160h-231l32 98q-72 60 -60 148t74 146q64 58 144 58t131 -56q51 -58 41 -138q-4 -45 -37 -96zM739 295l-39 -313q-68 -18 -149 -19q-211 0 -296 93t-60 280l47 385h-166l28 244l172 49l27 211l338 94l-37 -295h262l-37 -303h-262l-45 -367q-10 -76 70 -75
q79 0 147 16z" />
    <glyph glyph-name="Tcaron" unicode="&#x164;" horiz-adv-x="1218" 
d="M924 2048h237l-299 -358h-217l-213 358h238l114 -100zM1235 1200h-367l-145 -1200h-350l145 1200h-366l43 336h1083z" />
    <glyph glyph-name="tcaron" unicode="&#x165;" horiz-adv-x="901" 
d="M762 1536h231l-149 -410h-166zM739 295l-39 -313q-68 -18 -149 -19q-211 0 -296 93t-60 280l47 385h-166l28 244l172 49l27 211l338 94l-37 -295h262l-37 -303h-262l-45 -367q-10 -76 70 -75q79 0 147 16z" />
    <glyph glyph-name="Tbar" unicode="&#x166;" horiz-adv-x="1218" 
d="M231 647l33 258h219l35 295h-366l43 336h1083l-43 -336h-367l-34 -295h219l-33 -258h-219l-78 -647h-350l78 647h-220z" />
    <glyph glyph-name="tbar" unicode="&#x167;" horiz-adv-x="901" 
d="M739 295l-39 -313q-68 -18 -149 -19q-211 0 -296 93t-60 280l8 72h-125l28 233h125l11 80h-166l28 244l172 49l27 211l338 94l-37 -295h262l-37 -303h-262l-10 -80h191l-29 -233h-191l-6 -54q-10 -76 70 -75q79 0 147 16z" />
    <glyph glyph-name="Utilde" unicode="&#x168;" horiz-adv-x="1400" 
d="M723 2095q76 0 130 -37q54 -38 91 -74t74 -36q92 0 102 96h223l-4 -41q-23 -182 -109 -270t-218 -88q-76 1 -130 37t-91 73t-74 37q-88 0 -103 -96h-223l6 41q45 358 326 358zM676 303q233 0 260 229l125 1004h344l-127 -1028q-16 -134 -70 -236t-124 -159
q-69 -57 -184 -104t-266 -46q-152 0 -256 46q-104 45 -158 103t-84 160t-13 236l127 1028h344l-125 -1004q-26 -229 207 -229z" />
    <glyph glyph-name="utilde" unicode="&#x169;" 
d="M539 1583q59 1 107 -23t73 -51q69 -75 117 -73q90 0 100 96h223l-4 -41q-23 -182 -109 -270t-219 -88q-76 1 -130 37t-91 73t-74 37q-88 0 -102 -96h-223l6 41q45 358 326 358zM422 -37q-389 0 -336 406l80 655h330l-78 -637q-12 -111 102 -111q119 0 180 31l88 717h330
l-125 -1024h-217l-8 33q-141 -70 -346 -70z" />
    <glyph glyph-name="Umacron" unicode="&#x16a;" horiz-adv-x="1400" 
d="M1169 2048l-39 -319h-561l39 319h561zM676 303q233 0 260 229l125 1004h344l-127 -1028q-16 -134 -70 -236t-124 -159q-69 -57 -184 -104t-266 -46q-152 0 -256 46q-104 45 -158 103t-84 160t-13 236l127 1028h344l-125 -1004q-26 -229 207 -229z" />
    <glyph glyph-name="umacron" unicode="&#x16b;" 
d="M987 1536l-41 -319h-561l41 319h561zM422 -37q-389 0 -336 406l80 655h330l-78 -637q-12 -111 102 -111q119 0 180 31l88 717h330l-125 -1024h-217l-8 33q-141 -70 -346 -70z" />
    <glyph glyph-name="Ubreve" unicode="&#x16c;" horiz-adv-x="1400" 
d="M840 1645q-178 0 -247 99t-48 304h198q-6 -80 18 -114q23 -34 109 -34t119 36q33 34 45 112h199q-31 -205 -123 -304t-270 -99zM676 303q233 0 260 229l125 1004h344l-127 -1028q-16 -134 -70 -236t-124 -159q-69 -57 -184 -104t-266 -46q-152 0 -256 46
q-104 45 -158 103t-84 160t-13 236l127 1028h344l-125 -1004q-26 -229 207 -229z" />
    <glyph glyph-name="ubreve" unicode="&#x16d;" 
d="M655 1133q-177 0 -245 99t-48 304h199q-6 -78 18 -113q23 -35 109 -35t118 34t46 114h199q-31 -203 -125 -303t-271 -100zM422 -37q-389 0 -336 406l80 655h330l-78 -637q-12 -111 102 -111q119 0 180 31l88 717h330l-125 -1024h-217l-8 33q-141 -70 -346 -70z" />
    <glyph glyph-name="Uring" unicode="&#x16e;" horiz-adv-x="1400" 
d="M874 1915q-45 0 -53 -47q-2 -43 43 -43t47 43q8 47 -37 47zM841 1653q-101 0 -154 54q-52 54 -39 162t78 162t166 54t153 -54q52 -53 39 -161t-77 -163q-65 -54 -166 -54zM676 303q233 0 260 229l125 1004h344l-127 -1028q-16 -134 -70 -236t-124 -159q-69 -57 -184 -104
t-266 -46q-152 0 -256 46q-104 45 -158 103t-84 160t-13 236l127 1028h344l-125 -1004q-26 -229 207 -229z" />
    <glyph glyph-name="uring" unicode="&#x16f;" 
d="M690 1403q-45 0 -51 -45t39 -45t51 45t-39 45zM656 1141q-101 0 -153 54t-38 162t79 162t166 54t153 -54q52 -53 38 -161t-79 -162t-166 -55zM422 -37q-389 0 -336 406l80 655h330l-78 -637q-12 -111 102 -111q119 0 180 31l88 717h330l-125 -1024h-217l-8 33
q-141 -70 -346 -70z" />
    <glyph glyph-name="Uhungarumlaut" unicode="&#x170;" horiz-adv-x="1400" 
d="M1141 1690h-217l206 358h351zM758 1690h-217l207 358h350zM676 303q233 0 260 229l125 1004h344l-127 -1028q-16 -134 -70 -236t-124 -159q-69 -57 -184 -104t-266 -46q-152 0 -256 46q-104 45 -158 103t-84 160t-13 236l127 1028h344l-125 -1004q-26 -229 207 -229z" />
    <glyph glyph-name="uhungarumlaut" unicode="&#x171;" 
d="M952 1178h-217l209 358h350zM569 1178h-217l209 358h350zM422 -37q-389 0 -336 406l80 655h330l-78 -637q-12 -111 102 -111q119 0 180 31l88 717h330l-125 -1024h-217l-8 33q-141 -70 -346 -70z" />
    <glyph glyph-name="Uogonek" unicode="&#x172;" horiz-adv-x="1400" 
d="M676 303q233 0 260 229l125 1004h344l-127 -1028q-29 -231 -154 -354t-295 -166q-113 -37 -122 -117q-11 -73 108 -76q79 0 117 19l-31 -250q-72 -39 -198 -39q-127 0 -211 60q-84 61 -69 183t97 203q-228 35 -336 188q-88 127 -61 349l127 1028h344l-125 -1004
q-26 -229 207 -229z" />
    <glyph glyph-name="uogonek" unicode="&#x173;" 
d="M903 -205q63 0 105 12l12 7l-31 -250q-71 -39 -193 -39t-201 59t-65 170q18 168 242 260l-4 19q-141 -70 -346 -70q-389 0 -336 406l80 655h330l-78 -637q-12 -111 102 -111q119 0 180 31l88 717h330l-125 -1024h-14q-70 -2 -119 -40t-55 -89q-10 -76 98 -76z" />
    <glyph glyph-name="Wcircumflex" unicode="&#x174;" horiz-adv-x="1781" 
d="M1401 1690h-238l-114 98l-140 -98h-237l299 358h217zM563 702l305 834h299l101 -834l241 834h369l-526 -1552h-305l-111 897l-328 -897h-305l-145 1552h368z" />
    <glyph glyph-name="wcircumflex" unicode="&#x175;" horiz-adv-x="1423" 
d="M1157 1178h-237l-115 98l-139 -98h-238l301 358h217zM918 1024l57 -434l137 434h344l-416 -1040h-252l-77 503l-203 -503h-252l-162 1040h346l33 -432l160 432h285z" />
    <glyph glyph-name="Ycircumflex" unicode="&#x176;" horiz-adv-x="1515" 
d="M1268 1690h-238l-115 98l-139 -98h-237l299 358h217zM1618 1536l-672 -911l-76 -625h-348l76 625l-446 911h409l252 -584l395 584h410z" />
    <glyph glyph-name="ycircumflex" unicode="&#x177;" 
d="M1026 1178h-238l-116 98l-137 -98h-238l299 358h217zM520 276q118 0 180 31l86 717h330l-131 -1090q-59 -483 -534 -483q-283 0 -459 68l41 331q217 -86 454 -86q82 0 119 32t47 104l11 92q-125 -29 -222 -29q-225 0 -303 108t-55 298l80 655h330l-76 -637
q-16 -111 102 -111z" />
    <glyph glyph-name="Ydieresis" unicode="&#x178;" horiz-adv-x="1515" 
d="M971 1833q10 82 72 138q63 57 145 57t132 -56t40 -139q-10 -82 -74 -138q-64 -57 -146 -57q-83 0 -131 56t-38 139zM479 1833q11 82 73 138q62 57 144 57t132 -56t40 -139q-10 -82 -73 -138q-63 -57 -147 -57t-131 56q-48 56 -38 139zM1616 1536l-670 -911l-76 -625h-348
l76 625l-448 911h409l252 -584l395 584h410z" />
    <glyph glyph-name="Zacute" unicode="&#x179;" horiz-adv-x="1277" 
d="M881 1690h-217l206 358h351zM1155 0h-1155l27 223l770 977h-617l43 336h1096l-29 -223l-770 -977h676z" />
    <glyph glyph-name="zacute" unicode="&#x17a;" horiz-adv-x="958" 
d="M664 1178h-218l209 358h351zM846 0h-856l26 217l447 494h-363l39 313h815l-26 -217l-449 -494h404z" />
    <glyph glyph-name="Zdotaccent" unicode="&#x17b;" horiz-adv-x="1277" 
d="M594 1832q10 83 74 139q64 57 145 57q82 0 131 -56t40 -139q-8 -82 -72 -138q-64 -57 -146 -57t-132 56t-40 138zM1155 0h-1155l27 223l770 977h-617l43 336h1096l-29 -223l-770 -977h676z" />
    <glyph glyph-name="zdotaccent" unicode="&#x17c;" horiz-adv-x="958" 
d="M379 1321q11 82 73 138q62 57 144 57t132 -56t40 -139q-10 -82 -74 -138q-64 -57 -146 -57q-83 0 -131 56t-38 139zM846 0h-856l26 217l447 494h-363l39 313h815l-26 -217l-449 -494h404z" />
    <glyph glyph-name="Zcaron" unicode="&#x17d;" horiz-adv-x="1277" 
d="M940 2048h238l-299 -358h-217l-213 358h237l115 -100zM1155 0h-1155l27 223l770 977h-617l41 336h1096l-27 -223l-772 -977h676z" />
    <glyph glyph-name="zcaron" unicode="&#x17e;" horiz-adv-x="958" 
d="M725 1536h238l-299 -358h-218l-213 358h238l115 -100zM846 0h-856l24 217l449 494h-363l37 313h815l-24 -217l-449 -494h404z" />
    <glyph glyph-name="florin" unicode="&#x192;" horiz-adv-x="1228" 
d="M840 1573q86 -1 216 -17t193 -45l-37 -317q-86 33 -204 50q-210 30 -293 -16q-41 -24 -47 -75l-25 -205h496l-37 -301h-496l-78 -647h-323l78 647h-166l28 240l172 45l27 221q25 199 155 309t341 111z" />
    <glyph glyph-name="Scommaaccent" unicode="&#x218;" horiz-adv-x="1269" 
d="M540 -37q-138 0 -284 31t-219 72l45 360q68 -43 199 -85t266 -42q248 0 270 180q8 68 -34 100t-152 44q-289 37 -392 136t-75 328q20 177 141 321q66 77 188 121t287 44q248 0 443 -92l-45 -365q-242 121 -445 121t-219 -150q-8 -61 41 -87t175 -40q246 -29 360 -127
t84 -352q-24 -202 -162 -350q-74 -78 -204 -123t-268 -45zM651 -352l-94 -160h-231l32 98q-72 60 -60 148t74 146q64 58 144 58t131 -56q51 -58 41 -138q-4 -45 -37 -96z" />
    <glyph glyph-name="scommaaccent" unicode="&#x219;" horiz-adv-x="1024" 
d="M555 -352l-94 -160h-232l33 98q-72 60 -60 148t74 146q64 58 144 58t131 -56q51 -58 41 -138q-4 -45 -37 -96zM567 748q-121 0 -129 -56q-4 -39 88 -45q233 -23 319 -92q85 -71 65 -229t-146 -260q-125 -102 -358 -103q-84 0 -203 23t-162 45l41 329q68 -32 180 -58
t195 -26q125 0 129 56q9 39 -88 45q-233 23 -319 92q-85 71 -65 229t146 260q125 102 358 103q78 -1 180 -19t154 -41l-41 -331q-53 26 -163 52t-181 26z" />
    <glyph glyph-name="circumflex" unicode="&#x2c6;" horiz-adv-x="1105" 
d="M1020 1178h-238l-114 98l-140 -98h-237l301 358h217z" />
    <glyph glyph-name="caron" unicode="&#x2c7;" horiz-adv-x="1105" 
d="M827 1536h238l-301 -358h-217l-211 358h237l115 -100z" />
    <glyph glyph-name="breve" unicode="&#x2d8;" horiz-adv-x="1105" 
d="M649 1133q-178 0 -246 99t-47 304h199q-7 -78 17 -113t110 -35t118 34t46 114h198q-31 -203 -124 -303t-271 -100z" />
    <glyph glyph-name="dotaccent" unicode="&#x2d9;" horiz-adv-x="1105" 
d="M479 1321q11 82 73 138q62 57 144 57t132 -56t40 -139q-10 -82 -73 -138q-63 -57 -147 -57t-131 56q-48 56 -38 139z" />
    <glyph glyph-name="ring" unicode="&#x2da;" horiz-adv-x="1105" 
d="M684 1403q-45 0 -51 -45t39 -45t51 45t-39 45zM650 1141q-101 0 -153 54t-38 162t79 162t166 54t153 -54q52 -53 38 -161t-79 -162t-166 -55z" />
    <glyph glyph-name="ogonek" unicode="&#x2db;" horiz-adv-x="1232" 
d="M572 -475q-126 0 -211 60t-68 188q19 167 163 255t345 113l-17 -141q-76 0 -139 -38t-69 -85t27 -64q52 -26 114 -18t84 19l-31 -250q-72 -39 -198 -39z" />
    <glyph glyph-name="tilde" unicode="&#x2dc;" horiz-adv-x="1105" 
d="M528 1583q60 1 108 -23t73 -51q69 -75 116 -73q90 0 101 96h223l-4 -41q-23 -182 -109 -270t-219 -88q-76 1 -130 37t-91 73t-74 37q-88 0 -102 -96h-223l6 41q45 358 325 358z" />
    <glyph glyph-name="hungarumlaut" unicode="&#x2dd;" horiz-adv-x="1105" 
d="M934 1178h-217l209 358h350zM551 1178h-217l209 358h350z" />
    <glyph glyph-name="pi" unicode="&#x3c0;" horiz-adv-x="1392" 
d="M764 616q27 0 27 -26q-4 -27 -33 -27h-80l6 53h80zM762 360q122 0 190 66t80 169t-38 168t-175 64h-348l-78 -630h240l20 163h109zM361 956q164 105 403 105t378 -105q155 -118 114 -445t-225 -443q-164 -105 -402 -105q-240 0 -378 105q-156 119 -115 444
q41 326 225 444z" />
    <glyph glyph-name="enspace" unicode="&#x2002;" horiz-adv-x="1024" 
 />
    <glyph glyph-name="emspace" unicode="&#x2003;" horiz-adv-x="2048" 
 />
    <glyph glyph-name="threeperemspace" unicode="&#x2004;" horiz-adv-x="681" 
 />
    <glyph glyph-name="fourperemspace" unicode="&#x2005;" horiz-adv-x="512" 
 />
    <glyph glyph-name="sixperemspace" unicode="&#x2006;" horiz-adv-x="342" 
 />
    <glyph glyph-name="figurespace" unicode="&#x2007;" horiz-adv-x="1228" 
 />
    <glyph glyph-name="punctuationspace" unicode="&#x2008;" horiz-adv-x="450" 
 />
    <glyph glyph-name="thinspace" unicode="&#x2009;" horiz-adv-x="204" 
 />
    <glyph glyph-name="hairspace" unicode="&#x200a;" horiz-adv-x="102" 
 />
    <glyph glyph-name="zerowidthspace" unicode="&#x200b;" horiz-adv-x="0" 
 />
    <glyph glyph-name="figuredash" unicode="&#x2012;" horiz-adv-x="1228" 
d="M1206 858l-39 -319h-1097l39 319h1097z" />
    <glyph glyph-name="endash" unicode="&#x2013;" horiz-adv-x="1024" 
d="M1001 858l-38 -319h-893l39 319h892z" />
    <glyph glyph-name="emdash" unicode="&#x2014;" horiz-adv-x="2048" 
d="M2025 858l-38 -319h-1917l39 319h1916z" />
    <glyph glyph-name="afii00208" unicode="&#x2015;" horiz-adv-x="2457" 
d="M2435 858l-39 -319h-2326l39 319h2326z" />
    <glyph glyph-name="quoteleft" unicode="&#x2018;" horiz-adv-x="512" 
d="M436 1024h-379q24 177 114 310t140 182l25 20h223q-15 -23 -35 -66t-54 -176t-34 -270z" />
    <glyph glyph-name="quoteright" unicode="&#x2019;" horiz-adv-x="512" 
d="M362 1024h-223q14 23 35 66q20 43 55 176t33 270h379q-24 -177 -114 -310t-140 -182z" />
    <glyph glyph-name="quotesinglbase" unicode="&#x201a;" horiz-adv-x="512" 
d="M199 -328h-224q14 23 35 66q20 43 55 176q34 133 31 270h379q-24 -174 -113 -311q-90 -137 -139 -180z" />
    <glyph glyph-name="quotedblleft" unicode="&#x201c;" horiz-adv-x="970" 
d="M66 1024l8 47q0 2 6 23l10 43q30 96 66 155q70 127 163 221q1 3 5 5t6 6l14 12h223l-2 -2v-2l-12 -21l-6 -12q-2 0 -6 -16q-18 -18 -33 -71t-23 -75q-39 -154 -41 -313h-378zM895 1024h-379q24 177 114 310t140 182l25 20h223q-14 -23 -34 -66t-55 -176
q-34 -133 -34 -270z" />
    <glyph glyph-name="quotedblright" unicode="&#x201d;" horiz-adv-x="962" 
d="M813 1024h-223q14 23 35 66q20 43 55 176t33 270h379q-24 -177 -114 -310t-140 -182zM362 1024h-223q14 23 35 66q20 43 55 176t33 270h379q-24 -177 -114 -310t-140 -182z" />
    <glyph glyph-name="quotedblbase" unicode="&#x201e;" horiz-adv-x="962" 
d="M649 -328h-223q14 23 35 66q20 43 54 176t32 270h379q-24 -174 -112 -309t-140 -182zM199 -328h-224q14 23 35 66q20 43 55 176q34 133 31 270h379q-24 -174 -113 -311q-90 -137 -139 -180z" />
    <glyph glyph-name="dagger" unicode="&#x2020;" horiz-adv-x="835" 
d="M729 1536l-61 -233l237 32l-45 -372l-231 30l2 -411h-410l105 411l-240 -30l45 374l229 -34l-4 233h373z" />
    <glyph glyph-name="daggerdbl" unicode="&#x2021;" horiz-adv-x="788" 
d="M641 993l-33 -131v-137l203 29l-45 -373l-231 31l4 -412h-410l102 412l-239 -31l45 375l199 -31l30 137l2 131l-205 -30l46 374l229 -34l-4 233h373l-62 -233l238 32l-45 -372z" />
    <glyph glyph-name="bullet" unicode="&#x2022;" horiz-adv-x="819" 
d="M164 768q14 115 105 196q91 80 206 80t185 -80t57 -196q-15 -115 -105 -196q-90 -80 -204 -80t-187 80q-71 81 -57 196z" />
    <glyph glyph-name="ellipsis" unicode="&#x2026;" horiz-adv-x="2027" 
d="M1669 352q82 0 132 -56t40 -138q-9 -82 -73 -138t-147 -57q-83 1 -131 57t-38 138t72 138t145 56zM993 352q82 0 132 -56t40 -138t-73 -138q-62 -56 -146 -57q-84 1 -132 57t-38 138t72 138t145 56zM317 352q83 0 133 -56t40 -138t-74 -138q-62 -56 -146 -57
q-84 1 -132 57t-38 138t72 138t145 56z" />
    <glyph glyph-name="perthousand" unicode="&#x2030;" horiz-adv-x="3047" 
d="M559 999q45 0 67 30t31 104q10 73 -5 103t-60 30t-67 -30q-21 -30 -31 -104t5 -103q15 -30 60 -30zM1669 537q-45 0 -67 -30t-30 -104q-9 -73 6 -103t60 -30t67 30t31 104t-6 103q-16 30 -61 30zM2550 537q-45 0 -67 -30q-23 -30 -31 -104q-8 -73 7 -103t60 -30t67 30
t30 104t-6 103q-15 30 -60 30zM2588 844q206 0 288 -111t56 -330q-28 -219 -138 -329t-316 -111q-206 1 -287 111q-82 110 -53 329q27 219 135 330q109 111 315 111zM1708 844q206 0 288 -111q83 -111 55 -330q-27 -219 -137 -329t-316 -111q-206 1 -288 111t-53 329
q27 219 136 330t315 111zM523 692q-206 0 -289 111t-56 330q53 440 451 440q207 -1 289 -111t55 -329t-135 -330t-315 -111zM674 0h-393l1275 1536h394z" />
    <glyph glyph-name="guilsinglleft" unicode="&#x2039;" horiz-adv-x="624" 
d="M100 418l25 188l426 307l-35 -280l-135 -121l106 -121l-34 -282z" />
    <glyph glyph-name="guilsinglright" unicode="&#x203a;" horiz-adv-x="624" 
d="M524 606l-24 -188l-426 -309l35 282l133 121l-105 121l35 280z" />
    <glyph glyph-name="fraction" unicode="&#x2044;" horiz-adv-x="1277" 
d="M229 0h-393l1276 1536h393z" />
    <glyph glyph-name="Euro" unicode="&#x20ac;" horiz-adv-x="1228" 
d="M890 1270q-171 0 -253 -152h422l-148 -321h-364l-8 -58h344l-148 -321h-186q45 -152 217 -152t352 60l-37 -308q-170 -55 -360 -55q-242 1 -368 107t-150 348h-150l39 321h119l8 58h-119l39 321h150q82 242 234 348q153 106 368 106t373 -54l-37 -308q-166 60 -337 60z
" />
    <glyph glyph-name="trademark" unicode="&#x2122;" horiz-adv-x="1239" 
d="M575 1364h-118l-43 -340h-181l43 340h-120l20 172h420zM963 1024h-123l-56 209l-22 -209h-168l63 512h197l80 -258l141 258h197l-64 -512h-168l29 209z" />
    <glyph glyph-name="Omega" unicode="&#x2126;" horiz-adv-x="811" 
d="M558 1020q74 0 220 37l-33 -271q-137 -35 -247 -34q-193 0 -267 101t-49 307t124 307t292 102q109 0 240 -35l-33 -270q-255 68 -316 8q-29 -28 -39 -112t12 -112t96 -28z" />
    <glyph glyph-name="partialdiff" unicode="&#x2202;" horiz-adv-x="1159" 
d="M564 266q82 0 121 64q63 101 59 302q-2 126 -148 126q-82 0 -122 -65t-50 -156t-9 -145t34 -90t115 -36zM144 116q-89 153 -52 396q32 254 147 393q127 156 408 156q78 0 150 -33q3 142 -51 190t-154 52q-164 6 -367 -78l39 313q143 68 342 68t305 -71q105 -71 147 -206
q79 -257 11 -768q-18 -142 -52 -237q-34 -94 -95 -171q-124 -157 -407 -157q-282 0 -371 153z" />
    <glyph glyph-name="Delta" unicode="&#x2206;" horiz-adv-x="1351" 
d="M743 1061q227 0 369 -161t114 -388t-209 -388t-409 -161t-368 161q-142 161 -113 388q27 227 208 388t408 161z" />
    <glyph glyph-name="product" unicode="&#x220f;" horiz-adv-x="1392" 
d="M739 616q27 0 27 -26q-4 -27 -33 -27h-71l6 53h71zM778 827h-321l-78 -630h237l23 178h45l47 -178h285l-96 241q59 55 71 164q29 225 -213 225zM361 956q164 105 403 105t378 -105q155 -118 114 -445t-225 -443q-164 -105 -402 -105q-240 0 -378 105q-156 119 -115 444
q41 326 225 444z" />
    <glyph glyph-name="summation" unicode="&#x2211;" horiz-adv-x="1863" 
d="M1061 1573q334 0 541 -236t165 -569q-27 -219 -157 -404t-328 -293q-199 -108 -418 -108t-391 108t-257 293t-58 404q41 334 305 570t598 235z" />
    <glyph glyph-name="minus" unicode="&#x2212;" horiz-adv-x="1064" 
d="M109 539l38 319h857l-39 -319h-856z" />
    <glyph glyph-name="radical" unicode="&#x221a;" horiz-adv-x="1351" 
d="M862 688h-332l-43 -352h332zM102 0l123 1024h1024l-123 -1024h-1024z" />
    <glyph glyph-name="infinity" unicode="&#x221e;" horiz-adv-x="1259" 
d="M388 1407q-70 1 -72 -21t22 -26q3 -1 90 -12q86 -10 114 -41t17 -125q-23 -176 -254 -176q-117 0 -178 30l18 152q100 -35 178 -35q79 1 83 21t-8 24q-29 10 -66 10q-119 14 -150 46t-18 124q18 176 254 176q92 1 160 -22l-19 -154q-101 29 -171 29zM983 1024h-123
l-55 209l-23 -209h-168l64 512h196l80 -258l142 258h196l-63 -512h-168l29 209z" />
    <glyph glyph-name="integral" unicode="&#x222b;" horiz-adv-x="1863" 
d="M1438 1200h-844l-107 -864h844zM102 0l187 1536h1536l-187 -1536h-1536z" />
    <glyph glyph-name="approxequal" unicode="&#x2248;" horiz-adv-x="1351" 
d="M547 387l28 250h230l-29 -250h-229zM862 688h-332l-43 -352h332zM102 0l123 1024h1024l-123 -1024h-1024z" />
    <glyph glyph-name="notequal" unicode="&#x2260;" horiz-adv-x="1863" 
d="M1638 0h-1536l187 1536h1536z" />
    <glyph glyph-name="lessequal" unicode="&#x2264;" horiz-adv-x="1761" 
d="M125 700l16 136l1131 731l-47 -389l-381 -228l-47 -22h893l-39 -320h-893l41 -22l325 -228l-47 -389z" />
    <glyph glyph-name="greaterequal" unicode="&#x2265;" horiz-adv-x="1761" 
d="M1698 836l-17 -136l-1128 -731l47 389l379 228l49 22h-893l39 320h893l-43 22l-324 228l48 389z" />
    <glyph glyph-name="lozenge" unicode="&#x25ca;" horiz-adv-x="1863" 
d="M768 393l-199 225l168 150l-131 150l254 225l131 -150l168 150l197 -225l-168 -150l131 -150l-252 -225l-131 150zM1438 1200h-844l-107 -864h844zM102 0l187 1536h1536l-187 -1536h-1536z" />
    <glyph glyph-name="zero.LP" horiz-adv-x="1228" 
d="M707 1270q-123 0 -170 -98t-80 -349q-33 -249 -30 -361t37 -154t120 -42q123 0 171 98t85 404q53 379 -14 459q-35 43 -119 43zM548 -37q-300 0 -390 176t-35 629t188 629t433 176t390 -177t34 -628t-188 -628t-432 -177z" />
    <glyph glyph-name="one.LP" horiz-adv-x="808" 
d="M565 1573h168l-190 -1573h-336l149 1239l-225 -8l29 233z" />
    <glyph glyph-name="two.LP" horiz-adv-x="1228" 
d="M703 1573q240 0 344 -74q105 -74 125 -186q20 -111 8 -183q-12 -100 -66 -188t-164 -199l-428 -424h576l-39 -319h-1012l27 225l696 760q66 69 75 137t-23 102t-130 33q-219 0 -426 -86l41 334q156 68 396 68z" />
    <glyph glyph-name="three.LP" horiz-adv-x="1228" 
d="M671 1573q297 0 405 -113t77 -352q-10 -84 -51 -168t-96 -121q70 -43 98 -137t14 -209q-33 -258 -177 -384q-145 -126 -455 -126t-445 72l39 323q199 -82 436 -82t262 197q10 92 -29 128q-40 36 -141 36h-266l39 315h266q76 0 117 45t49 116q17 147 -188 147
q-238 0 -445 -78l41 336q154 55 450 55z" />
    <glyph glyph-name="four.LP" horiz-adv-x="1228" 
d="M479 666h221l39 317zM35 348l24 203l838 1022h238l-111 -907h168l-39 -318h-168l-41 -348h-323l41 348h-627z" />
    <glyph glyph-name="five.LP" horiz-adv-x="1228" 
d="M45 33l41 323q49 -28 186 -52t253 -24t187 41q71 40 84 149t-49 132t-147 23h-442l110 911h965l-39 -315h-641l-33 -279l158 4q281 7 387 -125q90 -113 63 -346q-16 -129 -63 -225t-109 -150q-154 -137 -463 -137t-448 70z" />
    <glyph glyph-name="six.LP" horiz-adv-x="1228" 
d="M645 653q-169 0 -194 -188q-23 -188 149 -189q152 0 174 188t-129 189zM760 1255q-226 0 -254 -331q84 47 194 47t197 -33q88 -33 129 -85q94 -119 84 -256q-11 -183 -31 -254q-20 -72 -60 -143t-96 -121q-55 -50 -149 -83t-236 -33t-239 49q-98 48 -136 140
q-72 174 -26 501q20 170 45 290t74 247t117 205q67 78 177 128t253 50q279 0 391 -68l-39 -323q-180 73 -395 73z" />
    <glyph glyph-name="seven.LP" horiz-adv-x="1228" 
d="M506 0h-363l691 1223h-646l39 313h1022l-26 -211z" />
    <glyph glyph-name="eight.LP" horiz-adv-x="1228" 
d="M668 948q74 0 118 50t50 108q8 58 -21 105q-29 49 -111 49t-120 -48q-39 -48 -46 -105q-7 -58 24 -109q32 -50 106 -50zM629 635q-89 0 -145 -52t-65 -124t30 -127q39 -56 137 -56t149 56t61 127q10 72 -35 124q-44 52 -132 52zM743 1573q360 0 420 -297
q35 -173 -46 -338q-40 -82 -89 -123q57 -45 87 -151q55 -193 -35 -394q-139 -307 -533 -307q-270 0 -380 140t-85 350q14 107 70 213t122 149q-39 41 -59 123t-9 170q23 184 143 316q61 69 163 109t231 40z" />
    <glyph glyph-name="nine.LP" horiz-adv-x="1228" 
d="M645 883q99 0 143 56t52 132q23 188 -150 189q-152 0 -174 -188t129 -189zM530 281q119 0 182 90q62 90 72 241q-80 -47 -192 -47t-199 33q-88 33 -129 85q-92 117 -84 256q4 69 8 132q66 502 541 502q323 0 398 -186t26 -504q-20 -170 -45 -290t-74 -247
q-48 -127 -116 -205t-178 -128t-253 -50q-279 0 -391 68l41 323q178 -73 393 -73z" />
    <glyph glyph-name="onethirdemdash" horiz-adv-x="681" 
d="M659 858l-38 -319h-551l39 319h550z" />
    <glyph glyph-name="threequarteremdash" horiz-adv-x="1536" 
d="M1513 858l-38 -319h-1405l39 319h1404z" />
    <glyph glyph-name="Imacron" horiz-adv-x="657" 
d="M799 2048l-39 -319h-561l39 319h561zM442 0h-350l189 1536h350z" />
    <glyph glyph-name="ibreve" horiz-adv-x="655" 
d="M379 1133q-178 0 -246 99t-47 304h199q-7 -78 17 -113t110 -35t118 34t45 114h199q-31 -203 -124 -303t-271 -100zM391 -16q-139 0 -219 72t-61 216l92 752h325l-82 -666q-4 -31 12 -46t64 -15l-37 -313h-94z" />
    <glyph glyph-name="idotaccent" horiz-adv-x="655" 
d="M209 1321q11 82 73 138q62 57 144 57t132 -56t40 -139q-10 -82 -74 -138q-64 -57 -146 -57q-83 0 -131 56t-38 139zM391 -16q-139 0 -219 72t-61 216l92 752h325l-82 -666q-4 -31 12 -46t64 -15l-37 -313h-94z" />
    <glyph glyph-name="invertedbreve" horiz-adv-x="1105" 
d="M705 1581q179 0 247 -99t47 -304h-198q6 78 -18 112q-23 34 -109 35q-86 0 -118 -34t-46 -113h-199q31 205 123 304q93 99 271 99z" />
    <glyph glyph-name="doublegrave" horiz-adv-x="1105" 
d="M848 1178h-217l-252 358h350zM1231 1178h-217l-252 358h350z" />
    <glyph glyph-name="a.smcp" horiz-adv-x="1175" 
d="M625 422l-27 174l-68 -174h95zM1073 0h-354l-55 178h-236l-94 -178h-354l559 1040h225z" />
    <glyph glyph-name="b.smcp" horiz-adv-x="1042" 
d="M600 684q29 0 33 23q0 23 -27 22h-125l-6 -45h125zM573 393h-133l-10 -82h133q54 0 58 41q3 20 -7 30t-41 11zM627 1024q195 0 271 -80t58 -237q-8 -61 -63 -134q76 -80 57 -221q-41 -352 -420 -352h-458l123 1024h432z" />
    <glyph glyph-name="c.smcp" horiz-adv-x="1050" 
d="M664 1061q80 -1 184 -17t160 -43l-37 -305q-147 66 -348 52q-164 -12 -193 -236q-12 -94 19 -162t116 -74q197 -14 361 52l-37 -305q-61 -27 -171 -43t-214 -16t-195 43q-167 80 -205 294q-16 96 -2 211q31 240 171 394t391 155z" />
    <glyph glyph-name="d.smcp" horiz-adv-x="1124" 
d="M494 313q100 1 147 51t59 148t-22 148q-35 50 -135 51h-64l-49 -398h64zM455 0h-383l123 1024h383q508 0 444 -512t-567 -512z" />
    <glyph glyph-name="e.smcp" horiz-adv-x="1058" 
d="M909 674l-39 -316h-434l-6 -45h492l-37 -313h-813l123 1024h813l-37 -313h-492l-4 -37h434z" />
    <glyph glyph-name="f.smcp" horiz-adv-x="1024" 
d="M893 674l-39 -316h-418l-43 -358h-321l123 1024h796l-37 -313h-475l-4 -37h418z" />
    <glyph glyph-name="g.smcp" horiz-adv-x="1134" 
d="M666 1061q82 -1 200 -17t174 -43l-36 -305q-61 27 -170 43t-209 9q-164 -13 -193 -236q-12 -96 18 -166t117 -70l82 7l8 59h-178l37 313h502l-76 -624q-74 -31 -194 -49t-234 -18q-113 0 -205 43q-165 79 -203 294q-16 96 -2 211q31 240 171 394t391 155z" />
    <glyph glyph-name="h.smcp" horiz-adv-x="1171" 
d="M977 0h-324l43 365h-258l-43 -365h-323l123 1024h323l-41 -344h258l41 344h324z" />
    <glyph glyph-name="i.smcp" horiz-adv-x="626" 
d="M412 0h-320l123 1024h320z" />
    <glyph glyph-name="j.smcp" horiz-adv-x="821" 
d="M205 -37q-131 0 -217 33l39 315q94 -45 217 -35q74 6 82 70l82 678h321l-86 -707q-41 -354 -438 -354z" />
    <glyph glyph-name="k.smcp" horiz-adv-x="1191" 
d="M780 1024h461l-514 -434l393 -590h-434l-229 362l-25 -20l-41 -342h-319l123 1024h319l-33 -268z" />
    <glyph glyph-name="l.smcp" horiz-adv-x="1007" 
d="M516 1024l-86 -711h492l-37 -313h-813l123 1024h321z" />
    <glyph glyph-name="m.smcp" horiz-adv-x="1413" 
d="M776 96h-241l-91 400l-55 -496h-317l123 1024h395l117 -512l239 512h395l-122 -1024h-318l64 496z" />
    <glyph glyph-name="n.smcp" horiz-adv-x="1171" 
d="M977 0h-217l-314 444l-51 -444h-323l123 1024h217l313 -444l51 444h324z" />
    <glyph glyph-name="o.smcp" horiz-adv-x="1175" 
d="M750 512q14 117 -14 177q-28 61 -120 61t-134 -60t-56 -178q-14 -117 14 -178q28 -62 119 -62q93 0 135 62t56 178zM520 -37q-262 0 -357 139q-95 140 -61 410t162 410q129 140 391 139q262 0 357 -138q94 -139 60 -411t-162 -410t-390 -139z" />
    <glyph glyph-name="p.smcp" horiz-adv-x="1005" 
d="M582 594q53 0 57 59q8 57 -43 58h-117l-14 -117h117zM545 279h-119l-33 -279h-321l123 1024h440q201 0 279 -103t57 -269q-19 -166 -123 -269q-104 -104 -303 -104z" />
    <glyph glyph-name="q.smcp" horiz-adv-x="1175" 
d="M750 512q14 117 -14 177q-28 61 -120 61t-134 -60t-56 -178q-14 -117 14 -177q28 -61 119 -61q93 0 135 60t56 178zM655 1061q262 0 357 -138q94 -139 61 -408t-131 -372v-2l303 -59l-39 -330l-856 230q-303 82 -248 530q33 270 162 410t391 139z" />
    <glyph glyph-name="r.smcp" horiz-adv-x="1118" 
d="M598 629q55 0 59 41q9 39 -49 41h-129l-10 -82h129zM653 1024q201 0 279 -96t58 -262t-152 -273l188 -393h-375l-139 311h-82l-37 -311h-321l123 1024h458z" />
    <glyph glyph-name="s.smcp" horiz-adv-x="1040" 
d="M604 1061q231 0 363 -60l-37 -307q-129 53 -367 54q-123 0 -127 -39q-4 -27 119 -39q245 -24 319 -88t54 -237t-144 -277t-378 -104t-357 59l37 311q109 -57 371 -58q137 0 145 50q4 34 -113 47q-239 23 -317 84t-59 231q47 373 491 373z" />
    <glyph glyph-name="t.smcp" horiz-adv-x="980" 
d="M954 711h-274l-86 -711h-330l86 711h-274l37 313h878z" />
    <glyph glyph-name="u.smcp" 
d="M516 -37q-230 1 -332 107t-80 292l80 662h330l-80 -662q-8 -86 123 -86t139 86l80 662h330l-80 -662q-23 -186 -151 -292t-359 -107z" />
    <glyph glyph-name="v.smcp" horiz-adv-x="1175" 
d="M838 1024h358l-559 -1040h-225l-310 1040h359l125 -537z" />
    <glyph glyph-name="w.smcp" horiz-adv-x="1474" 
d="M1147 1024h348l-424 -1040h-240l-98 495l-217 -495h-240l-174 1040h349l41 -416l172 416h270l74 -416z" />
    <glyph glyph-name="x.smcp" horiz-adv-x="1267" 
d="M379 0h-410l465 526l-321 498h407l146 -252l206 252h410l-444 -498l338 -526h-408l-164 276z" />
    <glyph glyph-name="y.smcp" horiz-adv-x="1298" 
d="M920 1024h399l-528 -666l-43 -358h-320l43 358l-369 666h400l164 -375z" />
    <glyph glyph-name="z.smcp" horiz-adv-x="1028" 
d="M905 0h-905l27 221l485 488h-401l36 315h865l-27 -221l-487 -488h444z" />
    <glyph glyph-name="aacute.smcp" horiz-adv-x="1175" 
d="M625 422l-27 174l-68 -174h95zM778 1178h-217l207 358h350zM1073 0h-354l-55 178h-236l-94 -178h-354l559 1040h225z" />
    <glyph glyph-name="agrave.smcp" horiz-adv-x="1175" 
d="M625 422l-27 174l-68 -174h95zM778 1178h-217l-254 358h350zM1073 0h-354l-55 178h-236l-94 -178h-354l559 1040h225z" />
    <glyph glyph-name="acircumflex.smcp" horiz-adv-x="1175" 
d="M625 422l-27 174l-68 -174h95zM1034 1178h-237l-117 98l-137 -98h-238l299 358h217zM1073 0h-354l-55 178h-236l-94 -178h-354l559 1040h225z" />
    <glyph glyph-name="adieresis.smcp" horiz-adv-x="1175" 
d="M625 422l-27 174l-68 -174h95zM319 1459q63 57 145 57t132 -56q49 -56 40 -139q-8 -82 -72 -138q-64 -57 -146 -57t-132 56t-40 138q10 83 73 139zM1055 1183q-63 -57 -145 -57t-133 56q-50 56 -40 138q9 83 73 139q64 57 146 57t131 -56t40 -139q-9 -82 -72 -138z
M1073 0h-354l-55 178h-236l-94 -178h-354l559 1040h225z" />
    <glyph glyph-name="atilde.smcp" horiz-adv-x="1175" 
d="M547 1583q59 1 107 -23t73 -51q69 -75 117 -73q90 0 100 96h223l-4 -41q-23 -182 -109 -270t-218 -88q-76 1 -130 37t-92 73t-73 37q-88 0 -103 -96h-223l6 41q45 358 326 358zM625 422l-27 174l-68 -174h95zM1073 0h-354l-55 178h-236l-94 -178h-354l561 1040h225z" />
    <glyph glyph-name="aring.smcp" horiz-adv-x="1175" 
d="M696 1403q-45 0 -51 -45t39 -45t51 45t-39 45zM625 422l-27 174l-68 -174h95zM662 1141q-100 0 -153 54q-52 54 -38 162t79 162t166 54t153 -54q52 -53 38 -161t-79 -162q-66 -54 -166 -55zM1073 0h-354l-55 178h-236l-94 -178h-354l559 1040h225z" />
    <glyph glyph-name="ccedilla.smcp" horiz-adv-x="1003" 
d="M629 1061q80 -1 184 -17t160 -43l-37 -305q-147 66 -348 52q-164 -12 -193 -236q-12 -94 19 -162t116 -74q197 -14 361 52l-37 -305q-90 -39 -272 -56q-53 -71 8 -109t65 -87q6 -78 -80 -150h-290q53 41 77 87q25 46 -8 75q-104 59 6 194q-176 41 -246 187t-43 366
q28 222 168 376t390 155z" />
    <glyph glyph-name="eacute.smcp" horiz-adv-x="1048" 
d="M731 1178h-217l207 358h350zM909 674l-39 -316h-434l-6 -45h492l-37 -313h-813l123 1024h813l-37 -313h-492l-4 -37h434z" />
    <glyph glyph-name="egrave.smcp" horiz-adv-x="1048" 
d="M731 1178h-217l-254 358h350zM909 674l-39 -316h-434l-6 -45h492l-37 -313h-813l123 1024h813l-37 -313h-492l-4 -37h434z" />
    <glyph glyph-name="ecircumflex.smcp" horiz-adv-x="1048" 
d="M987 1178h-237l-117 98l-137 -98h-238l299 358h217zM909 674l-39 -316h-434l-6 -45h492l-37 -313h-813l123 1024h813l-37 -313h-492l-4 -37h434z" />
    <glyph glyph-name="edieresis.smcp" horiz-adv-x="1048" 
d="M272 1459q64 57 146 57t131 -56t40 -139q-9 -82 -73 -138q-64 -57 -145 -57q-82 0 -132 56t-40 138q10 83 73 139zM1008 1183q-64 -57 -146 -57t-132 56t-40 138q10 83 74 139q64 57 145 57q82 0 131 -56t40 -139q-9 -82 -72 -138zM909 674l-39 -316h-434l-6 -45h492
l-37 -313h-813l123 1024h813l-37 -313h-492l-4 -37h434z" />
    <glyph glyph-name="lacute.smcp" horiz-adv-x="1007" 
d="M485 1178h-217l209 358h350zM518 1024l-88 -711h492l-37 -313h-813l125 1024h321z" />
    <glyph glyph-name="oe.smcp" horiz-adv-x="1507" 
d="M588 313h43l49 398h-43q-99 -1 -147 -51t-60 -148t23 -148t135 -51zM553 0q-508 0 -444 512q63 512 569 512h792l-38 -313h-431l-4 -37h373l-39 -316h-373l-6 -45h430l-36 -313h-793z" />
    <glyph glyph-name="iacute.smcp" horiz-adv-x="655" 
d="M506 1178h-217l207 358h350zM412 0h-320l123 1024h320z" />
    <glyph glyph-name="igrave.smcp" horiz-adv-x="655" 
d="M506 1178h-217l-254 358h350zM412 0h-320l123 1024h320z" />
    <glyph glyph-name="icircumflex.smcp" horiz-adv-x="655" 
d="M762 1178h-238l-116 98l-138 -98h-237l299 358h217zM412 0h-320l123 1024h320z" />
    <glyph glyph-name="idieresis.smcp" horiz-adv-x="655" 
d="M291 1183q-63 -57 -145 -57t-133 56q-50 56 -40 138q9 83 73 139q64 57 146 57t132 -56t40 -139q-10 -82 -73 -138zM465 1320q9 83 73 139q64 57 146 57t131 -56t40 -139q-9 -82 -73 -138q-64 -57 -145 -57q-82 0 -132 56t-40 138zM412 0h-320l123 1024h320z" />
    <glyph glyph-name="oslash.smcp" horiz-adv-x="1159" 
d="M750 512q2 23 6 63l-269 -288q27 -14 72 -15q93 0 135 62t56 178zM426 512q-6 -37 -6 -70l272 291q-33 16 -76 17q-92 0 -133 -60t-57 -178zM520 -37q-172 0 -274 64l-25 -27h-211l131 141q-68 133 -36 388t160 393t390 139q176 0 279 -66l27 29h210l-133 -145
q64 -131 33 -384t-160 -393t-391 -139z" />
    <glyph glyph-name="oacute.smcp" horiz-adv-x="1175" 
d="M778 1178h-217l207 358h350zM750 512q14 117 -14 177q-28 61 -120 61t-134 -60t-56 -178q-14 -117 14 -178q28 -62 119 -62q93 0 135 62t56 178zM520 -37q-262 0 -357 139q-95 140 -61 410t162 410q129 140 391 139q262 0 357 -138q94 -139 60 -411t-162 -410t-390 -139z
" />
    <glyph glyph-name="ograve.smcp" horiz-adv-x="1175" 
d="M778 1178h-217l-254 358h350zM750 512q14 117 -14 177q-28 61 -120 61t-134 -60t-56 -178q-14 -117 14 -178q28 -62 119 -62q93 0 135 62t56 178zM520 -37q-262 0 -357 139q-95 140 -61 410t162 410q129 140 391 139q262 0 357 -138q94 -139 60 -411t-162 -410t-390 -139
z" />
    <glyph glyph-name="ocircumflex.smcp" horiz-adv-x="1175" 
d="M750 512q14 117 -14 177q-28 61 -120 61t-134 -60t-56 -178q-14 -117 14 -178q28 -62 119 -62q93 0 135 62t56 178zM1034 1178h-237l-117 98l-137 -98h-238l299 358h217zM520 -37q-262 0 -357 139q-95 140 -61 410t162 410q129 140 391 139q262 0 357 -138
q94 -139 60 -411t-162 -410t-390 -139z" />
    <glyph glyph-name="odieresis.smcp" horiz-adv-x="1175" 
d="M1055 1183q-63 -57 -145 -57t-133 56q-50 56 -40 138q9 83 73 139q64 57 146 57t131 -56t40 -139q-9 -82 -72 -138zM319 1459q63 57 145 57t132 -56q49 -56 40 -139q-8 -82 -72 -138q-64 -57 -146 -57t-132 56t-40 138q10 83 73 139zM750 512q14 117 -14 177
q-28 61 -120 61t-134 -60t-56 -178q-14 -117 14 -178q28 -62 119 -62q93 0 135 62t56 178zM520 -37q-262 0 -357 139q-95 140 -61 410t162 410q129 140 391 139q262 0 357 -138q94 -139 60 -411t-162 -410t-390 -139z" />
    <glyph glyph-name="otilde.smcp" horiz-adv-x="1175" 
d="M547 1583q59 1 107 -23t73 -51q69 -75 117 -73q90 0 100 96h223l-4 -41q-23 -182 -109 -270t-218 -88q-76 1 -130 37t-92 73t-73 37q-88 0 -103 -96h-223l6 41q45 358 326 358zM737 688q-27 62 -120 62t-134 -60t-56 -178q-15 -117 13 -178q28 -62 119 -62q93 0 135 62
t56 177q14 116 -13 177zM521 -37q-261 0 -356 138q-95 139 -61 411t161 410q128 138 390 139q262 0 358 -138q95 -139 61 -410t-163 -411t-390 -139z" />
    <glyph glyph-name="ntilde.smcp" horiz-adv-x="1171" 
d="M549 1583q59 1 107 -23t73 -51q69 -75 117 -73q90 0 100 96h223l-4 -41q-23 -182 -109 -270t-218 -88q-76 1 -130 37t-92 73t-73 37q-88 0 -103 -96h-223l6 41q45 358 326 358zM977 0h-217l-314 444l-51 -444h-323l125 1024h217l311 -444l53 444h324z" />
    <glyph glyph-name="zcaron.smcp" horiz-adv-x="1028" 
d="M762 1536h237l-301 -358h-217l-211 358h238l115 -100zM905 0h-905l27 221l485 488h-401l39 315h864l-27 -221l-489 -488h444z" />
    <glyph glyph-name="eth.smcp" horiz-adv-x="1236" 
d="M596 313q100 1 147 51t60 148q12 98 -23 148t-135 51h-63l-13 -105h164l-22 -184h-164l-15 -109h64zM682 1024q506 0 442 -512t-567 -512h-383l51 422h-141l22 184h142l51 418h383z" />
    <glyph glyph-name="thorn.smcp" horiz-adv-x="1005" 
d="M580 571h-117l-14 -116h116q54 0 58 59q8 57 -43 57zM528 139h-118l-17 -139h-321l125 1026h321l-16 -141h119q199 1 277 -103t56 -269q-20 -165 -124 -269t-302 -105z" />
    <glyph glyph-name="ordfeminine.smcp" horiz-adv-x="909" 
d="M473 1569h225l234 -801h-359l-53 276l-119 -276h-358z" />
    <glyph glyph-name="ordmasculine.smcp" horiz-adv-x="960" 
d="M540 1020q58 0 86 34t38 106t-10 107q-20 33 -80 33q-58 0 -86 -32t-38 -107q-10 -73 12 -107q20 -34 78 -34zM508 752q-188 0 -264 102t-51 307q49 408 415 408q188 -1 263 -103t51 -306t-126 -306q-100 -102 -288 -102z" />
    <glyph glyph-name="uacute.smcp" 
d="M774 1178h-217l207 358h350zM516 -37q-230 1 -332 107t-80 292l80 662h330l-80 -662q-8 -86 123 -86t139 86l80 662h330l-80 -662q-23 -186 -151 -292t-359 -107z" />
    <glyph glyph-name="ugrave.smcp" 
d="M774 1178h-217l-254 358h350zM516 -37q-230 1 -332 107t-80 292l80 662h330l-80 -662q-8 -86 123 -86t139 86l80 662h330l-80 -662q-23 -186 -151 -292t-359 -107z" />
    <glyph glyph-name="ucircumflex.smcp" 
d="M1030 1178h-237l-117 98l-137 -98h-238l299 358h217zM516 -37q-230 1 -332 107t-80 292l80 662h330l-80 -662q-8 -86 123 -86t139 86l80 662h330l-80 -662q-23 -186 -151 -292t-359 -107z" />
    <glyph glyph-name="udieresis.smcp" 
d="M315 1459q63 57 145 57t132 -56q49 -56 40 -139q-8 -82 -72 -138q-64 -57 -146 -57t-132 56t-40 138q10 83 73 139zM1051 1183q-63 -57 -145 -57t-133 56q-50 56 -40 138q9 83 73 139q64 57 146 57t131 -56t40 -139q-9 -82 -72 -138zM516 -37q-230 1 -332 107t-80 292
l80 662h330l-80 -662q-8 -86 123 -86t139 86l80 662h330l-80 -662q-23 -186 -151 -292t-359 -107z" />
    <glyph glyph-name="amacron.smcp" horiz-adv-x="1175" 
d="M995 1536l-41 -319h-561l41 319h561zM625 422l-27 174l-68 -174h95zM1073 0h-354l-55 178h-236l-94 -178h-354l561 1040h225z" />
    <glyph glyph-name="abreve.smcp" horiz-adv-x="1175" 
d="M664 1133q-178 0 -246 99t-47 304h198q-6 -78 18 -113q23 -35 109 -35t118 34t46 114h199q-31 -203 -124 -303t-271 -100zM625 422l-27 174l-68 -174h95zM1073 0h-354l-55 178h-236l-94 -178h-354l561 1040h225z" />
    <glyph glyph-name="aogonek.smcp" horiz-adv-x="1175" 
d="M625 422l-27 174l-68 -174h95zM861 -475q-126 0 -211 60q-84 61 -68 195t133 226l-51 172h-236l-94 -178h-354l561 1040h225l307 -1040q-76 0 -139 -38q-64 -38 -70 -85t28 -64q52 -26 141 -14q30 4 44 8l13 7l-31 -250q-72 -39 -198 -39z" />
    <glyph glyph-name="ae.smcp" horiz-adv-x="1507" 
d="M639 674h37l8 67zM1470 1024l-38 -313h-431l-4 -37h373l-39 -316h-373l-6 -45h430l-36 -313h-752l43 358h-207l-233 -358h-367l711 1024h929z" />
    <glyph glyph-name="cacute.smcp" horiz-adv-x="1050" 
d="M772 1178h-217l209 358h350zM664 1061q80 -1 185 -17t161 -43l-39 -305q-147 66 -348 52q-89 -6 -135 -73t-58 -163q-25 -223 135 -236q197 -14 361 52l-37 -305q-61 -27 -171 -43t-190 -17q-250 1 -352 155t-74 394q31 240 171 394t391 155z" />
    <glyph glyph-name="ccircumflex.smcp" horiz-adv-x="1050" 
d="M1028 1178h-237l-115 98l-139 -98h-238l301 358h217zM664 1061q80 -1 185 -17t161 -43l-39 -305q-147 66 -348 52q-89 -6 -135 -73t-58 -163q-25 -223 135 -236q197 -14 361 52l-37 -305q-61 -27 -171 -43t-190 -17q-250 1 -352 155t-74 394q31 240 171 394t391 155z" />
    <glyph glyph-name="ccaron.smcp" horiz-adv-x="1050" 
d="M836 1536h237l-301 -358h-217l-211 358h238l114 -100zM664 1061q80 -1 185 -17t161 -43l-39 -305q-147 66 -348 52q-89 -6 -135 -73t-58 -163q-25 -223 135 -236q197 -14 361 52l-37 -305q-61 -27 -171 -43t-190 -17q-250 1 -352 155t-74 394q31 240 171 394t391 155z
" />
    <glyph glyph-name="cdotaccent.smcp" horiz-adv-x="1050" 
d="M487 1321q11 82 73 138q62 57 144 57t133 -56q50 -56 40 -139q-9 -82 -73 -138q-64 -57 -148 -57t-131 56q-48 56 -38 139zM664 1061q80 -1 185 -17t161 -43l-39 -305q-147 66 -348 52q-89 -6 -135 -73t-58 -163q-25 -223 135 -236q197 -14 361 52l-37 -305
q-61 -27 -171 -43t-190 -17q-250 1 -352 155t-74 394q31 240 171 394t391 155z" />
    <glyph glyph-name="dcaron.smcp" horiz-adv-x="1124" 
d="M795 1536h237l-301 -358h-217l-211 358h238l114 -100zM494 313q100 1 147 51t59 148t-22 148q-35 50 -135 51h-64l-49 -398h64zM455 0h-383l125 1024h383q506 0 442 -512t-567 -512z" />
    <glyph glyph-name="dcroat.smcp" horiz-adv-x="1236" 
d="M596 313q100 1 147 51t60 148q12 98 -23 148t-135 51h-63l-13 -105h164l-22 -184h-164l-15 -109h64zM682 1024q506 0 442 -512t-567 -512h-383l51 422h-141l22 184h142l51 418h383z" />
    <glyph glyph-name="ecaron.smcp" horiz-adv-x="1048" 
d="M303 1536h238l114 -98l140 98h237l-301 -358h-217zM909 674l-39 -316h-434l-6 -45h492l-37 -313h-813l125 1024h813l-39 -313h-492l-4 -37h434z" />
    <glyph glyph-name="emacron.smcp" horiz-adv-x="1058" 
d="M948 1536l-41 -319h-561l41 319h561zM909 674l-39 -316h-434l-6 -45h492l-37 -313h-813l125 1024h813l-39 -313h-492l-4 -37h434z" />
    <glyph glyph-name="ebreve.smcp" horiz-adv-x="1058" 
d="M616 1133q-178 0 -246 99t-46 304h198q-6 -78 18 -113t110 -35t117 34q32 34 46 114h199q-30 -203 -124 -303t-272 -100zM909 674l-39 -316h-434l-6 -45h492l-37 -313h-813l125 1024h813l-39 -313h-492l-4 -37h434z" />
    <glyph glyph-name="edotaccent.smcp" horiz-adv-x="1058" 
d="M446 1321q10 82 72 138q62 57 146 57q82 0 132 -56t40 -139q-10 -82 -74 -138q-64 -57 -146 -57q-84 0 -132 56t-38 139zM909 674l-39 -316h-434l-6 -45h492l-37 -313h-813l125 1024h813l-39 -313h-492l-4 -37h434z" />
    <glyph glyph-name="eogonek.smcp" horiz-adv-x="1058" 
d="M672 -475q-126 0 -210 60q-85 61 -69 193t127 222h-448l125 1024h813l-39 -313h-492l-4 -37h434l-39 -316h-434l-6 -45h492l-37 -313q-75 0 -139 -38t-70 -85t28 -64t87 -18q54 -1 98 12l12 7l-31 -250q-72 -39 -198 -39z" />
    <glyph glyph-name="gcircumflex.smcp" horiz-adv-x="1134" 
d="M1040 1178h-237l-115 98l-139 -98h-238l301 358h217zM666 1061q84 -1 202 -17t174 -43l-38 -305q-61 27 -170 43q-109 15 -203 9q-95 -6 -141 -73t-57 -164t19 -166t115 -69l82 7l8 59h-178l39 313h502l-78 -624q-74 -31 -194 -49t-234 -18q-113 0 -205 43
q-165 79 -203 294q-16 96 -2 211q31 240 171 394t391 155z" />
    <glyph glyph-name="gbreve.smcp" horiz-adv-x="1134" 
d="M670 1133q-178 0 -246 99t-47 304h198q-6 -78 18 -113q23 -35 109 -35t118 34t46 114h199q-31 -203 -124 -303t-271 -100zM666 1061q84 -1 202 -17t174 -43l-38 -305q-61 27 -170 43q-109 15 -203 9q-95 -6 -141 -73t-57 -164t19 -166t115 -69l82 7l8 59h-178l39 313h502
l-78 -624q-74 -31 -194 -49t-234 -18q-113 0 -205 43q-165 79 -203 294q-16 96 -2 211q31 240 171 394t391 155z" />
    <glyph glyph-name="gdotaccent.smcp" horiz-adv-x="1134" 
d="M500 1321q10 82 72 138q62 57 144 57t133 -56q50 -56 40 -139q-9 -82 -73 -138q-64 -57 -147 -57t-131 56t-38 139zM666 1061q84 -1 202 -17t174 -43l-38 -305q-61 27 -170 43q-109 15 -203 9q-95 -6 -141 -73t-57 -164t19 -166t115 -69l82 7l8 59h-178l39 313h502
l-78 -624q-74 -31 -194 -49t-234 -18q-113 0 -205 43q-165 79 -203 294q-16 96 -2 211q31 240 171 394t391 155z" />
    <glyph glyph-name="gcommaaccent.smcp" horiz-adv-x="1134" 
d="M662 -352l-95 -160h-231l33 98q-72 60 -61 148q10 88 74 146t144 58t131 -56q51 -58 41 -138q-3 -45 -36 -96zM666 1061q84 -1 202 -17t174 -43l-38 -305q-61 27 -170 43q-109 15 -203 9q-95 -6 -141 -73t-57 -164t19 -166t115 -69l82 7l8 59h-178l39 313h502l-78 -624
q-74 -31 -194 -49t-234 -18q-113 0 -205 43q-165 79 -203 294q-16 96 -2 211q31 240 171 394t391 155z" />
    <glyph glyph-name="hcircumflex.smcp" horiz-adv-x="1171" 
d="M1032 1178h-237l-115 98l-139 -98h-238l301 358h217zM977 0h-324l43 365h-258l-43 -365h-323l125 1024h323l-43 -344h258l43 344h324z" />
    <glyph glyph-name="hbar.smcp" horiz-adv-x="1171" 
d="M467 598h258l12 86h-258zM977 0h-324l33 283h-258l-33 -283h-323l125 1024h323l-12 -106h258l12 106h324z" />
    <glyph glyph-name="itilde.smcp" horiz-adv-x="655" 
d="M274 1583q60 1 108 -23t73 -51q69 -75 116 -73q90 0 101 96h223l-4 -41q-23 -182 -109 -270t-219 -88q-76 1 -130 37t-91 73t-74 37q-88 0 -102 -96h-223l6 41q45 358 325 358zM412 0h-320l125 1024h320z" />
    <glyph glyph-name="imacron.smcp" horiz-adv-x="655" 
d="M723 1536l-41 -319h-561l41 319h561zM412 0h-320l125 1024h320z" />
    <glyph glyph-name="ibreve.smcp" horiz-adv-x="655" 
d="M391 1133q-178 0 -246 99t-47 304h199q-7 -78 17 -113t110 -35t118 34t46 114h198q-31 -203 -124 -303t-271 -100zM412 0h-320l125 1024h320z" />
    <glyph glyph-name="idotaccent.smcp" horiz-adv-x="655" 
d="M221 1321q11 82 73 138q62 57 144 57t132 -56t40 -139q-10 -82 -73 -138q-63 -57 -147 -57t-131 56q-48 56 -38 139zM412 0h-320l125 1024h320z" />
    <glyph glyph-name="iogonek.smcp" horiz-adv-x="626" 
d="M208 -475q-126 0 -210 60t-68 188q16 164 164 260l123 991h320l-125 -1024h-17q-72 -4 -125 -41t-59 -83t28 -63t96 -18t101 19l-30 -250q-72 -39 -198 -39z" />
    <glyph glyph-name="jcircumflex.smcp" horiz-adv-x="821" 
d="M954 1178h-237l-115 98l-139 -98h-238l301 358h217zM205 -37q-131 0 -217 33l39 315q94 -45 217 -35q74 6 82 70l84 678h321l-86 -707q-45 -354 -440 -354z" />
    <glyph glyph-name="kcommaaccent.smcp" horiz-adv-x="1191" 
d="M659 -352l-94 -160h-231l33 98q-72 60 -61 148q10 88 74 146t144 58t131 -56q51 -58 41 -138q-4 -45 -37 -96zM782 1024h461l-516 -434l393 -590h-434l-229 362l-25 -20l-41 -342h-319l125 1024h319l-33 -268z" />
    <glyph glyph-name="lcaron.smcp" horiz-adv-x="1007" 
d="M678 1229h231l-147 -410h-166zM518 1024l-88 -711h492l-37 -313h-813l125 1024h321z" />
    <glyph glyph-name="lcommaaccent.smcp" horiz-adv-x="1007" 
d="M598 -352l-94 -160h-232l33 98q-73 60 -61 148t75 146t143 58t132 -56q51 -58 41 -138q-4 -45 -37 -96zM518 1024l-88 -711h492l-37 -313h-813l125 1024h321z" />
    <glyph glyph-name="ldot.smcp" horiz-adv-x="1007" 
d="M840 809q82 0 131 -56q49 -57 40 -139t-73 -138t-145 -56q-82 0 -133 55q-49 55 -39 138t73 139q64 56 146 57zM518 1024l-88 -711h492l-37 -313h-813l125 1024h321z" />
    <glyph glyph-name="lslash.smcp" horiz-adv-x="1110" 
d="M911 559l-358 -78l-21 -168h492l-37 -313h-813l49 410l-168 -35l21 162l168 34l55 453h322l-48 -381l359 78z" />
    <glyph glyph-name="nacute.smcp" horiz-adv-x="1171" 
d="M776 1178h-217l209 358h350zM977 0h-217l-314 444l-51 -444h-323l125 1024h217l311 -444l53 444h324z" />
    <glyph glyph-name="ncaron.smcp" horiz-adv-x="1171" 
d="M348 1536h238l114 -98l140 98h237l-301 -358h-217zM977 0h-217l-314 444l-51 -444h-323l125 1024h217l311 -444l53 444h324z" />
    <glyph glyph-name="ncommaaccent.smcp" horiz-adv-x="1171" 
d="M659 -352l-94 -160h-231l33 98q-72 60 -61 148q10 88 74 146t144 58t131 -56q51 -58 41 -138q-4 -45 -37 -96zM977 0h-217l-314 444l-51 -444h-323l125 1024h217l311 -444l53 444h324z" />
    <glyph glyph-name="omacron.smcp" horiz-adv-x="1175" 
d="M995 1536l-41 -319h-561l41 319h561zM737 688q-27 62 -120 62t-134 -60t-56 -178q-15 -117 13 -178q28 -62 119 -62q93 0 135 62t56 177q14 116 -13 177zM521 -37q-261 0 -356 138q-95 139 -61 411t161 410q128 138 390 139q262 0 358 -138q95 -139 61 -410t-163 -411
t-390 -139z" />
    <glyph glyph-name="obreve.smcp" horiz-adv-x="1175" 
d="M664 1133q-178 0 -246 99t-47 304h198q-6 -78 18 -113q23 -35 109 -35t118 34t46 114h199q-31 -203 -124 -303t-271 -100zM737 688q-27 62 -120 62t-134 -60t-56 -178q-15 -117 13 -178q28 -62 119 -62q93 0 135 62t56 177q14 116 -13 177zM521 -37q-261 0 -356 138
q-95 139 -61 411t161 410q128 138 390 139q262 0 358 -138q95 -139 61 -410t-163 -411t-390 -139z" />
    <glyph glyph-name="ohungarumlaut.smcp" horiz-adv-x="1175" 
d="M965 1178h-217l208 358h351zM582 1178h-217l208 358h351zM737 688q-27 62 -120 62t-134 -60t-56 -178q-15 -117 13 -178q28 -62 119 -62q93 0 135 62t56 177q14 116 -13 177zM521 -37q-261 0 -356 138q-95 139 -61 411t161 410q128 138 390 139q262 0 358 -138
q95 -139 61 -410t-163 -411t-390 -139z" />
    <glyph glyph-name="scaron.smcp" horiz-adv-x="1040" 
d="M774 1536h238l-301 -358h-217l-211 358h237l115 -100zM604 1061q229 0 365 -60l-39 -307q-129 53 -367 54q-123 0 -127 -39q-4 -27 121 -39q243 -24 317 -88t54 -238t-144 -277t-378 -103t-357 59l39 311q109 -57 369 -58q137 0 145 50q4 34 -113 47q-239 23 -317 84
t-57 231q47 373 489 373z" />
    <glyph glyph-name="racute.smcp" horiz-adv-x="1118" 
d="M698 1178h-217l209 358h350zM608 711h-129l-10 -82h129q55 0 61 41q4 41 -51 41zM655 1024q201 0 279 -96t56 -263t-152 -272l188 -393h-375l-139 311h-82l-37 -311h-321l125 1024h458z" />
    <glyph glyph-name="rcaron.smcp" horiz-adv-x="1118" 
d="M782 1536h238l-301 -358h-217l-211 358h237l115 -100zM608 711h-129l-10 -82h129q55 0 61 41q4 41 -51 41zM655 1024q201 0 279 -96t56 -263t-152 -272l188 -393h-375l-139 311h-82l-37 -311h-321l125 1024h458z" />
    <glyph glyph-name="rcommaaccent.smcp" horiz-adv-x="1118" 
d="M639 -352l-94 -160h-232l33 98q-72 60 -60 148t74 146q64 58 144 58t131 -56q51 -58 41 -138q-4 -45 -37 -96zM608 711h-129l-10 -82h129q55 0 61 41q4 41 -51 41zM655 1024q201 0 279 -96t56 -263t-152 -272l188 -393h-375l-139 311h-82l-37 -311h-321l125 1024h458z
" />
    <glyph glyph-name="sacute.smcp" horiz-adv-x="1040" 
d="M711 1178h-217l208 358h351zM604 1061q229 0 365 -60l-39 -307q-129 53 -367 54q-123 0 -127 -39q-4 -27 121 -39q243 -24 317 -88t54 -238t-144 -277t-378 -103t-357 59l39 311q109 -57 369 -58q137 0 145 50q4 34 -113 47q-239 23 -317 84t-57 231q47 373 489 373z" />
    <glyph glyph-name="scircumflex.smcp" horiz-adv-x="1040" 
d="M475 1178h-237l301 358h217l211 -358h-238l-115 100zM604 1061q229 0 365 -60l-39 -307q-129 53 -367 54q-123 0 -127 -39q-4 -27 121 -39q243 -24 317 -88t54 -238t-144 -277t-378 -103t-357 59l39 311q109 -57 369 -58q137 0 145 50q4 34 -113 47q-239 23 -317 84
t-57 231q47 373 489 373z" />
    <glyph glyph-name="scommaaccent.smcp" horiz-adv-x="1040" 
d="M563 -352l-94 -160h-231l32 98q-72 60 -60 148t74 146q64 58 144 58t131 -56q51 -58 41 -138q-4 -45 -37 -96zM604 1061q229 0 365 -60l-39 -307q-129 53 -367 54q-123 0 -127 -39q-4 -27 121 -39q243 -24 317 -88t54 -238t-144 -277t-378 -103t-357 59l39 311
q109 -57 369 -58q137 0 145 50q4 34 -113 47q-239 23 -317 84t-57 231q47 373 489 373z" />
    <glyph glyph-name="scedilla.smcp" horiz-adv-x="1040" 
d="M604 1061q229 0 365 -60l-39 -307q-129 53 -367 54q-123 0 -127 -39q-4 -27 121 -39q243 -24 317 -88t54 -246q-18 -146 -114 -244t-286 -121q-56 -75 6 -113t66 -87q6 -78 -80 -150h-291q53 41 77 87t-9 75q-98 57 2 186q-178 12 -250 54l39 311q109 -57 369 -58
q137 0 145 50q4 34 -113 47q-239 23 -317 84t-57 231q47 373 489 373z" />
    <glyph glyph-name="germandbls.smcp" horiz-adv-x="2080" 
d="M1645 1061q229 0 364 -60l-39 -307q-129 53 -366 54q-123 0 -127 -39q-4 -28 120 -39q244 -24 318 -88q73 -64 53 -238t-144 -277t-378 -103t-356 59l38 311q109 -57 369 -58q137 0 145 50q4 34 -112 47q-238 23 -317 84t-58 231q47 373 490 373zM604 1061q229 0 365 -60
l-39 -307q-129 53 -367 54q-123 0 -127 -39q-4 -27 121 -39q243 -24 317 -88t54 -238t-144 -277t-378 -103t-357 59l39 311q109 -57 369 -58q137 0 145 50q4 34 -113 47q-239 23 -317 84t-57 231q47 373 489 373z" />
    <glyph glyph-name="tcaron.smcp" horiz-adv-x="980" 
d="M250 1536h237l115 -98l139 98h238l-301 -358h-217zM954 711h-274l-86 -711h-330l86 711h-274l39 313h878z" />
    <glyph glyph-name="tcommaaccent.smcp" horiz-adv-x="980" 
d="M555 -352l-94 -160h-232l33 98q-72 60 -60 148t74 146q64 58 144 58t131 -56q51 -58 41 -138q-4 -45 -37 -96zM954 711h-274l-86 -711h-330l86 711h-274l39 313h878z" />
    <glyph glyph-name="tbar.smcp" horiz-adv-x="980" 
d="M954 711h-274l-21 -166h164l-28 -234h-164l-37 -311h-330l37 311h-164l29 234h164l20 166h-274l39 313h878z" />
    <glyph glyph-name="utilde.smcp" 
d="M543 1583q59 1 107 -23t73 -51q69 -75 117 -73q90 0 100 96h223l-4 -41q-23 -182 -109 -270t-219 -88q-76 1 -130 37t-91 73t-73 37q-88 0 -103 -96h-223l6 41q45 358 326 358zM516 -37q-230 1 -332 107t-80 292l82 662h330l-82 -662q-8 -86 123 -86t139 86l82 662h330
l-82 -662q-23 -186 -151 -292t-359 -107z" />
    <glyph glyph-name="uring.smcp" 
d="M694 1403q-45 0 -51 -45t39 -45t51 45t-39 45zM660 1141q-100 0 -153 54q-52 54 -38 162t79 162t166 54t153 -54q52 -53 38 -161t-79 -162q-66 -54 -166 -55zM516 -37q-230 1 -332 107t-80 292l82 662h330l-82 -662q-8 -86 123 -86t139 86l82 662h330l-82 -662
q-23 -186 -151 -292t-359 -107z" />
    <glyph glyph-name="umacron.smcp" 
d="M991 1536l-41 -319h-561l41 319h561zM516 -37q-230 1 -332 107t-80 292l82 662h330l-82 -662q-8 -86 123 -86t139 86l82 662h330l-82 -662q-23 -186 -151 -292t-359 -107z" />
    <glyph glyph-name="ubreve.smcp" 
d="M659 1133q-177 0 -245 99t-47 304h198q-6 -78 18 -113q23 -35 109 -35t118 34t46 114h199q-31 -203 -125 -303t-271 -100zM516 -37q-230 1 -332 107t-80 292l82 662h330l-82 -662q-8 -86 123 -86t139 86l82 662h330l-82 -662q-23 -186 -151 -292t-359 -107z" />
    <glyph glyph-name="uhungarumlaut.smcp" 
d="M961 1178h-218l209 358h351zM578 1178h-218l209 358h351zM516 -37q-230 1 -332 107t-80 292l82 662h330l-82 -662q-8 -86 123 -86t139 86l82 662h330l-82 -662q-23 -186 -151 -292t-359 -107z" />
    <glyph glyph-name="uogonek.smcp" 
d="M568 -475q-126 0 -211 60q-85 59 -69 181t103 207q-325 53 -287 389l82 662h330l-82 -662q-8 -86 123 -86t139 86l82 662h330l-82 -662q-37 -303 -319 -376q-53 -16 -93 -47t-44 -70q-9 -71 110 -74q76 0 117 19l-31 -250q-72 -39 -198 -39z" />
    <glyph glyph-name="wcircumflex.smcp" horiz-adv-x="1474" 
d="M1184 1178h-238l-115 98l-139 -98h-237l301 358h217zM1149 1024h348l-426 -1040h-240l-98 495l-217 -495h-240l-172 1040h349l39 -416l174 416h270l72 -416z" />
    <glyph glyph-name="yacute.smcp" horiz-adv-x="1298" 
d="M842 1178h-217l209 358h350zM922 1024h399l-530 -666l-43 -358h-320l43 358l-367 666h400l162 -375z" />
    <glyph glyph-name="ycircumflex.smcp" horiz-adv-x="1298" 
d="M1096 1178h-238l-115 98l-139 -98h-237l301 358h217zM922 1024h399l-530 -666l-43 -358h-320l43 358l-367 666h400l162 -375z" />
    <glyph glyph-name="ydieresis.smcp" horiz-adv-x="1298" 
d="M309 1321q11 82 73 138q62 57 144 57t132 -56t40 -139q-10 -82 -73 -138q-63 -57 -147 -57t-131 56q-48 56 -38 139zM801 1321q10 82 72 138q63 57 145 57t132 -56t40 -139q-10 -82 -74 -138q-64 -57 -146 -57q-83 0 -131 56t-38 139zM922 1024h399l-530 -666l-43 -358
h-320l43 358l-367 666h400l162 -375z" />
    <glyph glyph-name="ij.smcp" horiz-adv-x="1447" 
d="M831 -37q-131 0 -217 33l39 315q94 -45 217 -35q74 6 82 70l84 678h322l-86 -707q-45 -354 -441 -354zM412 0h-320l125 1024h320z" />
    <glyph glyph-name="zacute.smcp" horiz-adv-x="1028" 
d="M698 1178h-217l209 358h350zM905 0h-905l27 221l485 488h-401l39 315h864l-27 -221l-489 -488h444z" />
    <glyph glyph-name="zdotaccent.smcp" horiz-adv-x="1028" 
d="M414 1321q10 82 72 138q62 57 144 57t133 -56q50 -56 40 -139q-9 -82 -73 -138q-64 -57 -147 -57t-131 56t-38 139zM905 0h-905l27 221l485 488h-401l39 315h864l-27 -221l-489 -488h444z" />
    <glyph glyph-name="eng.smcp" horiz-adv-x="1171" 
d="M371 -549l37 305q96 0 156 36t69 93l31 250l-218 309l-51 -444h-323l125 1024h217l311 -444l53 444h324l-144 -1159q-16 -139 -109 -237q-169 -178 -478 -177z" />
    <glyph glyph-name="commaaccent" horiz-adv-x="1105" 
d="M641 -352l-94 -160h-232l33 98q-72 60 -60 148t74 146q64 58 144 58t131 -56q51 -58 41 -138q-4 -45 -37 -96z" />
    <glyph glyph-name="zero.OP" horiz-adv-x="1228" 
d="M645 758q-98 0 -153 -52q-56 -52 -72 -194t24 -195q42 -51 140 -51t153 51t71 193t-24 196q-41 52 -139 52zM547 -37q-264 0 -379 120t-76 429t182 429q144 120 408 120t379 -120t76 -429t-183 -429t-407 -120z" />
    <glyph glyph-name="one.OP" horiz-adv-x="808" 
d="M504 1061h168l-129 -1061h-336l88 727l-227 -8l28 233z" />
    <glyph glyph-name="two.OP" horiz-adv-x="1024" 
d="M879 0h-856l24 217l490 397q82 69 44 115q-13 16 -55 19q-193 12 -372 -70l39 323q137 59 377 59t323 -85q82 -86 61 -238q-9 -87 -74 -185q-22 -32 -72 -74t-73 -57t-91 -56t-83 -52h354z" />
    <glyph glyph-name="three.OP" horiz-adv-x="1126" 
d="M502 745q-178 0 -385 -77l41 336q156 55 383 55q506 0 448 -465q-10 -80 -46 -165t-85 -124q63 -45 85 -142t9 -204q-29 -231 -171 -369q-143 -138 -405 -139q-262 0 -399 72l39 323q198 -82 386 -82t210 195q10 82 -26 123q-37 41 -131 41h-226l39 315h226q74 0 110 46
t43 110q17 151 -145 151z" />
    <glyph glyph-name="four.OP" horiz-adv-x="1290" 
d="M481 317h146l24 191zM25 0l24 203l756 858h237l-92 -744h209l-37 -317h-209l-63 -512h-324l64 512h-565z" />
    <glyph glyph-name="five.OP" horiz-adv-x="1085" 
d="M342 -549q-223 0 -358 70l39 323q49 -28 159 -52t199 -23q225 0 250 194q12 103 -52 127q-64 23 -149 23h-336l111 911h862l-37 -315h-538l-35 -275h51q287 0 391 -127q90 -107 64 -344q-64 -512 -621 -512z" />
    <glyph glyph-name="six.OP" horiz-adv-x="1239" 
d="M655 653q-169 0 -194 -188q-23 -188 149 -189q152 0 174 188t-129 189zM770 1255q-226 0 -254 -331q84 47 194 47t197 -33q88 -33 129 -85q94 -119 84 -256q-11 -183 -31 -254q-20 -72 -60 -143t-96 -121q-55 -50 -149 -83t-236 -33t-239 49q-98 48 -136 140
q-72 174 -26 501q64 545 236 742q67 78 177 128t253 50q279 0 391 -68l-39 -323q-180 73 -395 73z" />
    <glyph glyph-name="seven.OP" horiz-adv-x="952" 
d="M264 -512h-360l669 1223h-520l37 313h897l-24 -211z" />
    <glyph glyph-name="eight.OP" horiz-adv-x="1228" 
d="M668 948q74 0 118 50t50 108q8 58 -21 105q-29 49 -111 49t-120 -48q-39 -48 -46 -105q-7 -58 24 -109q32 -50 106 -50zM629 635q-89 0 -145 -52t-65 -124t30 -127q39 -56 137 -56t149 56t61 127q10 72 -35 124q-44 52 -132 52zM743 1573q360 0 420 -297
q33 -167 -46 -331q-42 -87 -89 -130q55 -49 85 -160q52 -194 -33 -385q-139 -307 -533 -307q-270 0 -380 140t-85 350q12 93 70 203t122 159q-37 41 -57 128t-10 170q22 179 142 311q61 69 163 109t231 40z" />
    <glyph glyph-name="nine.OP" horiz-adv-x="1239" 
d="M594 371q169 0 194 188q23 188 -149 189q-153 0 -175 -188t130 -189zM479 -231q119 0 180 90t72 241q-81 -47 -191 -47t-198 33t-129 85q-94 119 -84 256q4 69 10 135q13 140 81 262q40 71 96 121t150 83t234 33q142 0 240 -49q98 -48 136 -140q72 -174 26 -501
q-20 -170 -45 -290t-74 -247t-117 -205t-178 -128t-252 -50q-279 0 -391 68l39 323q180 -73 395 -73z" />
    <glyph glyph-name="Euro.OP" horiz-adv-x="1105" 
d="M717 1051q188 0 346 -56l-39 -317q-166 59 -346 59q-86 0 -133 -61h323l-147 -322h-219q33 -68 123 -67q180 0 358 59l-39 -317q-168 -55 -358 -56q-418 0 -436 381h-113l39 322h114q113 375 527 375z" />
    <glyph glyph-name="dollar.OP" horiz-adv-x="1024" 
d="M567 748q-125 0 -129 -56q-9 -39 88 -45q233 -23 319 -92q85 -69 65 -223t-128 -253q-109 -99 -315 -114l-78 -176h-350l104 209q-78 18 -102 33l41 329q68 -32 180 -58t195 -26q125 0 129 56q9 39 -88 45q-233 23 -319 92q-85 70 -67 219q18 148 118 246q99 98 284 121
l84 180h352l-104 -203q57 -11 104 -31l-41 -331q-53 26 -163 52t-179 26z" />
    <glyph glyph-name="cent.OP" horiz-adv-x="1003" 
d="M547 276q152 0 342 58l-39 -320q-145 -47 -336 -51l-78 -174h-350l127 252q-164 125 -121 471q61 510 469 545l84 178h352l-104 -203q27 -6 80 -22l-39 -320q-178 58 -330 58t-180 -236t123 -236z" />
    <glyph glyph-name="sterling.OP" horiz-adv-x="1116" 
d="M188 682q42 379 470 379q221 0 370 -64l-39 -319q-147 67 -356 67q-104 0 -117 -63h361l-37 -311h-361l-8 -58h508l-37 -313h-952l37 313h116l9 58h-117l37 311h116z" />
    <glyph glyph-name="florin.OP" horiz-adv-x="1085" 
d="M688 1061q211 0 342 -57l-39 -318q-178 70 -348 57q-80 -6 -88 -61l-2 -23h393l-37 -301h-393l-106 -870h-324l107 870h-166l28 240l172 45l4 39q23 178 135 278t322 101z" />
    <glyph glyph-name="yen.OP" horiz-adv-x="1228" 
d="M713 0h-320l31 274h-301l39 320h139l-229 430h395l166 -358l252 358h395l-334 -430h141l-38 -320h-304z" />
    <glyph glyph-name="numbersign.OP" horiz-adv-x="1220" 
d="M598 522l-12 -18h26l13 18h-27zM362 0l89 182h-25l-92 -182h-338l92 182h-119l135 322h144l12 18h-121l137 320h144l90 182h340l-90 -182h26l91 182h340l-91 -182h125l-137 -320h-149l-15 -18h129l-135 -322h-151l-93 -182h-338z" />
    <glyph glyph-name="dotbelow" horiz-adv-x="1105" 
d="M360 -118q64 56 146 56t131 -56t40 -138t-73 -138t-145 -56q-82 0 -132 54q-50 56 -40 139t73 139z" />
    <glyph glyph-name="caronSlovak" horiz-adv-x="655" 
d="M686 1536h232l-150 -410h-166z" />
    </font>
</defs>
</svg>
